<?xml version="1.0" encoding="UTF-8"?>
<svg xmlns="http://www.w3.org/2000/svg" viewBox="0 0 434.39 472.03">
  <defs>
    <style>
      .cls-1 {
        fill: #ffa8a7;
      }

      .cls-2 {
        fill: #c8856a;
      }

      .cls-3, .cls-4, .cls-5 {
        fill: #fafafa;
      }

      .cls-6 {
        opacity: .05;
      }

      .cls-4, .cls-7 {
        opacity: .3;
      }

      .cls-8 {
        fill: #263238;
      }

      .cls-9 {
        fill: #f0f0f0;
      }

      .cls-10 {
        fill: #37474f;
      }

      .cls-11 {
        fill: #af6152;
      }

      .cls-12 {
        fill: #e0e0e0;
      }

      .cls-13 {
        fill: #455a64;
      }

      .cls-7, .cls-14, .cls-15 {
        fill: #fff;
      }

      .cls-14 {
        opacity: .8;
      }

      .cls-16, .cls-5 {
        opacity: .2;
      }

      .cls-17 {
        fill: #ebebeb;
      }

      .cls-18 {
        fill: #ba68c8;
      }

      .cls-19 {
        fill: #f5f5f5;
      }

      .cls-20 {
        opacity: .1;
      }

      .cls-21 {
        fill: #e6e6e6;
      }

      .cls-15 {
        opacity: .7;
      }
    </style>
  </defs>
  <g id="Floor">
    <path id="Floor-2" data-name="Floor" class="cls-19" d="M63.34,263.9c-82.47,47.61-82.47,124.81,0,172.42,82.47,47.61,216.18,47.61,298.64,0,82.47-47.61,82.47-124.81,0-172.42-82.47-47.61-216.18-47.61-298.64,0Z"/>
    <g id="Crater">
      <path class="cls-9" d="M376.24,335.38c10.62,6.34,10.48,16.37-.32,22.4s-28.17,5.78-38.8-.56c-10.62-6.34-10.48-16.37.32-22.4,10.8-6.03,28.17-5.78,38.8.56Z"/>
      <path class="cls-12" d="M374.64,337.19c9.77,5.31,9.65,13.69-.27,18.72s-25.89,4.8-35.66-.51-9.65-13.69.27-18.72c9.92-5.03,25.89-4.8,35.66.51Z"/>
      <path class="cls-20" d="M338.82,341.72c-3.66,1.86-5.98,4.17-6.97,6.61.85,2.56,3.13,5.04,6.86,7.07,9.77,5.31,25.74,5.54,35.66.51,3.66-1.86,5.98-4.17,6.96-6.61-.85-2.56-3.13-5.04-6.86-7.07-9.77-5.31-25.74-5.54-35.66-.51Z"/>
      <path class="cls-12" d="M336.53,333.19c-5.35.75-9.83,5.74-11.42,10.7-.51,1.58-.78,3.22-1.25,4.81-.41,1.37-.97,2.7-1.67,3.96-.71,1.28-1.58,2.48-2.55,3.57-.92,1.03-2.18,1.84-2.94,2.98-.25.37.23,1.09.68.92,1.32-.5,2.36-1.52,3.32-2.53,1.01-1.05,1.88-2.21,2.63-3.45,1.6-2.62,2.27-5.42,3.02-8.36.67-2.65,1.93-5.06,3.65-7.18,1.78-2.18,4.13-3.78,6.52-5.23.04-.03.1-.19,0-.18Z"/>
      <path class="cls-12" d="M393.39,356.39c-.46-.99-1.5-1.56-2.17-2.41-.77-.98-1.34-2.13-1.78-3.29-.98-2.56-1.39-5.3-2.38-7.87-.92-2.41-2.43-4.63-4.39-6.32-.99-.85-2.06-1.53-3.2-2.16-.54-.3-1.1-.56-1.68-.79-.27-.1-.54-.19-.81-.28-.46-.15-.61-.09-1.08-.14-.05,0-.08.1-.04.13,2.21,1.36,4.4,2.61,6.24,4.51,1.93,1.99,3.18,4.3,3.94,6.95.72,2.51,1.19,5.11,2.31,7.49.88,1.88,2.54,4.64,4.86,4.78.31.02.28-.45.2-.62Z"/>
      <path class="cls-12" d="M331.56,357.17c-.06-.15-.18-.31-.36-.32-.59-.02-.93.42-1.28.84-.31.37-.61.75-.9,1.15-.63.88-1.19,1.81-1.66,2.78-.73,1.49-1.07,3.85-2.75,4.61-.18.08-.16.55.07.53,2.25-.24,2.91-2.54,3.76-4.27.47-.95,1.01-1.86,1.64-2.71.31-.42.64-.83.98-1.22.37-.42.75-.79.49-1.38Z"/>
      <path class="cls-12" d="M341.3,362.42c0-.33-.52-.79-.8-.45-.56.7-.83,1.66-1.12,2.5-.29.82-.56,1.64-.82,2.47-.25.82-.48,1.65-.71,2.48-.11.41-.22.84-.27,1.26-.06.45-.14.94-.02,1.39.07.25.42.62.68.35.33-.35.5-.95.66-1.4.13-.39.24-.78.35-1.17.23-.83.46-1.65.71-2.47.25-.81.49-1.62.74-2.43.25-.81.62-1.66.6-2.52Z"/>
      <path class="cls-12" d="M356.9,368.95c.17-1.53.26-3.01.19-4.54-.01-.28-.52-.66-.61-.23-.29,1.5-.46,2.99-.67,4.5-.1.73-.22,1.46-.32,2.18-.05.37-.08.73-.11,1.1-.03.4-.09.72.04,1.11.06.18.34.45.53.26.3-.3.3-.7.42-1.09.11-.34.17-.68.23-1.03.12-.75.21-1.5.29-2.25Z"/>
      <path class="cls-12" d="M372.66,369.71c-.03-.33-.08-.65-.13-.98-.1-.6-.2-1.21-.31-1.81-.24-1.41-.47-2.83-1-4.17-.12-.3-.56-.47-.6-.02-.12,1.37.15,2.75.34,4.11.09.64.18,1.29.27,1.93.05.31.09.63.17.93.12.49.19.99.53,1.38.23.27.46.21.66-.01.22-.24.1-1.04.07-1.36Z"/>
      <path class="cls-12" d="M385.13,367.32c-.22-.55-.73-1.06-1.11-1.51-.23-.26-.44-.54-.67-.8-.43-.49-.84-1-1.23-1.53-1.13-1.53-2.12-3.2-3-4.88-.27-.52-.95-.27-.76.31.59,1.79,1.44,3.39,2.54,4.92.48.67.99,1.32,1.53,1.94.33.37.7.75,1.08,1.08.34.29.79.69,1.19.87.26.12.55-.09.43-.4Z"/>
      <path class="cls-12" d="M391.61,363.61c-.34-.53-.85-.87-1.31-1.28-.33-.29-.66-.59-.97-.9-.64-.63-1.21-1.31-1.79-2-.56-.67-1.04-1.39-1.48-2.14-.49-.85-.87-1.75-1.37-2.59-.16-.26-.41-.06-.37.19.14.95.56,1.81,1.01,2.65.46.87.97,1.71,1.52,2.52.53.78,1.18,1.51,1.84,2.18.71.73,1.57,1.61,2.53,1.98.39.15.6-.29.4-.61Z"/>
    </g>
    <g id="Crater-2" data-name="Crater">
      <path class="cls-9" d="M106.86,348.94c13.11,7.82,12.93,20.19-.4,27.63s-34.75,7.13-47.86-.69c-13.11-7.82-12.93-20.19.4-27.63s34.75-7.13,47.86.69Z"/>
      <path class="cls-12" d="M104.89,351.18c12.06,6.55,11.91,16.89-.33,23.09-12.24,6.2-31.93,5.92-43.99-.63-12.06-6.55-11.91-16.89.33-23.09,12.24-6.2,31.93-5.92,43.99.63Z"/>
      <path class="cls-20" d="M60.7,356.77c-4.52,2.29-7.37,5.14-8.59,8.16,1.05,3.16,3.86,6.22,8.46,8.72,12.06,6.55,31.75,6.83,43.99.63,4.52-2.29,7.37-5.14,8.59-8.16-1.05-3.16-3.86-6.22-8.46-8.72-12.06-6.55-31.75-6.83-43.99-.63Z"/>
      <path class="cls-12" d="M57.88,346.25c-6.6.92-12.12,7.08-14.09,13.2-.63,1.95-.96,3.97-1.55,5.93-.51,1.7-1.2,3.33-2.06,4.88-.88,1.58-1.95,3.05-3.15,4.4-1.13,1.27-2.69,2.27-3.62,3.68-.31.46.29,1.34.84,1.13,1.63-.62,2.91-1.88,4.1-3.13,1.24-1.3,2.31-2.73,3.25-4.26,1.98-3.24,2.8-6.69,3.73-10.31.83-3.26,2.38-6.25,4.51-8.85,2.2-2.69,5.09-4.66,8.04-6.45.05-.03.12-.23,0-.22Z"/>
      <path class="cls-12" d="M128.03,374.86c-.57-1.22-1.85-1.92-2.68-2.98-.95-1.21-1.65-2.63-2.2-4.06-1.21-3.16-1.72-6.54-2.93-9.7-1.14-2.97-3-5.72-5.42-7.79-1.22-1.05-2.54-1.89-3.95-2.66-.67-.37-1.36-.7-2.07-.97-.33-.13-.67-.24-1-.35-.56-.18-.75-.1-1.34-.17-.06,0-.1.13-.05.16,2.73,1.68,5.43,3.23,7.69,5.57,2.38,2.46,3.92,5.3,4.86,8.58.89,3.1,1.46,6.3,2.84,9.24,1.09,2.32,3.13,5.73,5.99,5.9.39.02.35-.56.25-.76Z"/>
      <path class="cls-12" d="M51.75,375.82c-.08-.18-.22-.38-.44-.39-.73-.03-1.14.52-1.58,1.03-.39.46-.76.93-1.1,1.42-.78,1.08-1.47,2.23-2.05,3.43-.9,1.84-1.32,4.75-3.39,5.69-.22.1-.2.68.09.65,2.78-.29,3.6-3.13,4.64-5.27.57-1.17,1.25-2.29,2.02-3.35.38-.52.79-1.02,1.21-1.51.46-.52.93-.98.61-1.7Z"/>
      <path class="cls-12" d="M63.77,382.3c0-.4-.64-.97-.98-.55-.7.87-1.02,2.04-1.39,3.08-.36,1.01-.7,2.03-1.01,3.05-.31,1.01-.6,2.03-.87,3.05-.14.51-.27,1.03-.34,1.56-.07.56-.18,1.17-.03,1.71.08.31.52.76.84.43.41-.44.62-1.17.81-1.73.16-.48.3-.96.43-1.45.28-1.02.57-2.04.88-3.05.3-1,.61-2,.92-3s.76-2.05.74-3.1Z"/>
      <path class="cls-12" d="M83.01,390.36c.22-1.88.32-3.71.24-5.6-.02-.35-.64-.82-.75-.28-.36,1.84-.57,3.69-.82,5.56-.12.9-.27,1.8-.4,2.7-.06.46-.1.9-.13,1.35-.03.49-.11.88.05,1.37.07.22.42.55.66.32.37-.37.37-.87.52-1.35.13-.42.21-.84.28-1.27.15-.92.26-1.85.36-2.78Z"/>
      <path class="cls-12" d="M102.45,391.3c-.04-.4-.09-.8-.16-1.2-.12-.74-.25-1.49-.38-2.23-.3-1.74-.59-3.49-1.23-5.14-.15-.38-.69-.58-.74-.03-.15,1.69.18,3.4.42,5.07.11.79.22,1.59.34,2.39.06.38.12.77.2,1.15.14.61.24,1.22.65,1.7.29.34.56.25.81-.01.27-.29.12-1.28.08-1.68Z"/>
      <path class="cls-12" d="M117.83,388.34c-.27-.68-.9-1.31-1.37-1.86-.28-.33-.55-.67-.83-.99-.53-.61-1.03-1.23-1.51-1.88-1.4-1.89-2.62-3.94-3.7-6.03-.33-.64-1.17-.33-.94.38.73,2.21,1.78,4.18,3.13,6.07.59.83,1.22,1.63,1.89,2.39.4.46.87.93,1.34,1.33.42.36.97.85,1.46,1.08.32.14.68-.11.54-.49Z"/>
      <path class="cls-12" d="M125.83,383.77c-.41-.66-1.05-1.08-1.62-1.58-.41-.36-.81-.73-1.2-1.11-.79-.78-1.5-1.62-2.21-2.47-.69-.82-1.29-1.71-1.82-2.64-.6-1.05-1.07-2.16-1.7-3.2-.19-.32-.5-.07-.45.24.17,1.17.7,2.23,1.24,3.27.56,1.07,1.2,2.11,1.88,3.11.66.97,1.45,1.86,2.26,2.69.88.9,1.93,1.99,3.12,2.45.48.18.74-.36.49-.75Z"/>
    </g>
    <g id="Crater-3" data-name="Crater">
      <path class="cls-9" d="M78.61,298.97c5.88,3.51,5.8,9.05-.18,12.39-5.98,3.34-15.58,3.2-21.46-.31-5.88-3.51-5.8-9.05.18-12.39,5.98-3.34,15.58-3.2,21.46.31Z"/>
      <path class="cls-12" d="M77.73,299.97c5.41,2.94,5.34,7.57-.15,10.36-5.49,2.78-14.32,2.65-19.73-.28-5.41-2.94-5.34-7.57.15-10.36s14.32-2.65,19.73.28Z"/>
      <path class="cls-20" d="M57.91,302.48c-2.03,1.03-3.31,2.31-3.85,3.66.47,1.42,1.73,2.79,3.8,3.91,5.41,2.94,14.24,3.06,19.73.28,2.03-1.03,3.31-2.31,3.85-3.66-.47-1.42-1.73-2.79-3.8-3.91-5.41-2.94-14.24-3.06-19.73-.28Z"/>
      <path class="cls-12" d="M56.64,297.76c-2.96.41-5.44,3.18-6.32,5.92-.28.87-.43,1.78-.69,2.66-.23.76-.54,1.49-.92,2.19-.39.71-.87,1.37-1.41,1.97-.51.57-1.2,1.02-1.63,1.65-.14.21.13.6.38.51.73-.28,1.3-.84,1.84-1.4.56-.58,1.04-1.22,1.46-1.91.89-1.45,1.26-3,1.67-4.62.37-1.46,1.07-2.8,2.02-3.97.98-1.21,2.28-2.09,3.6-2.89.02-.01.05-.11,0-.1Z"/>
      <path class="cls-12" d="M88.1,310.59c-.25-.55-.83-.86-1.2-1.34-.43-.54-.74-1.18-.98-1.82-.54-1.42-.77-2.93-1.31-4.35-.51-1.33-1.34-2.56-2.43-3.49-.55-.47-1.14-.85-1.77-1.19-.3-.16-.61-.31-.93-.43-.15-.06-.3-.11-.45-.16-.25-.08-.34-.05-.6-.08-.02,0-.05.06-.02.07,1.22.75,2.43,1.45,3.45,2.5,1.07,1.1,1.76,2.38,2.18,3.85.4,1.39.66,2.83,1.28,4.15.49,1.04,1.4,2.57,2.69,2.64.17.01.16-.25.11-.34Z"/>
      <path class="cls-12" d="M53.89,311.02c-.04-.08-.1-.17-.2-.18-.33-.01-.51.23-.71.46-.17.2-.34.42-.5.63-.35.49-.66,1-.92,1.54-.4.83-.59,2.13-1.52,2.55-.1.04-.09.31.04.29,1.25-.13,1.61-1.41,2.08-2.36.26-.53.56-1.03.91-1.5.17-.23.35-.46.54-.68.2-.23.42-.44.27-.76Z"/>
      <path class="cls-12" d="M59.28,313.93c0-.18-.29-.44-.44-.25-.31.39-.46.92-.62,1.38-.16.45-.31.91-.45,1.37-.14.45-.27.91-.39,1.37-.06.23-.12.46-.15.7-.03.25-.08.52-.01.77.04.14.23.34.37.19.18-.2.28-.52.37-.77.07-.21.13-.43.19-.65.13-.46.26-.91.4-1.37.14-.45.27-.9.41-1.34.14-.45.34-.92.33-1.39Z"/>
      <path class="cls-12" d="M67.91,317.54c.1-.84.15-1.66.11-2.51,0-.16-.29-.37-.34-.13-.16.83-.25,1.66-.37,2.49-.05.4-.12.81-.18,1.21-.03.2-.05.4-.06.61-.01.22-.05.4.02.61.03.1.19.25.29.14.16-.17.16-.39.23-.6.06-.19.1-.37.13-.57.07-.41.12-.83.16-1.25Z"/>
      <path class="cls-12" d="M76.63,317.96c-.02-.18-.04-.36-.07-.54-.05-.33-.11-.67-.17-1-.13-.78-.26-1.57-.55-2.31-.07-.17-.31-.26-.33-.01-.07.76.08,1.52.19,2.27.05.36.1.71.15,1.07.03.17.05.35.09.51.06.27.11.55.29.76.13.15.25.11.36,0,.12-.13.05-.58.04-.75Z"/>
      <path class="cls-12" d="M83.53,316.64c-.12-.3-.4-.59-.61-.83-.13-.15-.24-.3-.37-.44-.24-.27-.46-.55-.68-.84-.63-.85-1.17-1.77-1.66-2.7-.15-.29-.53-.15-.42.17.33.99.8,1.87,1.4,2.72.26.37.55.73.85,1.07.18.21.39.42.6.6.19.16.44.38.66.48.14.06.31-.05.24-.22Z"/>
      <path class="cls-12" d="M87.11,314.58c-.19-.3-.47-.48-.73-.71-.18-.16-.36-.33-.54-.5-.36-.35-.67-.73-.99-1.11-.31-.37-.58-.77-.82-1.18-.27-.47-.48-.97-.76-1.43-.09-.14-.22-.03-.2.11.08.52.31,1,.56,1.47.25.48.54.95.84,1.39.29.43.65.83,1.02,1.21.4.4.87.89,1.4,1.1.21.08.33-.16.22-.34Z"/>
    </g>
    <g id="Crater-4" data-name="Crater">
      <path class="cls-9" d="M354.69,397.21c5.89,3.52,5.81,9.08-.18,12.43s-15.63,3.21-21.52-.31c-5.89-3.52-5.81-9.08.18-12.43s15.63-3.21,21.52.31Z"/>
      <path class="cls-12" d="M353.81,398.22c5.42,2.95,5.36,7.6-.15,10.39-5.5,2.79-14.36,2.66-19.78-.28s-5.36-7.6.15-10.39c5.5-2.79,14.36-2.66,19.78.28Z"/>
      <path class="cls-20" d="M333.93,400.73c-2.03,1.03-3.32,2.31-3.86,3.67.47,1.42,1.74,2.8,3.81,3.92,5.42,2.95,14.28,3.07,19.78.28,2.03-1.03,3.32-2.31,3.86-3.67-.47-1.42-1.74-2.8-3.81-3.92-5.42-2.95-14.28-3.07-19.78-.28Z"/>
      <path class="cls-12" d="M332.66,396c-2.97.41-5.45,3.19-6.34,5.93-.28.88-.43,1.79-.69,2.67-.23.76-.54,1.5-.93,2.19-.39.71-.88,1.37-1.42,1.98-.51.57-1.21,1.02-1.63,1.66-.14.21.13.6.38.51.73-.28,1.31-.84,1.84-1.41.56-.58,1.04-1.23,1.46-1.92.89-1.45,1.26-3.01,1.68-4.64.37-1.47,1.07-2.81,2.03-3.98.99-1.21,2.29-2.1,3.61-2.9.02-.01.05-.11,0-.1Z"/>
      <path class="cls-12" d="M364.21,408.87c-.25-.55-.83-.86-1.21-1.34-.43-.54-.74-1.18-.99-1.83-.54-1.42-.77-2.94-1.32-4.36-.51-1.34-1.35-2.57-2.44-3.5-.55-.47-1.14-.85-1.78-1.2-.3-.16-.61-.31-.93-.44-.15-.06-.3-.11-.45-.16-.25-.08-.34-.05-.6-.08-.02,0-.05.06-.02.07,1.23.76,2.44,1.45,3.46,2.5,1.07,1.1,1.76,2.38,2.19,3.86.4,1.39.66,2.84,1.28,4.16.49,1.05,1.41,2.58,2.69,2.65.17.01.16-.25.11-.34Z"/>
      <path class="cls-12" d="M329.91,409.3c-.04-.08-.1-.17-.2-.18-.33-.01-.51.23-.71.46-.17.21-.34.42-.5.64-.35.49-.66,1-.92,1.54-.4.83-.6,2.14-1.53,2.56-.1.04-.09.31.04.29,1.25-.13,1.62-1.41,2.09-2.37.26-.53.56-1.03.91-1.51.17-.23.35-.46.55-.68.21-.23.42-.44.27-.76Z"/>
      <path class="cls-12" d="M335.31,412.22c0-.18-.29-.44-.44-.25-.31.39-.46.92-.62,1.38-.16.45-.31.91-.45,1.37-.14.46-.27.91-.39,1.37-.06.23-.12.46-.15.7-.03.25-.08.52-.01.77.04.14.23.34.38.19.18-.2.28-.52.37-.78.07-.21.13-.43.19-.65.13-.46.26-.92.4-1.37.14-.45.27-.9.41-1.35.14-.45.34-.92.33-1.4Z"/>
      <path class="cls-12" d="M343.97,415.84c.1-.85.15-1.67.11-2.52,0-.16-.29-.37-.34-.13-.16.83-.26,1.66-.37,2.5-.06.4-.12.81-.18,1.21-.03.2-.05.4-.06.61-.01.22-.05.4.02.61.03.1.19.25.3.14.17-.17.16-.39.23-.61.06-.19.1-.38.13-.57.07-.41.12-.83.16-1.25Z"/>
      <path class="cls-12" d="M352.71,416.26c-.02-.18-.04-.36-.07-.54-.05-.33-.11-.67-.17-1-.13-.78-.26-1.57-.55-2.31-.07-.17-.31-.26-.33-.01-.07.76.08,1.53.19,2.28.05.36.1.72.15,1.07.02.17.05.35.09.52.06.27.11.55.29.76.13.15.25.11.36,0,.12-.13.05-.58.04-.76Z"/>
      <path class="cls-12" d="M359.63,414.93c-.12-.31-.4-.59-.62-.84-.13-.15-.25-.3-.37-.45-.24-.27-.47-.56-.68-.85-.63-.85-1.18-1.77-1.66-2.71-.15-.29-.53-.15-.42.17.33.99.8,1.88,1.41,2.73.27.37.55.73.85,1.07.18.21.39.42.6.6.19.16.44.38.66.49.14.07.31-.05.24-.22Z"/>
      <path class="cls-12" d="M363.22,412.88c-.19-.3-.47-.48-.73-.71-.18-.16-.36-.33-.54-.5-.36-.35-.67-.73-.99-1.11-.31-.37-.58-.77-.82-1.19-.27-.47-.48-.97-.76-1.44-.09-.14-.23-.03-.2.11.08.53.31,1,.56,1.47.25.48.54.95.85,1.4.3.43.65.84,1.02,1.21.4.41.87.89,1.4,1.1.22.08.33-.16.22-.34Z"/>
    </g>
  </g>
  <g id="Background">
    <path id="Background-2" data-name="Background" class="cls-8" d="M320.67,107.6c-11.04-14.48-18.21-34.4-25.97-50.64-9.32-19.52-22.59-33.9-41.59-44.14-47.96-25.83-108.28-9.93-147.62,23.49-12.24,10.39-22.96,22.58-31.64,36.09-27.39,42.63-37.76,100.68-18.97,148.29,17.62,44.67,53.32,82.07,97.31,101.4,27.45,12.06,61.16,14.49,90.78,11.89,53.56-4.7,106.66-27.59,130.85-71.36,15.74-28.48,18.05-66.08,5.49-90.52-17.38-33.82-38.21-37.71-58.63-64.5ZM344.6,109.83c4.4,3.3,9.6,5.84,14.93,7.07,9.81,2.28,20.03.12,26.36-9.88,5.66-8.94,4.89-20.48,2.57-30.8-2.89-12.81-8.08-25.46-17.25-34.86-12.31-12.62-39.47-21.19-49.9-1.54-4.12,7.76-4.83,16.44-3.64,24.97,2.49,17.8,12.6,34.28,26.94,45.03Z"/>
  </g>
  <g id="Shadow">
    <path id="Shadow-2" data-name="Shadow" class="cls-21" d="M157.81,374.2c-33.31,19.23-33.31,50.42,0,69.65,33.31,19.23,87.33,19.23,120.64,0,33.31-19.23,33.31-50.42,0-69.65-33.31-19.23-87.33-19.23-120.64,0Z"/>
  </g>
  <g id="Stars">
    <g id="Stars-2" data-name="Stars">
      <path class="cls-18" d="M313.49,18.63c-.07.58-.59,1-1.18.93-.58-.07-1-.59-.93-1.18s.59-1,1.18-.93c.58.07,1,.59.93,1.18Z"/>
      <g>
        <path class="cls-18" d="M94.92,101.52c0,1.09-.88,1.97-1.97,1.97s-1.97-.88-1.97-1.97.88-1.97,1.97-1.97,1.97.88,1.97,1.97Z"/>
        <path class="cls-15" d="M94.92,101.52c0,1.09-.88,1.97-1.97,1.97s-1.97-.88-1.97-1.97.88-1.97,1.97-1.97,1.97.88,1.97,1.97Z"/>
      </g>
      <g>
        <path class="cls-18" d="M148.54,35.86c-.73.91-2.07,1.06-2.98.32-.91-.73-1.06-2.07-.32-2.98.73-.91,2.07-1.06,2.98-.32.91.73,1.06,2.07.32,2.98Z"/>
        <path class="cls-15" d="M148.54,35.86c-.73.91-2.07,1.06-2.98.32-.91-.73-1.06-2.07-.32-2.98.73-.91,2.07-1.06,2.98-.32.91.73,1.06,2.07.32,2.98Z"/>
      </g>
      <g>
        <path class="cls-18" d="M305.82,23.27c-.13,1.16-1.19,2-2.35,1.86-1.16-.13-2-1.19-1.86-2.35.13-1.16,1.19-2,2.35-1.86,1.16.13,2,1.19,1.86,2.35Z"/>
        <path class="cls-15" d="M305.82,23.27c-.13,1.16-1.19,2-2.35,1.86-1.16-.13-2-1.19-1.86-2.35.13-1.16,1.19-2,2.35-1.86,1.16.13,2,1.19,1.86,2.35Z"/>
      </g>
      <g>
        <path class="cls-18" d="M15.18,127.7c.49.97.1,2.16-.87,2.65-.97.49-2.16.1-2.65-.87-.49-.97-.1-2.16.87-2.65.97-.49,2.16-.1,2.65.87Z"/>
        <path class="cls-15" d="M15.18,127.7c.49.97.1,2.16-.87,2.65-.97.49-2.16.1-2.65-.87-.49-.97-.1-2.16.87-2.65.97-.49,2.16-.1,2.65.87Z"/>
      </g>
      <g>
        <path class="cls-18" d="M341.79,211.49c1.14-.28,2.29.42,2.56,1.56.28,1.14-.42,2.29-1.56,2.56-1.14.28-2.29-.42-2.56-1.56-.28-1.14.42-2.29,1.56-2.56Z"/>
        <path class="cls-15" d="M341.79,211.49c1.14-.28,2.29.42,2.56,1.56.28,1.14-.42,2.29-1.56,2.56-1.14.28-2.29-.42-2.56-1.56-.28-1.14.42-2.29,1.56-2.56Z"/>
      </g>
      <g>
        <path class="cls-18" d="M63.82,39.13c1.14-.28,2.29.42,2.56,1.56.28,1.14-.42,2.29-1.56,2.56-1.14.28-2.29-.42-2.56-1.56-.28-1.14.42-2.29,1.56-2.56Z"/>
        <path class="cls-15" d="M63.82,39.13c1.14-.28,2.29.42,2.56,1.56.28,1.14-.42,2.29-1.56,2.56-1.14.28-2.29-.42-2.56-1.56-.28-1.14.42-2.29,1.56-2.56Z"/>
      </g>
      <g>
        <path class="cls-18" d="M431.23,268.98c0,1.09-.88,1.97-1.97,1.97s-1.97-.88-1.97-1.97.88-1.97,1.97-1.97,1.97.88,1.97,1.97Z"/>
        <path class="cls-15" d="M431.23,268.98c0,1.09-.88,1.97-1.97,1.97s-1.97-.88-1.97-1.97.88-1.97,1.97-1.97,1.97.88,1.97,1.97Z"/>
      </g>
      <g>
        <path class="cls-18" d="M420.26,134.24c0,1.96-1.59,3.54-3.54,3.54s-3.55-1.59-3.55-3.54,1.59-3.55,3.55-3.55,3.54,1.59,3.54,3.55Z"/>
        <path class="cls-15" d="M420.26,134.24c0,1.96-1.59,3.54-3.54,3.54s-3.55-1.59-3.55-3.54,1.59-3.55,3.55-3.55,3.54,1.59,3.54,3.55Z"/>
      </g>
      <g>
        <path class="cls-18" d="M409.66,143.92c0,1.17-.95,2.12-2.12,2.12s-2.12-.95-2.12-2.12.95-2.12,2.12-2.12,2.12.95,2.12,2.12Z"/>
        <path class="cls-15" d="M409.66,143.92c0,1.17-.95,2.12-2.12,2.12s-2.12-.95-2.12-2.12.95-2.12,2.12-2.12,2.12.95,2.12,2.12Z"/>
      </g>
      <g>
        <path class="cls-18" d="M103.03,226.1c-1.14-.28-2.29.42-2.56,1.56-.28,1.14.42,2.29,1.56,2.56s2.29-.42,2.56-1.56c.28-1.14-.42-2.29-1.56-2.56Z"/>
        <path class="cls-15" d="M103.03,226.1c-1.14-.28-2.29.42-2.56,1.56-.28,1.14.42,2.29,1.56,2.56s2.29-.42,2.56-1.56c.28-1.14-.42-2.29-1.56-2.56Z"/>
      </g>
      <g>
        <path class="cls-18" d="M362.14,78c-.49.97-.1,2.16.87,2.65.97.49,2.16.1,2.65-.87.49-.97.1-2.16-.87-2.65-.97-.49-2.16-.1-2.65.87Z"/>
        <path class="cls-15" d="M362.14,78c-.49.97-.1,2.16.87,2.65.97.49,2.16.1,2.65-.87.49-.97.1-2.16-.87-2.65-.97-.49-2.16-.1-2.65.87Z"/>
      </g>
      <g>
        <path class="cls-18" d="M429.53,208.66c-.64,1.27-.13,2.81,1.14,3.45,1.27.64,2.81.13,3.45-1.14.64-1.27.13-2.81-1.14-3.45-1.27-.64-2.81-.13-3.45,1.14Z"/>
        <path class="cls-15" d="M429.53,208.66c-.64,1.27-.13,2.81,1.14,3.45,1.27.64,2.81.13,3.45-1.14.64-1.27.13-2.81-1.14-3.45-1.27-.64-2.81-.13-3.45,1.14Z"/>
      </g>
      <g>
        <path class="cls-18" d="M328.57,165.82c0,1.09-.88,1.97-1.97,1.97s-1.97-.88-1.97-1.97.88-1.97,1.97-1.97,1.97.88,1.97,1.97Z"/>
        <path class="cls-14" d="M328.57,165.82c0,1.09-.88,1.97-1.97,1.97s-1.97-.88-1.97-1.97.88-1.97,1.97-1.97,1.97.88,1.97,1.97Z"/>
      </g>
      <g>
        <path class="cls-18" d="M417.11,42.52c0,1.09-.88,1.97-1.97,1.97s-1.97-.88-1.97-1.97.88-1.97,1.97-1.97,1.97.88,1.97,1.97Z"/>
        <path class="cls-14" d="M417.11,42.52c0,1.09-.88,1.97-1.97,1.97s-1.97-.88-1.97-1.97.88-1.97,1.97-1.97,1.97.88,1.97,1.97Z"/>
      </g>
      <g>
        <path class="cls-18" d="M156.7,31.3c-.37.46-1.04.53-1.49.16-.46-.37-.53-1.04-.16-1.49.37-.46,1.04-.53,1.49-.16.46.37.53,1.04.16,1.49Z"/>
        <path class="cls-14" d="M156.7,31.3c-.37.46-1.04.53-1.49.16-.46-.37-.53-1.04-.16-1.49.37-.46,1.04-.53,1.49-.16.46.37.53,1.04.16,1.49Z"/>
      </g>
      <path class="cls-14" d="M313.49,18.63c-.07.58-.59,1-1.18.93-.58-.07-1-.59-.93-1.18s.59-1,1.18-.93c.58.07,1,.59.93,1.18Z"/>
      <g>
        <path class="cls-18" d="M354.48,83.27c.57-.14,1.14.21,1.28.78.14.57-.21,1.15-.78,1.28-.57.14-1.14-.21-1.28-.78-.14-.57.21-1.14.78-1.28Z"/>
        <path class="cls-14" d="M354.48,83.27c.57-.14,1.14.21,1.28.78.14.57-.21,1.15-.78,1.28-.57.14-1.14-.21-1.28-.78-.14-.57.21-1.14.78-1.28Z"/>
      </g>
      <g>
        <path class="cls-18" d="M6.55,204.68c.86,1.71.18,3.79-1.53,4.65-1.71.86-3.79.18-4.65-1.53-.86-1.71-.18-3.79,1.53-4.65,1.71-.86,3.79-.18,4.65,1.53Z"/>
        <path class="cls-14" d="M6.55,204.68c.86,1.71.18,3.79-1.53,4.65-1.71.86-3.79.18-4.65-1.53-.86-1.71-.18-3.79,1.53-4.65,1.71-.86,3.79-.18,4.65,1.53Z"/>
      </g>
      <g>
        <path class="cls-18" d="M332.54,210.15c.57-.14,1.15.21,1.28.78.14.57-.21,1.14-.78,1.28-.57.14-1.14-.21-1.28-.78-.14-.57.21-1.14.78-1.28Z"/>
        <path class="cls-14" d="M332.54,210.15c.57-.14,1.15.21,1.28.78.14.57-.21,1.14-.78,1.28-.57.14-1.14-.21-1.28-.78-.14-.57.21-1.14.78-1.28Z"/>
      </g>
      <g>
        <path class="cls-18" d="M54.57,37.8c.57-.14,1.14.21,1.28.78.14.57-.21,1.14-.78,1.28-.57.14-1.14-.21-1.28-.78-.14-.57.21-1.14.78-1.28Z"/>
        <path class="cls-14" d="M54.57,37.8c.57-.14,1.14.21,1.28.78.14.57-.21,1.14-.78,1.28-.57.14-1.14-.21-1.28-.78-.14-.57.21-1.14.78-1.28Z"/>
      </g>
      <g>
        <path class="cls-18" d="M62.56,28.84c.57-.14,1.15.21,1.28.78.14.57-.21,1.15-.78,1.28-.57.14-1.14-.21-1.28-.78-.14-.57.21-1.14.78-1.28Z"/>
        <path class="cls-14" d="M62.56,28.84c.57-.14,1.15.21,1.28.78.14.57-.21,1.15-.78,1.28-.57.14-1.14-.21-1.28-.78-.14-.57.21-1.14.78-1.28Z"/>
      </g>
      <g>
        <path class="cls-18" d="M252.57,23.85c1.08.12,1.86,1.1,1.73,2.18-.12,1.08-1.1,1.86-2.18,1.73-1.08-.12-1.86-1.1-1.73-2.18.12-1.08,1.1-1.86,2.18-1.73Z"/>
        <path class="cls-14" d="M252.57,23.85c1.08.12,1.86,1.1,1.73,2.18-.12,1.08-1.1,1.86-2.18,1.73-1.08-.12-1.86-1.1-1.73-2.18.12-1.08,1.1-1.86,2.18-1.73Z"/>
      </g>
      <g>
        <path class="cls-18" d="M290.7,105.06c0,1.09-.88,1.97-1.97,1.97s-1.97-.88-1.97-1.97.88-1.97,1.97-1.97,1.97.88,1.97,1.97Z"/>
        <path class="cls-14" d="M290.7,105.06c0,1.09-.88,1.97-1.97,1.97s-1.97-.88-1.97-1.97.88-1.97,1.97-1.97,1.97.88,1.97,1.97Z"/>
      </g>
      <g>
        <path class="cls-18" d="M403.67,130.69c0,.94-.76,1.71-1.71,1.71s-1.71-.76-1.71-1.71.76-1.71,1.71-1.71,1.71.76,1.71,1.71Z"/>
        <path class="cls-14" d="M403.67,130.69c0,.94-.76,1.71-1.71,1.71s-1.71-.76-1.71-1.71.76-1.71,1.71-1.71,1.71.76,1.71,1.71Z"/>
      </g>
      <g>
        <path class="cls-18" d="M93.2,223.22c-.57-.14-1.14.21-1.28.78-.14.57.21,1.14.78,1.28.57.14,1.14-.21,1.28-.78.14-.57-.21-1.14-.78-1.28Z"/>
        <path class="cls-14" d="M93.2,223.22c-.57-.14-1.14.21-1.28.78-.14.57.21,1.14.78,1.28.57.14,1.14-.21,1.28-.78.14-.57-.21-1.14-.78-1.28Z"/>
      </g>
      <g>
        <path class="cls-18" d="M134.35,277.67c-.57-.14-1.14.21-1.28.78-.14.57.21,1.14.78,1.28.57.14,1.14-.21,1.28-.78.14-.57-.21-1.14-.78-1.28Z"/>
        <path class="cls-14" d="M134.35,277.67c-.57-.14-1.14.21-1.28.78-.14.57.21,1.14.78,1.28.57.14,1.14-.21,1.28-.78.14-.57-.21-1.14-.78-1.28Z"/>
      </g>
      <g>
        <path class="cls-18" d="M20.25,226.65c-.49.97-.1,2.16.87,2.65.97.49,2.16.1,2.65-.87.49-.97.1-2.16-.87-2.65-.97-.49-2.16-.1-2.65.87Z"/>
        <path class="cls-14" d="M20.25,226.65c-.49.97-.1,2.16.87,2.65.97.49,2.16.1,2.65-.87.49-.97.1-2.16-.87-2.65-.97-.49-2.16-.1-2.65.87Z"/>
      </g>
      <g>
        <path class="cls-18" d="M343.56,59.5c-.49.97-.1,2.16.87,2.65.97.49,2.16.1,2.65-.87s.1-2.16-.87-2.65c-.97-.49-2.16-.1-2.65.87Z"/>
        <path class="cls-14" d="M343.56,59.5c-.49.97-.1,2.16.87,2.65.97.49,2.16.1,2.65-.87s.1-2.16-.87-2.65c-.97-.49-2.16-.1-2.65.87Z"/>
      </g>
      <g>
        <path class="cls-18" d="M419.55,215.53c.74-.18,1.49.27,1.67,1.02.18.74-.27,1.49-1.02,1.67-.74.18-1.49-.27-1.67-1.02-.18-.74.27-1.49,1.02-1.67Z"/>
        <path class="cls-14" d="M419.55,215.53c.74-.18,1.49.27,1.67,1.02.18.74-.27,1.49-1.02,1.67-.74.18-1.49-.27-1.67-1.02-.18-.74.27-1.49,1.02-1.67Z"/>
      </g>
      <g>
        <path class="cls-18" d="M5.41,135.69c-.16,1.08-1.16,1.82-2.24,1.66-1.08-.16-1.82-1.16-1.66-2.24.16-1.08,1.16-1.82,2.24-1.66,1.08.16,1.82,1.16,1.66,2.24Z"/>
        <path class="cls-14" d="M5.41,135.69c-.16,1.08-1.16,1.82-2.24,1.66-1.08-.16-1.82-1.16-1.66-2.24.16-1.08,1.16-1.82,2.24-1.66,1.08.16,1.82,1.16,1.66,2.24Z"/>
      </g>
      <g>
        <path class="cls-18" d="M15.39,71.72c-3.12,0-5.67-2.54-5.67-5.67s2.54-5.67,5.67-5.67,5.67,2.54,5.67,5.67-2.54,5.67-5.67,5.67ZM15.39,61.09c-2.74,0-4.96,2.23-4.96,4.96s2.23,4.96,4.96,4.96,4.96-2.23,4.96-4.96-2.23-4.96-4.96-4.96Z"/>
        <g>
          <path class="cls-18" d="M15.39,64.5c.86,0,1.56.7,1.56,1.56s-.7,1.56-1.56,1.56-1.56-.7-1.56-1.56.7-1.56,1.56-1.56Z"/>
          <path class="cls-14" d="M15.39,64.5c.86,0,1.56.7,1.56,1.56s-.7,1.56-1.56,1.56-1.56-.7-1.56-1.56.7-1.56,1.56-1.56Z"/>
        </g>
      </g>
      <g>
        <path class="cls-18" d="M81.66,167.72c-4.18,0-7.57-3.4-7.57-7.57s3.4-7.57,7.57-7.57,7.57,3.4,7.57,7.57-3.4,7.57-7.57,7.57ZM81.66,153.28c-3.79,0-6.87,3.08-6.87,6.87s3.08,6.87,6.87,6.87,6.87-3.08,6.87-6.87-3.08-6.87-6.87-6.87Z"/>
        <g>
          <path class="cls-18" d="M81.66,158.03c1.17,0,2.12.95,2.12,2.12s-.95,2.12-2.12,2.12-2.12-.95-2.12-2.12.95-2.12,2.12-2.12Z"/>
          <path class="cls-14" d="M81.66,158.03c1.17,0,2.12.95,2.12,2.12s-.95,2.12-2.12,2.12-2.12-.95-2.12-2.12.95-2.12,2.12-2.12Z"/>
        </g>
      </g>
      <g>
        <path class="cls-18" d="M317.8,282.27c-6.24,0-11.32-5.08-11.32-11.32s5.08-11.32,11.32-11.32,11.32,5.08,11.32,11.32-5.08,11.32-11.32,11.32ZM317.8,260.69c-5.66,0-10.27,4.61-10.27,10.27s4.61,10.27,10.27,10.27,10.27-4.61,10.27-10.27-4.61-10.27-10.27-10.27Z"/>
        <g>
          <path class="cls-18" d="M317.8,267.79c1.75,0,3.17,1.42,3.17,3.17s-1.42,3.17-3.17,3.17-3.17-1.42-3.17-3.17,1.42-3.17,3.17-3.17Z"/>
          <path class="cls-14" d="M317.8,267.79c1.75,0,3.17,1.42,3.17,3.17s-1.42,3.17-3.17,3.17-3.17-1.42-3.17-3.17,1.42-3.17,3.17-3.17Z"/>
        </g>
      </g>
    </g>
  </g>
  <g id="Character">
    <g id="Astronaut">
      <g id="Backpack">
        <g>
          <g>
            <path class="cls-3" d="M237.03,189.93c0-2.7-.95-4.6-2.48-5.49-1.53-.89-24.99-14.44-26.54-15.32-1.53-.87-3.64-.74-5.97.61l-62.59,36.14c-4.68,2.7-8.48,9.28-8.48,14.69v20.97c0,2.7.95,4.6,2.49,5.49,1.53.89,24.98,14.42,26.52,15.31,1.53.89,3.65.76,6-.59l62.59-36.14c4.68-2.7,8.48-9.28,8.48-14.69v-20.97Z"/>
            <path class="cls-9" d="M157.47,235.86v20.96c0,2.58.85,4.44,2.29,5.39-2.77-1.6-24.81-14.33-26.31-15.18-1.53-.91-2.48-2.81-2.48-5.52v-20.96c0-2.64.91-5.55,2.38-8.16,9.5,5.48,18.64,10.74,26.5,15.31-1.47,2.58-2.38,5.52-2.38,8.16Z"/>
            <path class="cls-12" d="M165.96,221.17l62.59-36.14c2.34-1.35,4.46-1.48,6-.59,1.53.89,2.48,2.79,2.48,5.49v20.97c0,5.41-3.8,11.98-8.48,14.69l-62.59,36.14c-2.34,1.35-4.46,1.48-6,.59s-2.48-2.79-2.48-5.49v-20.97c0-5.41,3.8-11.98,8.48-14.69Z"/>
            <path class="cls-20" d="M165.96,221.17l62.59-36.14c2.34-1.35,4.46-1.48,6-.59,1.53.89,2.48,2.79,2.48,5.49v20.97c0,5.41-3.8,11.98-8.48,14.69l-62.59,36.14c-2.34,1.35-4.46,1.48-6,.59s-2.48-2.79-2.48-5.49v-20.97c0-5.41,3.8-11.98,8.48-14.69Z"/>
          </g>
          <g>
            <polygon class="cls-18" points="149.06 241.95 149.06 239.2 130.96 228.75 130.96 231.5 149.06 241.95"/>
            <polygon class="cls-18" points="149.06 248.2 149.06 245.45 130.96 235 130.96 237.75 149.06 248.2"/>
            <polygon class="cls-18" points="149.06 232.95 130.96 222.5 130.96 225.25 149.06 235.7 149.06 232.95"/>
          </g>
        </g>
        <g>
          <g>
            <path class="cls-3" d="M237.03,48.57c0-2.7-.95-4.6-2.48-5.49-1.53-.89-24.99-14.44-26.54-15.32-1.53-.87-3.64-.74-5.97.61l-62.59,36.14c-4.68,2.7-8.48,9.28-8.48,14.69v118.21c0,2.7.95,4.6,2.49,5.49,1.53.89,24.98,14.42,26.52,15.31,1.53.89,3.65.76,6-.59l62.59-36.14c4.68-2.7,8.48-9.28,8.48-14.69V48.57Z"/>
            <path class="cls-9" d="M157.47,94.5v118.19c0,2.58.85,4.44,2.29,5.39-2.77-1.6-24.81-14.33-26.31-15.18-1.53-.91-2.48-2.81-2.48-5.52v-118.19c0-2.64.91-5.55,2.38-8.16,9.5,5.48,18.64,10.74,26.5,15.31-1.47,2.58-2.38,5.52-2.38,8.16Z"/>
            <path class="cls-12" d="M165.96,79.82l62.59-36.14c2.34-1.35,4.46-1.48,6-.59,1.53.89,2.48,2.79,2.48,5.49v118.21c0,5.41-3.8,11.98-8.48,14.69l-62.59,36.14c-2.34,1.35-4.46,1.48-6,.59-1.53-.89-2.48-2.79-2.48-5.49v-118.21c0-5.41,3.8-11.98,8.48-14.69Z"/>
            <path class="cls-20" d="M165.96,79.82l62.59-36.14c2.34-1.35,4.46-1.48,6-.59,1.53.89,2.48,2.79,2.48,5.49v118.21c0,5.41-3.8,11.98-8.48,14.69l-62.59,36.14c-2.34,1.35-4.46,1.48-6,.59-1.53-.89-2.48-2.79-2.48-5.49v-118.21c0-5.41,3.8-11.98,8.48-14.69Z"/>
          </g>
          <polygon class="cls-13" points="137.59 160.85 150.85 168.51 150.85 183.82 137.59 176.16 137.59 160.85"/>
          <polygon class="cls-13" points="137.59 179.73 150.85 187.38 150.85 190.74 137.59 183.09 137.59 179.73"/>
          <polygon class="cls-13" points="137.59 186.1 150.85 193.76 150.85 197.12 137.59 189.46 137.59 186.1"/>
          <g>
            <polygon class="cls-18" points="149.06 104.16 149.06 101.41 130.96 90.96 130.96 93.71 149.06 104.16"/>
            <polygon class="cls-18" points="149.06 110.41 149.06 107.66 130.96 97.21 130.96 99.96 149.06 110.41"/>
            <polygon class="cls-18" points="149.06 95.16 130.96 84.71 130.96 87.46 149.06 97.91 149.06 95.16"/>
          </g>
        </g>
        <g>
          <path class="cls-8" d="M137.92,119.09c-.94.54-1.53,1.71-1.53,3.37,0,3.32,2.33,7.37,5.21,9.03,1.44.83,2.74.91,3.69.37.57-.33,2.75-1.59,3.32-1.92.94-.54,1.53-1.71,1.53-3.37,0-3.32-2.33-7.37-5.21-9.03-1.44-.83-2.74-.91-3.69-.36-.57.33-2.75,1.59-3.32,1.92Z"/>
          <path class="cls-13" d="M141.6,131.49c1.44.83,2.74.91,3.69.36s1.53-1.71,1.53-3.37c0-3.32-2.33-7.37-5.21-9.03-1.44-.83-2.74-.91-3.69-.36s-1.53,1.71-1.53,3.37c0,3.32,2.33,7.37,5.21,9.03Z"/>
        </g>
        <g>
          <path class="cls-18" d="M137.92,140.53c-.94.54-1.53,1.71-1.53,3.37,0,3.32,2.33,7.37,5.21,9.03,1.44.83,2.74.91,3.69.37.57-.33,2.75-1.59,3.32-1.92.94-.54,1.53-1.71,1.53-3.37,0-3.32-2.33-7.37-5.21-9.03-1.44-.83-2.74-.91-3.69-.36-.57.33-2.75,1.59-3.32,1.92Z"/>
          <path class="cls-7" d="M137.92,140.53c-.94.54-1.53,1.71-1.53,3.37,0,3.32,2.33,7.37,5.21,9.03,1.44.83,2.74.91,3.69.37.57-.33,2.75-1.59,3.32-1.92.94-.54,1.53-1.71,1.53-3.37,0-3.32-2.33-7.37-5.21-9.03-1.44-.83-2.74-.91-3.69-.36-.57.33-2.75,1.59-3.32,1.92Z"/>
          <path class="cls-18" d="M141.6,152.93c1.44.83,2.74.91,3.69.36s1.53-1.71,1.53-3.37c0-3.32-2.33-7.37-5.21-9.03-1.44-.83-2.74-.91-3.69-.36s-1.53,1.71-1.53,3.37c0,3.32,2.33,7.37,5.21,9.03Z"/>
        </g>
      </g>
      <g id="Arm">
        <g id="Arm-2" data-name="Arm">
          <path class="cls-10" d="M270.36,242.53c-.31.79-.32,1.66-.29,2.51.1,3.22.66,6.44.4,9.65-.27,3.42-1.88,6.55-1.86,10.03.01,1.96,1.95,4.45,3.79,2.23.39-.47.63-1.03.87-1.59.51-1.19,1.02-2.38,1.54-3.57.09,3.28-1.68,6.4-.79,9.67.43,1.56,2.17,2.9,3.64,2.23.97-.44,1.44-1.52,1.82-2.51.46-1.18.92-2.35,1.38-3.53.64-1.64,1.28-3.29,1.73-5,1.6-6.12.5-12.9-2.97-18.2-.92-1.41-2.05-2.75-3.58-3.45-1.84-.84-4.77-.71-5.67,1.44-.01.02-.02.05-.03.07Z"/>
          <path class="cls-13" d="M285.36,232.92c-.48-3.29-1.28-11.51-2.05-19.32-6.09.03-12.27.34-18.34.08.4,1.2.15,2.8.24,4.07.13,1.92.24,3.84.28,5.77.06,3.73-.16,7.49-1.06,11.12-.56,2.27-1.37,4.47-1.95,6.73-1.14,4.44-1.35,9.07-2.32,13.55-.15.71-.33,1.43-.27,2.16.25,3.15,3.66,2.27,5.16.75,1.99-2.02,2.23-4.7,3.3-7.19.52-1.21,1.6-5.75,3.45-4.88,2.09.99,3.21,3.44,4.17,5.4,1.26,2.56,1.76,5.14,2.27,7.9.79,4.24-1.48,9.08-2.15,13.24-.35,2.18-.17,3.97,1.65,5.42.54.43,1.29.65,1.93.39.63-.26.99-.89,1.31-1.49,1.52-2.85,3.06-5.74,3.88-8.87,1.74-6.67,1.37-14.08,1.28-20.92-.06-4.64-.11-9.3-.77-13.9Z"/>
        </g>
        <path class="cls-21" d="M237.33,87.4c19.44-1.17,28.86,7.55,34.57,26.53,5.71,18.98,9.59,37.13,11.44,46.87,1.84,9.73,1.77,50.85,1.77,50.85l-26.26,3.42-6.86-50.74-10.62-34.77-4.03-42.15Z"/>
        <g>
          <path class="cls-9" d="M257,201.36s3.1,4.57,14.56,3.52,13.49-6.19,13.49-6.19l1.14,27.11s-.99,5.84-12.08,6.69c-11.09.85-13.65-4.7-13.65-4.7l-3.45-26.42Z"/>
          <g>
            <path class="cls-18" d="M285.99,221.26l-.08-1.89c-1.23.97-2.55,1.79-4.04,2.39-1.94.78-3.97,1.26-6.03,1.57-4.24.65-8.71.79-12.88-.35-1.11-.3-2.18-.72-3.2-1.25-.04-.02-.07-.04-.11-.06l.24,1.83c.66.31,1.34.59,2.04.81,2.24.72,4.6,1.03,6.95,1.08,4.49.1,9.33-.42,13.52-2.14,1.19-.49,2.48-1.15,3.6-1.99Z"/>
            <path class="cls-18" d="M258.16,210.26c.92.5,1.89.91,2.89,1.23,2.24.72,4.6,1.03,6.95,1.08,4.49.1,9.33-.42,13.52-2.14,1.32-.54,2.73-1.29,3.93-2.25l-.08-1.88c-1.33,1.08-2.74,1.99-4.38,2.64-1.94.78-3.97,1.26-6.03,1.57-4.24.65-8.71.79-12.88-.35-1.11-.3-2.18-.72-3.2-1.25-.33-.17-.65-.37-.96-.56l.25,1.91Z"/>
            <path class="cls-18" d="M268.43,218.97c4.49.1,9.33-.42,13.52-2.14,1.26-.52,2.6-1.22,3.77-2.12l-.08-1.89c-1.28,1.02-2.64,1.89-4.21,2.52-1.94.78-3.97,1.26-6.03,1.57-4.24.65-8.71.79-12.88-.35-1.11-.3-2.18-.72-3.2-1.25-.18-.1-.35-.21-.53-.31l.24,1.87c.8.4,1.62.75,2.46,1.02,2.24.72,4.6,1.03,6.95,1.08Z"/>
          </g>
        </g>
      </g>
      <g id="Bottom">
        <g>
          <path class="cls-9" d="M169.99,208.5c-4.66,2.59-4.69,20.72-5.07,33.68-.98,33.88-.29,50.71-.66,54.81-.37,4.1-2.32,17.05-3.1,34.9-.97,22.21-1.55,31.89-1.55,31.89,0,0,3.81,3.5,11.78,4.55,7.96,1.05,16.74.23,16.74.23,0,0,11.17-32.19,14.1-44.5,5.62-23.63,10.58-47.05,10.58-47.05l5.79,28.02s-2.63,14.08.22,29.86c3.19,17.7,4.84,29.66,4.84,29.66,0,0,10.59,3.84,17.92,3.68,9.45-.2,11.97-2.76,11.97-2.76,0,0,4.34-43.57,5.4-66.41,1-21.44,6.46-93.27.16-93.25l-89.11,2.69Z"/>
          <path class="cls-12" d="M220.2,242.63l-7.39,34.36,5.79,28.02-.7-26.27,6.95-30.48c12.79-3.97,20.82-11.2,22.87-17.83-13.66,12.31-27.51,12.19-27.51,12.19Z"/>
          <g>
            <path class="cls-3" d="M214.98,266.89l-.43,2.02c-.72.31-1.44.59-2.18.86-2.29.8-4.67,1.3-7.05,1.71-8.83,1.51-18.15,1.41-26.74-1.36-5.09-1.63-10-4.21-14.09-7.72,0-.76.02-1.54.03-2.33,1.76,1.62,3.66,3.08,5.73,4.33,6.91,4.2,14.96,6.12,23.02,6.24,4.34.06,8.7-.36,12.97-1.14,2.02-.37,4.02-.87,5.98-1.52.94-.31,1.87-.67,2.77-1.09Z"/>
            <path class="cls-3" d="M216.57,259.47l-.44,2.06c-1.05.53-2.15.96-3.26,1.35-2.29.8-4.67,1.3-7.05,1.72-8.83,1.51-18.15,1.4-26.74-1.36-5.25-1.69-10.31-4.39-14.48-8.07,0-.77.03-1.54.05-2.32,1.85,1.76,3.89,3.32,6.1,4.67,6.91,4.2,14.96,6.12,23.02,6.23,4.34.07,8.7-.35,12.97-1.13,2.02-.37,4.02-.88,5.98-1.52.96-.32,1.92-.7,2.84-1.12.34-.16.68-.32,1.01-.5Z"/>
            <path class="cls-3" d="M218.24,251.7l-.45,2.11c-.25.14-.52.28-.79.42-1.06.52-2.16.96-3.28,1.36-2.29.8-4.67,1.3-7.05,1.71-8.83,1.51-18.15,1.41-26.74-1.36-5.53-1.78-10.86-4.68-15.16-8.65.03-.78.05-1.58.07-2.38,2.03,2.02,4.29,3.81,6.75,5.31,6.92,4.2,14.97,6.12,23.03,6.24,4.34.06,8.7-.36,12.97-1.14,2.02-.37,4.02-.87,5.98-1.52.96-.32,1.92-.69,2.84-1.12.51-.24,1.01-.48,1.5-.76.1-.07.22-.13.33-.21Z"/>
          </g>
          <g>
            <path class="cls-3" d="M261.45,252.16c-.03.8-.07,1.61-.1,2.42-.52.41-1.05.81-1.58,1.21-7.19,5.36-15.55,9.49-24.44,10.93-6.61,1.06-13.65.69-19.96-1.66l.37-1.71c3.08,1.11,6.27,1.8,9.56,2.06,8.08.6,16.11-1.34,23.34-4.89,3.9-1.92,7.59-4.26,11.05-6.9.6-.46,1.19-.95,1.77-1.44Z"/>
            <path class="cls-3" d="M261.96,237.32c-.02.79-.04,1.59-.07,2.38-.7.58-1.41,1.12-2.12,1.66-7.19,5.36-15.55,9.49-24.44,10.93-5.61.9-11.52.77-17.05-.73h0s.37-1.74.37-1.74c2.16.6,4.39.98,6.65,1.15,8.08.6,16.11-1.34,23.34-4.89,3.9-1.92,7.59-4.26,11.05-6.89.77-.6,1.53-1.23,2.28-1.87Z"/>
            <path class="cls-3" d="M261.75,244.71c-.03.79-.06,1.6-.09,2.4-.62.5-1.26.99-1.89,1.46-7.19,5.36-15.55,9.49-24.44,10.93-6.11.98-12.58.74-18.51-1.16l.37-1.72c2.63.82,5.35,1.35,8.11,1.57,8.08.6,16.11-1.34,23.34-4.89,3.9-1.92,7.59-4.26,11.05-6.9.7-.54,1.39-1.1,2.06-1.68Z"/>
          </g>
          <g>
            <path class="cls-12" d="M171.86,294.4c-3.69,4.2-5.33,9.93-5.4,15.53-.06,4.48.95,9.21,3.98,12.52,2.21,2.42,5.84,3.72,8.96,4.58,3.47.95,7.2.96,10.66-.07,1.77-.52,3.49-1.32,4.84-2.58,1.28-1.2,2.17-2.75,2.93-4.33,2.22-4.63,3.46-9.82,2.94-14.93s-2.9-10.13-6.94-13.3c-6.72-5.27-16.45-3.68-21.96,2.59Z"/>
            <path class="cls-17" d="M196.85,299.9c.96.19,1.92.39,2.89.58-.23-.68-.49-1.35-.79-2-.24-.05-.48-.09-.72-.14-2.8-.56-5.61-1.12-8.41-1.68-5.58-1.12-11.15-2.28-16.74-3.32-.05,0-.1-.02-.16-.03-.37.35-.72.71-1.06,1.1-.1.12-.19.25-.29.37,2.81.6,5.62,1.17,8.43,1.74,5.62,1.13,11.23,2.26,16.85,3.38ZM186.54,318.55c-5.56-1.21-11.11-2.47-16.68-3.61-1.03-.21-2.06-.41-3.08-.62.1.59.22,1.18.37,1.76.33.08.66.16.99.23,2.86.67,5.73,1.3,8.6,1.93,5.6,1.23,11.19,2.45,16.79,3.68.96.21,1.92.42,2.88.63.36-.53.68-1.08.97-1.65-.82-.17-1.64-.34-2.46-.52-2.79-.61-5.59-1.22-8.38-1.83ZM187.27,314.12c-5.58-1.12-11.15-2.28-16.74-3.32-1.36-.25-2.72-.5-4.08-.75,0,.54,0,1.09.03,1.63.78.17,1.56.35,2.34.51,2.87.62,5.75,1.2,8.63,1.78,5.62,1.13,11.23,2.26,16.85,3.38,1.44.29,2.87.58,4.31.86.23-.57.45-1.15.66-1.73-1.2-.23-2.4-.45-3.59-.69-2.8-.56-5.61-1.12-8.41-1.68ZM179.53,300.86c5.62,1.13,11.23,2.26,16.85,3.38,1.46.29,2.92.59,4.38.88,0,0,0,0,0,0-.06-.64-.16-1.27-.28-1.9-.91-.17-1.82-.34-2.73-.53-2.8-.56-5.61-1.12-8.41-1.68-5.58-1.12-11.15-2.28-16.74-3.32-.91-.17-1.83-.33-2.74-.5-.29.49-.57.98-.82,1.49.62.13,1.24.27,1.85.41,2.87.62,5.75,1.2,8.63,1.78ZM188.08,309.67c-5.58-1.12-11.15-2.28-16.74-3.32-1.5-.28-2.99-.56-4.49-.82-.09.52-.15,1.04-.21,1.56,1,.22,1.99.44,2.99.66,2.87.62,5.75,1.2,8.63,1.78,5.62,1.13,11.23,2.26,16.85,3.38,1.61.32,3.23.65,4.84.97.03,0,.05.01.08.02.15-.59.28-1.19.39-1.79-1.31-.25-2.63-.49-3.93-.76-2.8-.56-5.61-1.12-8.41-1.68ZM197.07,307.02c-2.8-.56-5.61-1.12-8.41-1.68-5.58-1.12-11.15-2.28-16.74-3.32-1.33-.25-2.66-.49-3.99-.73-.18.5-.33,1.01-.47,1.53.92.2,1.84.41,2.76.61,2.87.62,5.75,1.2,8.63,1.78,5.62,1.13,11.23,2.26,16.85,3.38,1.61.32,3.23.65,4.84.97.07.01.15.03.22.05.05-.62.08-1.23.09-1.85-1.26-.24-2.52-.48-3.78-.73Z"/>
          </g>
          <g>
            <path class="cls-12" d="M239.04,296.88c-.12,1.59-.16,3.2-.15,4.79.02,4.24.44,8.83,3.26,12,1.15,1.29,2.66,2.27,4.31,2.78,4.07,1.27,8.82-1.02,11.11-4.55,3.05-4.69,2.89-11.5,2.8-16.85-.05-2.81-.17-5.66-1.08-8.32-1.34-3.9-4.98-7.53-9.42-6.6-3.82.8-7.08,4.46-8.68,7.86-1.31,2.78-1.9,5.82-2.14,8.9Z"/>
            <g>
              <path class="cls-17" d="M247.88,293.73c4.04-1.35,8.08-2.68,12.12-4.05-.09-.59-.21-1.17-.36-1.75-1.06.35-2.11.7-3.17,1.05-5.44,1.8-10.87,3.61-16.31,5.42-.29.1-.58.2-.88.29-.09.65-.16,1.31-.22,1.98.23-.08.45-.16.68-.23,2.71-.9,5.42-1.81,8.14-2.71Z"/>
              <path class="cls-17" d="M240.57,289.45c-.26.69-.48,1.39-.67,2.1,2.14-.67,4.27-1.34,6.41-2.01,4.17-1.31,8.34-2.61,12.5-3.94-.25-.54-.55-1.07-.89-1.58-.98.31-1.97.61-2.95.92-4.81,1.5-9.61,3.01-14.41,4.51Z"/>
              <path class="cls-17" d="M259.13,308.57c.23-.68.41-1.37.57-2.09-4.36,1.45-8.72,2.9-13.07,4.35-1.56.52-3.12,1.04-4.68,1.56-.2.07-.41.13-.61.2.25.37.52.73.82,1.07.14.16.3.29.45.44,1.2-.41,2.4-.83,3.6-1.23,2.71-.9,5.42-1.81,8.14-2.71,1.59-.53,3.19-1.06,4.79-1.59Z"/>
              <path class="cls-17" d="M249.39,298c3.65-1.22,7.31-2.43,10.96-3.66-.01-.62-.04-1.24-.07-1.85-.77.25-1.53.51-2.3.76-5.44,1.8-10.87,3.61-16.31,5.42-.92.31-1.83.61-2.75.92-.01.64-.02,1.28-.02,1.92.79-.27,1.57-.54,2.35-.8,2.71-.9,5.42-1.81,8.14-2.71Z"/>
              <path class="cls-17" d="M244.45,308.86c2.71-.9,5.42-1.81,8.14-2.71,2.52-.84,5.04-1.67,7.56-2.51.07-.65.12-1.3.16-1.95-5.15,1.71-10.29,3.42-15.44,5.13-1.56.52-3.12,1.04-4.68,1.56-.2.07-.39.13-.59.19.15.6.33,1.19.55,1.76,1.44-.49,2.87-.99,4.3-1.47Z"/>
              <path class="cls-17" d="M251.03,302.05c3.12-1.04,6.25-2.07,9.37-3.12,0-.64,0-1.27,0-1.89-.26.09-.52.17-.78.26-5.44,1.8-10.87,3.61-16.31,5.42-1.45.48-2.89.96-4.34,1.45.04.63.09,1.25.17,1.88,1.25-.43,2.5-.87,3.76-1.28,2.71-.9,5.42-1.81,8.14-2.71Z"/>
            </g>
          </g>
        </g>
        <g>
          <path class="cls-13" d="M222.34,394.65c.64.66,1.67,1.24,2.5.79.36-.2.6-.56.99-.72.65-.27,1.4.16,1.81.7.41.54.63,1.2,1.09,1.71.55.6,1.36.92,2.14,1.21.31.12.63.23.96.18.78-.13,1.15-1.14,1.94-1.21,1.17-.11,1.03,1,1.16,1.67.14.77.63,1.49,1.34,1.92.95.57,2.26.58,3.22.02.37-.21.7-.51,1.12-.61.68-.16,1.4.26,1.73.84.33.58.34,1.28.24,1.93-.03.2-.07.41.01.6.08.2.28.34.46.46.69.44,1.42.83,2.18,1.16.41.18.91.33,1.29.1.22-.13.35-.37.54-.55.44-.42,1.2-.44,1.74-.14.54.3.88.85,1.04,1.42.16.59.11,1.52.63,1.96.37.31,1.15.52,1.61.7.56.22,1.14.49,1.76.45.86-.05,1.22-.7,1.95-1.01.73-.3,1.69.1,1.94.81.18.51.05,1.12.4,1.54.19.23.48.35.76.45.56.21,1.14.4,1.72.55.91.24,2.03.35,2.68-.29.17-.16.29-.36.44-.53.42-.45,1.11-.66,1.73-.54s1.16.58,1.35,1.15c.33,1,.9,1.18,1.99,1.34,1,.15,2.02.07,3.04.08,1.25,0,1.06-1.01,1.85-1.65.67-.55,1.79-.63,2.49-.09.21.16.38.37.6.53.76.56,1.84.39,2.79.2.43-.09.89-.2,1.14-.53.16-.22.2-.5.28-.76.26-.85,1.05-1.53,1.97-1.69.29-.05.6-.05.87.05.23.09.42.26.64.38.59.34,1.34.35,2,.17.66-.18,1.26-.52,1.85-.86.41-.24.83-.48,1.09-.86.38-.53.39-1.22.38-1.86-.02-1.5-.07-3.16-1.11-4.39-1.07-1.26-2.75-2.09-4.26-2.8-10.13-4.76-21.42-6.78-32.26-9.89-7.94-2.27-15.94-5.18-24.22-4.76-2.62.13-6.43.32-7.29,3.02-.83,2.62-.32,5.57,1.67,7.62Z"/>
          <path class="cls-12" d="M217.61,324.25c-2.24.48-1.07,5.7.04,12.47,1.11,6.76,2.69,17.72,3.8,25.01,1.11,7.28.57,9.79-.36,15.92s-.74,9.43,0,10.73c.74,1.3,3.16,4.1,9.23,5.55,6.07,1.45,7.35,1.62,13.29,4.78,3.89,2.07,7.75,6.1,20.2,8.6,10.12,2.03,23.31-1.28,25.45-4.95.84-7.86-2.19-11.59-9-15.25-8.69-4.67-19.54-10.25-22.5-14.21-2.96-3.96-2.83-7.82-1.82-20.54,1.07-13.51,1.86-22.5,2.22-24.93.36-2.43-.93-3.08-.93-3.08l-.21,2.54s-6.99,3.09-18.98,3.27c-11.99.17-20.33-4.05-20.33-4.05l-.11-1.85Z"/>
          <path class="cls-6" d="M217.61,324.25c-2.24.48-1.07,5.7.04,12.47,1.11,6.76,2.69,17.72,3.8,25.01,1.11,7.28.57,9.79-.36,15.92s-.74,9.43,0,10.73c.74,1.3,3.16,4.1,9.23,5.55,6.07,1.45,7.35,1.62,13.29,4.78,3.89,2.07,7.75,6.1,20.2,8.6,10.12,2.03,23.31-1.28,25.45-4.95.84-7.86-2.19-11.59-9-15.25-8.69-4.67-19.54-10.25-22.5-14.21-2.96-3.96-2.83-7.82-1.82-20.54,1.07-13.51,1.86-22.5,2.22-24.93.36-2.43-.93-3.08-.93-3.08l-.21,2.54s-6.99,3.09-18.98,3.27c-11.99.17-20.33-4.05-20.33-4.05l-.11-1.85Z"/>
          <path class="cls-9" d="M273.37,384.85c.8-.07,1.63-.1,2.48-.11-.5-.27-1.01-.54-1.51-.82-13.4.71-20.27,9.94-22.39,19.63.27.13.55.25.83.38,1.36-6.4,4.86-12.62,11.03-16.18,7.98,3.17,11.58,12.07,11.72,19.86.3-.04.6-.07.9-.11-.16-7.85-3.77-16.76-11.67-20.26,2.07-1.06,4.42-1.82,7.08-2.21,8.79,4.34,13.7,8.83,14.32,19.76.31-.15.6-.31.87-.46-.71-10.56-5.38-15.22-13.65-19.48Z"/>
          <g>
            <path class="cls-18" d="M256.9,340.75c.05-.64.11-1.26.16-1.86-4.57,1.75-9.37,2.94-14.28,3.52-3.09.36-6.2.49-9.31.36-3.14-.13-6.33-.42-9.4-1.08-2.03-.44-4.05-1.08-5.95-1.95.07.47.15.95.23,1.44,1.37.68,2.83,1.21,4.35,1.63,3.23.9,6.6,1.41,9.96,1.59,6.26.34,12.57-.29,18.6-1.87,1.91-.5,3.79-1.1,5.63-1.77Z"/>
            <path class="cls-18" d="M216.66,330.64c.08.54.16,1.11.26,1.7.25.17.49.33.73.48,1.33.83,2.76,1.49,4.25,2.02,3.09,1.11,6.36,1.76,9.63,2.16,6.7.83,13.54.43,20.1-1.12,1.8-.43,3.58-.94,5.33-1.55.17-.06.34-.13.51-.19.06-.64.11-1.23.17-1.8-.2.08-.4.16-.6.23-1.52.55-3.07,1.03-4.63,1.44-3.13.82-6.33,1.36-9.56,1.63-6.38.53-12.99.02-19.13-1.75-1.57-.45-3.1-1.02-4.55-1.74-.84-.42-1.66-.91-2.42-1.45-.03-.02-.05-.04-.08-.06Z"/>
          </g>
          <path class="cls-18" d="M248.39,368.16c-3.89.77-7.67,2.6-10.52,5.19-.76.69-1.49,1.56-1.42,2.55.04.65.43,1.23.83,1.77,1.45,1.95,3.19,3.72,5.16,5.23.6.46,1.23.9,1.97,1.1,1.79.5,3.62-.5,5.18-1.45,2.4-1.46,4.85-2.94,7.57-3.77s5.81-.96,8.37.23c-2.38-1.11-4.67-4.27-6.2-6.24-1.12-1.45-2.06-3.84-3.9-4.65-1.71-.75-4.43-.4-6.22-.11-.28.04-.56.09-.83.15Z"/>
          <path class="cls-13" d="M259.34,372.77c-.61-.79-1.18-1.87-1.86-2.82-1.45-.55-3.09-.77-4.61-.7-4.79.23-9.59,1.63-13.12,4.68-.42.36-.84.8-.85,1.33-.02.45.25.85.52,1.22,1.36,1.86,2.96,3.57,4.76,5.07.94.78,1.66.78,2.81.33,1.08-.42,2.01-1.12,2.97-1.72,1.9-1.19,4.07-2.15,6.31-2.71,2.23-.57,4.31-.5,6.53-.52-1.33-1.35-2.54-2.98-3.46-4.17Z"/>
        </g>
        <g>
          <path class="cls-13" d="M148.67,412c-.2,2.31-.26,4.65.52,6.83.13.38.3.75.58,1.05.53.56,1.07.29,1.65.54.63.28.56.89.6,1.61.1,2.08,1.55,4.05,3.58,4.88.33.13.68.24,1.04.22.51-.03.99-.33,1.5-.3.71.04,1.2.71,1.4,1.35s.23,1.34.57,1.94c.62,1.08,2.04,1.48,3.33,1.66.46.06.95.11,1.37-.09.3-.14.52-.4.81-.56.78-.44,1.94.03,2.14.86.1.4,0,.85.21,1.21.3.54,1.05.63,1.7.66.81.04,1.61.08,2.42.12,1.33.07,2.93.01,3.64-1.05.34-.5.39-1.14.69-1.66s1.09-.91,1.56-.51c.23.2.29.51.5.73.58.61,1.63.05,2.25-.52.55-.51,1.1-1.03,1.51-1.64.78-1.15,1.01-2.54,1.23-3.89.76-4.66,1.52-9.34,1.7-14.07.09-2.37.04-4.75-.24-7.11-.17-1.41-.27-2.96-.96-4.25-.84-1.56-2.81-1.91-4.51-2.06-5.07-.46-10.25-.91-15.2.19-2.57.57-5.03,1.56-7.38,2.69-1.97.94-3.91,2.01-5.46,3.5-.68.66-1.29,1.4-1.7,2.23-.61,1.25-.76,2.65-.9,4.02-.05.47-.1.94-.14,1.42Z"/>
          <path class="cls-12" d="M161.07,333.72c-2.2-.03-1.96,1.81-2.08,9.03-.12,7.22-.63,25.81-.7,29.34-.07,3.53-1.35,10-1.45,12.14-.1,2.14-2.55,9.52-4.84,14.28-2.29,4.76-7.05,21.05,12.17,29.65,19.22,8.6,20.69-15.7,20.69-23.36s1.31-18.54,3.11-27.24,10.03-30.23,11.28-34.82c.85-3.13-1.24-3.61-1.24-3.61l-.56,1.77s-3.92,3.99-17,2.3c-13.08-1.69-19.45-7.68-19.45-7.68l.08-1.81Z"/>
          <path class="cls-6" d="M161.07,333.72c-2.2-.03-1.96,1.81-2.08,9.03-.12,7.22-.63,25.81-.7,29.34-.07,3.53-1.35,10-1.45,12.14-.1,2.14-2.55,9.52-4.84,14.28-2.29,4.76-7.05,21.05,12.17,29.65,19.22,8.6,20.69-15.7,20.69-23.36s1.31-18.54,3.11-27.24,10.03-30.23,11.28-34.82c.85-3.13-1.24-3.61-1.24-3.61l-.56,1.77s-3.92,3.99-17,2.3c-13.08-1.69-19.45-7.68-19.45-7.68l.08-1.81Z"/>
          <g>
            <path class="cls-18" d="M166.46,376.21c2.27-.14,4.44-.23,6.68.2,2.42.46,4.76,1.27,6.91,2.4.87.46,1.87.98,2.4,1.81.67,1.06.25,2.4.07,3.53-.45,2.75-.96,5.52-1.64,8.23-.18.7-.33.84-1.05.56-.65-.25-1.3-.5-1.96-.72-1.28-.43-2.59-.79-3.91-1.12-2.19-.55-4.43-.91-6.68-1.07-2.26-.16-4.54-.2-6.8,0-1.15.11-2.3.27-3.42.52-.55.12-2.48.99-2.18,0,.76-2.49,1.23-5.05,1.42-7.64.06-.83.09-1.68.37-2.47,1.14-3.3,6.67-4.05,9.79-4.24Z"/>
            <path class="cls-13" d="M181.15,382.83c.02-.57,0-1.19-.35-1.64-.25-.32-.63-.51-1.01-.69-3.89-1.85-8.23-2.95-12.58-2.8-3.82.13-7.64,1.26-10.7,3.39-.12.6-.15,1.22-.2,1.84-.16,2.17-.53,4.33-1.09,6.44.02,0,.04,0,.06,0,6.95-1.39,14.26-1.16,21.1.66.88.23,1.75.49,2.64.64.25.04.54.07.74-.07.19-.13.26-.36.32-.57.64-2.35,1-4.76,1.08-7.19Z"/>
          </g>
          <path class="cls-9" d="M172.49,399.67c-6.82-1.76-14.74-.96-21.7,2.1-.1.34-.2.69-.29,1.06,4.18-1.95,8.75-3.04,13.22-3.21-2.54,6.24-5.05,16.71-6.03,24.71.27.21.55.41.83.62.94-8.13,3.56-19.08,6.17-25.35,2.6-.02,5.15.27,7.56.89.22.06.43.14.66.2-.04,2.54-.34,19.12-2.08,29.27.31.02.61.02.91.02,1.68-9.93,2.02-25.75,2.07-29.02,4.46,1.45,8.18,4.03,10.95,7.54.03-.46.05-.91.06-1.33-3.14-3.64-7.34-6.21-12.33-7.5Z"/>
          <g>
            <path class="cls-18" d="M158.99,342.75c0,.54-.02,1.14-.03,1.79,1.33.93,2.81,1.68,4.3,2.32,2.91,1.25,6,2.21,9.09,2.98,6.4,1.59,13.11,2.16,19.65,1.07,1.67-.28,3.31-.67,4.92-1.18.23-.65.44-1.27.65-1.86-.19.07-.36.14-.55.21-1.38.46-2.79.82-4.22,1.11-2.94.59-5.95.8-8.96.72-6.28-.18-12.55-1.64-18.38-3.82-2.33-.87-4.51-1.96-6.47-3.37,0,.01,0,.03,0,.04Z"/>
            <path class="cls-18" d="M187,359.32c2.32-.24,4.67-.62,6.97-1.16.22-.64.44-1.27.66-1.89-2.2.55-4.41,1.02-6.68,1.32-2.9.38-5.84.52-8.77.38-5.42-.25-10.77-1.51-15.64-3.77-1.27-.59-2.51-1.25-3.7-1.98-.35-.21-.69-.44-1.02-.67-.01.54-.03,1.08-.04,1.63,1.02.68,2.08,1.31,3.17,1.88,2.38,1.25,4.92,2.22,7.54,2.95,5.66,1.58,11.68,1.92,17.53,1.3Z"/>
          </g>
        </g>
      </g>
      <g id="Top">
        <g id="Chest">
          <path class="cls-13" d="M169.99,202.77v5.72s10.02,11.55,43.07,12.51c34.62,1,46.04-15.2,46.04-15.2v-4.94l-89.11,1.91Z"/>
          <path id="Chest-2" data-name="Chest" class="cls-9" d="M214.8,92.63c-17.49,5-26.58,7.27-39.05,13.97-11.41,6.14-12.08,17.54-8.56,49.23.56,5.03.47,16.25-.73,27.12-1.01,9.19.57,16.98,3.52,19.82,4.32,3.53,21.03,14.91,53.72,11.69,25.68-2.53,35.2-13.6,35.2-13.6,4.67-4.65,4.23-20.61,4.04-43.16-.29-33.01,1.96-58.71-13.42-67.09-10.32-5.62-16.63-3.15-34.72,2.02Z"/>
          <path class="cls-12" d="M262.98,161.25c0-.15,0-.31,0-.46-26.16,18.71-71.85,14.71-95.46,1.23h0c0,.35,0,.71,0,1.07,0,.01,0,.03,0,.04,12.39,6.95,35.93,11.32,52.45,11.32.66,0,1.32-.02,1.97-.03.76,10.61.78,25,.23,40.12.31-.01.63-.02.95-.04.55-15.1.53-29.49-.23-40.1,11.88-.38,23.74-3.1,34.19-8.81.29,3.56,1.55,21.29-.48,37.58.42-.34.77-.65,1.07-.93,1.95-16.88.52-34.9.32-37.14,1.7-.97,3.37-2.01,4.99-3.14,0-.24,0-.47,0-.71Z"/>
        </g>
        <g id="Head">
          <g>
            <g>
              <path class="cls-8" d="M197.51,58.38s-3.78.62-5.86,5.65c-1.04,2.53-1.56,7.02,2.96,19.34,2.91,7.93,5.86,11.24,7.24,13.4,1.38,2.16,3.86,2.58,3.86,2.58l-1.09-9.68-.94-6.73s5-5.42,5.05-10.31c.06-6.3-2.67-9.63-2.67-9.63l-8.55-4.62Z"/>
              <path class="cls-8" d="M196.22,58.82c-3.03-9.16,16.85-20.69,27.06-13.69,3.85-4.73,12.35-2.11,12.91,3,3.16-1.31,7.46,3.46,5.85,7.16,2.37-.71,6.13,3.01,3.63,6.16-1.8,2.28-1.35,4.27,1.41,4.78-.39,3.28-6.27,3.44-7.22.95-.13,1.93-1.51,1-2.96-.26-10.05-.62-20.48.41-30.65.35,0,0-10.02-8.44-10.04-8.46Z"/>
              <path class="cls-2" d="M197.07,91.89c4.23,1.53,5.67-1.36,5.67-1.36l.47,18.63c8.71,15.58,31.57,12.89,21.96-.1l-.08-5.6s4.1-.04,6.76-.5c4.44-.77,8.05-3.95,9.31-8.81,1.86-7.18,1.61-18.67-1.25-30.81-.55-2.34-1.6-4.9-3.76-5.94-5.37-2.58-10.25,1.31-17.65,4.32-3.06,1.25-10.52,1.88-12.5.98,2.63,2.84,1.24,10.31.58,12.68-.95,3.41-1.75,4.78-2.45,4.95-2.04.48-2.75-2.2-4.54-3-1.81-.81-5.66-1.43-7.7,3.37-1.29,3.02.32,9.43,5.19,11.2Z"/>
              <path class="cls-11" d="M219.21,102.83c-11.88-2.19-14.65-8.15-14.65-8.15.85,6.48,10.95,11.95,20.56,11.49l-.04-2.72s-1.07.27-5.88-.62Z"/>
            </g>
            <g>
              <path class="cls-8" d="M219.84,68.44l-4.76,2.45c-.65-1.37-.11-3.03,1.21-3.71,1.32-.68,2.91-.12,3.56,1.26Z"/>
              <path class="cls-8" d="M237.31,69.47l-4.98-2.08c.53-1.41,2.07-2.09,3.44-1.52,1.37.58,2.06,2.19,1.54,3.6Z"/>
              <path class="cls-11" d="M220.83,88.13l7.57,1.2c-.25,2.13-2.15,3.59-4.25,3.26-2.09-.33-3.58-2.33-3.33-4.46Z"/>
              <path class="cls-1" d="M225.62,92.52c-.45-1.74-2.05-3.01-3.92-2.96-.26,0-.51.04-.75.1.41,1.48,1.64,2.68,3.21,2.93.5.08,1,.05,1.46-.06Z"/>
              <path class="cls-8" d="M217.33,74.67c.06,1.21,1.08,2.14,2.29,2.08,1.2-.06,2.13-1.09,2.07-2.3-.06-1.21-1.08-2.14-2.29-2.08-1.2.06-2.13,1.09-2.07,2.3Z"/>
              <path class="cls-8" d="M232.73,73.86c.06,1.21,1.08,2.14,2.29,2.08,1.2-.06,2.13-1.09,2.07-2.3-.06-1.21-1.08-2.14-2.29-2.08-1.38.07-2.14.91-2.07,2.29Z"/>
              <path class="cls-11" d="M226.33,70.27l.92,14.28,6.92-2.43c-1.85-5.61-4.88-9.16-7.83-11.85Z"/>
            </g>
          </g>
        </g>
        <g>
          <g>
            <path class="cls-18" d="M265.46,138.66c-.02-1.16-.39-1.94-.96-2.36l.02-.02-4.21-2.98s-.02.02-.02.02c-.72-.52-1.78-.45-3.01.31-7.86,4.88-17.33,7.79-29.05,9.63-2.58.41-4.6,2.78-4.51,5.39l.43,12.7c.05,1.44.74,2.67,1.78,3.42,0,0,0,0,0,0l4.25,3.01c.83.58,1.89.86,3.02.69,11.54-1.69,21.89-5.34,28.68-9.29,2.26-1.31,3.89-4.73,3.84-7.34l-.25-13.2Z"/>
            <path class="cls-16" d="M223.72,148.65l.43,12.7c.05,1.44.74,2.67,1.78,3.42,0,0,0,0,0,0l4.25,3.01c.11.08.24.14.36.21v-17.85l-5.98-4.43c-.56.87-.88,1.88-.85,2.94Z"/>
            <path class="cls-18" d="M261.48,136.61c-7.86,4.88-17.33,7.79-29.05,9.63-2.58.41-4.6,2.78-4.51,5.39l.43,12.7c.09,2.61,2.27,4.53,4.85,4.15,11.54-1.69,21.89-5.34,28.68-9.29,2.26-1.31,3.89-4.73,3.84-7.34l-.25-13.2c-.05-2.61-1.76-3.42-3.98-2.05Z"/>
            <path class="cls-7" d="M261.48,136.61c-7.86,4.88-17.33,7.79-29.05,9.63-2.58.41-4.6,2.78-4.51,5.39l.43,12.7c.09,2.61,2.27,4.53,4.85,4.15,11.54-1.69,21.89-5.34,28.68-9.29,2.26-1.31,3.89-4.73,3.84-7.34l-.25-13.2c-.05-2.61-1.76-3.42-3.98-2.05Z"/>
          </g>
          <g>
            <path class="cls-18" d="M233.92,165.6c0-.4,0-.8-.02-1.2-.02-.33-.05-.66-.05-.99-.04-1.51-.08-3.02-.15-4.53-.06-1.47-.13-2.94-.22-4.41-.05-.81-.11-1.62-.17-2.43-.07-.84-.09-1.76-.34-2.56-.13-.39-.97-.49-1.03,0-.18,1.46.07,3.05.15,4.51.08,1.43.16,2.86.23,4.29.06,1.39.11,2.78.15,4.18.02.7.04,1.39.05,2.09,0,.49-.15,1.31.25,1.68.26.24.61.3.92.1.19-.12.25-.25.25-.48,0-.03,0-.06,0-.08,0-.05,0-.1,0-.15ZM238.1,164.67c0-.4,0-.8-.02-1.2-.02-.33-.05-.66-.05-.99-.04-1.51-.08-3.02-.15-4.53-.06-1.47-.13-2.94-.22-4.41-.05-.81-.11-1.62-.17-2.43-.07-.84-.09-1.76-.34-2.56-.13-.39-.97-.49-1.03,0-.18,1.46.07,3.05.15,4.51.08,1.43.16,2.86.23,4.29.06,1.39.11,2.78.15,4.18.02.7.04,1.39.05,2.09,0,.49-.15,1.31.25,1.68.26.24.61.3.92.1.19-.12.25-.25.25-.48,0-.03,0-.06,0-.08,0-.05,0-.1,0-.15ZM242.48,163.8s0-.1,0-.15c0-.4,0-.8-.02-1.2-.02-.33-.05-.66-.05-.99-.04-1.51-.08-3.02-.15-4.53-.06-1.47-.13-2.94-.22-4.41-.05-.81-.11-1.62-.17-2.43-.07-.84-.09-1.76-.34-2.56-.13-.39-.97-.49-1.03,0-.18,1.46.07,3.05.15,4.51.08,1.43.16,2.86.23,4.29.06,1.39.11,2.78.15,4.18.02.7.04,1.39.05,2.09,0,.49-.15,1.31.25,1.68.26.24.61.3.92.1.19-.12.25-.25.25-.48,0-.03,0-.06,0-.08Z"/>
            <g class="cls-16">
              <path d="M241.71,163.05c0-.4,0-.8-.02-1.2-.02-.33-.05-.66-.05-.99-.04-1.51-.08-3.02-.15-4.53-.06-1.47-.13-2.94-.22-4.41-.05-.81-.11-1.62-.17-2.43-.06-.75-.09-1.55-.27-2.29-.17.03-.3.13-.32.32-.18,1.46.07,3.05.15,4.51.08,1.43.16,2.86.23,4.29.06,1.39.11,2.78.15,4.18.02.7.04,1.39.05,2.09,0,.36-.07.89.04,1.29.12,0,.24-.03.36-.11.19-.12.25-.25.25-.48,0-.03,0-.06,0-.08,0-.05,0-.1,0-.15Z"/>
              <path d="M233.15,165c0-.4,0-.8-.02-1.2-.02-.33-.05-.66-.05-.99-.04-1.51-.08-3.02-.15-4.53-.06-1.47-.13-2.94-.22-4.41-.05-.81-.11-1.62-.17-2.43-.06-.75-.09-1.55-.28-2.29-.17.03-.3.13-.32.32-.18,1.46.07,3.05.15,4.51.08,1.43.16,2.86.23,4.29.06,1.39.11,2.78.15,4.18.02.7.04,1.39.05,2.09,0,.36-.07.89.04,1.29.12,0,.24-.03.36-.11.19-.12.25-.25.25-.48,0-.03,0-.06,0-.08,0-.05,0-.1,0-.15Z"/>
              <path d="M237.33,164.07c0-.4,0-.8-.02-1.2-.02-.33-.05-.66-.05-.99-.04-1.51-.08-3.02-.15-4.53-.06-1.47-.13-2.94-.22-4.41-.05-.81-.11-1.62-.17-2.43-.06-.75-.09-1.55-.28-2.29-.17.03-.3.13-.32.32-.18,1.46.07,3.05.15,4.51.08,1.43.16,2.86.23,4.29.06,1.39.11,2.78.15,4.18.02.7.04,1.39.05,2.09,0,.36-.07.89.04,1.29.12,0,.24-.03.36-.11.19-.12.25-.25.25-.48,0-.03,0-.06,0-.08,0-.05,0-.1,0-.15Z"/>
            </g>
          </g>
          <g>
            <path class="cls-8" d="M252.17,145.86c.45.26.73.82.73,1.62,0,1.59-1.12,3.53-2.5,4.32-.69.4-1.31.44-1.76.17-.27-.16-1.32-.76-1.59-.92-.45-.26-.73-.82-.73-1.62,0-1.59,1.12-3.53,2.5-4.32.69-.4,1.31-.44,1.76-.17.27.16,1.32.76,1.59.92Z"/>
            <path class="cls-13" d="M250.4,151.8c-.69.4-1.31.44-1.76.17-.45-.26-.73-.82-.73-1.62,0-1.59,1.12-3.53,2.5-4.32.69-.4,1.31-.44,1.76-.17.45.26.73.82.73,1.62,0,1.59-1.12,3.53-2.5,4.32Z"/>
          </g>
          <g>
            <path class="cls-12" d="M262.32,142.08c.45.26.73.82.73,1.62,0,1.59-1.12,3.53-2.5,4.32-.69.4-1.31.44-1.76.17-.27-.16-1.32-.76-1.59-.92-.45-.26-.73-.82-.73-1.62,0-1.59,1.12-3.53,2.5-4.32.69-.4,1.31-.44,1.76-.17.27.16,1.32.76,1.59.92Z"/>
            <path class="cls-19" d="M260.56,148.02c-.69.4-1.31.44-1.76.17-.45-.26-.73-.82-.73-1.62,0-1.59,1.12-3.53,2.5-4.32.69-.4,1.31-.44,1.76-.17.45.26.73.82.73,1.62,0,1.59-1.12,3.53-2.5,4.32Z"/>
          </g>
          <g>
            <path class="cls-8" d="M252.17,155.85c.45.26.73.82.73,1.62,0,1.59-1.12,3.53-2.5,4.32-.69.4-1.31.44-1.76.17-.27-.16-1.32-.76-1.59-.92-.45-.26-.73-.82-.73-1.62,0-1.59,1.12-3.53,2.5-4.32.69-.4,1.31-.44,1.76-.17.27.16,1.32.76,1.59.92Z"/>
            <path class="cls-13" d="M250.4,161.79c-.69.4-1.31.44-1.76.17-.45-.26-.73-.82-.73-1.62,0-1.59,1.12-3.53,2.5-4.32.69-.4,1.31-.44,1.76-.17.45.26.73.82.73,1.62,0,1.59-1.12,3.53-2.5,4.32Z"/>
          </g>
          <g>
            <path class="cls-8" d="M262.32,152.07c.45.26.73.82.73,1.62,0,1.59-1.12,3.53-2.5,4.32-.69.4-1.31.44-1.76.17-.27-.16-1.32-.76-1.59-.92-.45-.26-.73-.82-.73-1.62,0-1.59,1.12-3.53,2.5-4.32.69-.4,1.31-.44,1.76-.17.27.16,1.32.76,1.59.92Z"/>
            <path class="cls-13" d="M260.56,158.01c-.69.4-1.31.44-1.76.17-.45-.26-.73-.82-.73-1.62,0-1.59,1.12-3.53,2.5-4.32.69-.4,1.31-.44,1.76-.17.45.26.73.82.73,1.62,0,1.59-1.12,3.53-2.5,4.32Z"/>
          </g>
          <path class="cls-13" d="M225.13,150.76c-4.39.16-9.46,1.02-9.46,11.37,0,11.74-15.56,14.83-29.63,11.24-14.08-3.59-18.51-9.47-18.51-9.47.02-2.16-.02-4.21-.16-6.09,0,0-3.39.66-3.81,7.11-.41,6.45,9.3,11.93,21.43,15.08,12.12,3.15,27.21.39,32.1-5.3,3.84-4.48,4.5-10.02,4.64-12.84.17-3.22.01-6.11,3.4-5.81,1.68-.53,1.72-4.65,0-5.28Z"/>
        </g>
        <g>
          <g>
            <path class="cls-18" d="M196.81,189.06c-.79.46-1.28,1.44-1.28,2.83,0,2.79,1.96,6.18,4.37,7.58,1.21.7,2.3.76,3.09.31.48-.28,1.03-.6,1.51-.88.79-.46,1.28-1.44,1.28-2.83,0-2.79-1.96-6.18-4.37-7.58-1.21-.7-2.3-.76-3.09-.31-.48.28-1.03.6-1.51.88Z"/>
            <path class="cls-7" d="M196.81,189.06c-.79.46-1.28,1.44-1.28,2.83,0,2.79,1.96,6.18,4.37,7.58,1.21.7,2.3.76,3.09.31.48-.28,1.03-.6,1.51-.88.79-.46,1.28-1.44,1.28-2.83,0-2.79-1.96-6.18-4.37-7.58-1.21-.7-2.3-.76-3.09-.31-.48.28-1.03.6-1.51.88Z"/>
            <path class="cls-18" d="M199.9,199.46c1.21.7,2.3.76,3.09.31.79-.46,1.28-1.44,1.28-2.83,0-2.79-1.96-6.18-4.37-7.58-1.21-.7-2.3-.76-3.09-.31s-1.28,1.44-1.28,2.83c0,2.79,1.96,6.18,4.37,7.58Z"/>
          </g>
          <path class="cls-13" d="M200.84,193.74c-.32-.65-1.15-1.9-2.13-2.13-2.23.36-7.98.7-16.24-1.23-11.55-2.7-15.77-9.63-15.77-9.63.19-2.06.35-3.8.46-5.77,0,0-3.39.66-3.81,7.11-.41,6.45,6.06,11.08,18.04,14.73,4.09,1.25,13.43,2.15,19.65,1.42.51-.66.56-1.22.56-1.9,0-.9-.36-1.8-.77-2.6Z"/>
        </g>
        <g>
          <g>
            <path class="cls-21" d="M175.06,106.99c-18.89,5.11-22.81,9.93-29.67,19.81-5.64,8.12-19.24,28.76-26.58,42.69-6.1,11.57-6.28,16.53-3.45,21.37,6.18,10.58,29.72,31.22,29.72,31.22,0,0,7.77.72,15.65-5.1,7.88-5.82,5.39-10.85,5.39-10.85l-15.39-21.44s18.86-24.63,22.98-29.64c4.12-5.01,13.77-30.84,1.35-48.06Z"/>
            <path class="cls-13" d="M165.43,205.92c2.66,2.42,4.1,2.9,4.1,2.9-.98.91-1.86,2.32-2.16,3.99,0,0,2.33,9.3,16.28,17.17,1.7.96,3.68,1.56,4.98,3.02.35.39.65.84.7,1.36.09.82-.47,1.58-1.14,2.05-.66.46-1.47.71-2.27.72-.79.01-1.8-.11-2.17.59-.12.22-.14.47-.2.71-.25,1-1.15,1.69-2.09,2.1-1.38.61-2.96.77-4.44.46-.35-.07-.71-.17-1.06-.09-.23.06-.44.2-.65.32-1.65.99-3.69,1.15-5.59.85-2.22-.36-4.54-1.23-6.58-2.13-1.28-.57-2.49-1.29-3.6-2.14-3.21-2.47-5.57-5.92-7.61-9.37-.32-.54-.63-1.5-1.08-1.91,0,0-11.58-10.44-11.58-10.44,0,0,.44-7.99,6.95-13.92,6.51-5.93,11.6-6.21,11.6-6.21,0,0,5.45,7.3,7.63,9.96Z"/>
            <path class="cls-16" d="M150.73,184.69c-5.59-7.46-14.14-9.99-22.88-9.34,7.7-3.48,18.49-1.89,25.36,6.1l-2.48,3.23Z"/>
            <path class="cls-9" d="M168.38,208.19l-14.06-18.9s-5.32-2.76-14.43,6.3c-9.14,9.1-6.5,17.14-6.5,17.14l17.84,14.8c1.22-11.64,6.22-18.3,17.14-19.35Z"/>
            <g>
              <path class="cls-18" d="M165.01,203.67l-1-1.35c-3.09.63-6.08,1.96-8.57,3.78-4.36,3.2-6.62,8.15-7.77,13.31-.34,1.52-.56,3.06-.67,4.62l1.52,1.26c0-.2,0-.4.01-.59.08-1.41.25-2.81.51-4.19.51-2.67,1.36-5.33,2.62-7.74,2.11-4.02,5.86-6.77,10.09-8.26,1.07-.37,2.16-.63,3.25-.84Z"/>
              <path class="cls-18" d="M143.91,215.57c.51-2.67,1.36-5.33,2.62-7.74,2.11-4.02,5.86-6.77,10.09-8.26,1.49-.52,3.02-.83,4.56-1.06l-1-1.35c-3.55.5-7.04,1.93-9.87,4.01-4.36,3.2-6.61,8.15-7.77,13.31-.36,1.63-.6,3.29-.7,4.95,0,.1-.01.19-.02.29l1.55,1.29c0-.42,0-.83.03-1.25.08-1.41.25-2.81.51-4.19Z"/>
              <path class="cls-18" d="M138.41,211.04c.51-2.67,1.36-5.33,2.62-7.74,2.11-4.02,5.86-6.77,10.09-8.26,2.11-.74,4.29-1.06,6.49-1.32l-.95-1.27c-4.22.16-8.5,1.72-11.86,4.19-4.36,3.2-6.62,8.15-7.77,13.31-.36,1.63-.6,3.29-.7,4.95,0,.08-.01.17-.02.26l1.55,1.29c0-.41,0-.81.03-1.22.08-1.41.25-2.81.51-4.19Z"/>
            </g>
          </g>
          <path class="cls-16" d="M146.12,125.75c7.12,6.53,16.07,10.71,16.07,10.71l-5.78,8.23s-9.37-3.53-15.88-10.72l5.58-8.23Z"/>
          <path class="cls-18" d="M134.78,140.79c-.05.05-.1.11-.14.16-1.63,1.87-2.79,4.2-3.02,6.68-.13,1.44.08,2.89,1.33,3.78,2.17,1.54,5.43.34,7.25-1.23,2.05-1.76,3.3-4.67,3.56-7.31.1-.99.06-2.01-.35-2.92-.77-1.69-2.83-2.18-4.52-1.81-1.62.35-3,1.42-4.11,2.65Z"/>
        </g>
        <g id="Helmet">
          <g>
            <g>
              <g>
                <path class="cls-13" d="M249.39,93.76c-11.02-22.45-64.13-22.06-73.68,1.18-.65,1.59-1.04,3.29-1.17,5-.11,1.51-.11,3.11-.02,4.55.12,1.83.49,3.64,1.19,5.33,9.73,23.6,64.46,23.61,74.2,0,.7-1.7,1.07-3.51,1.19-5.34.08-1.2.09-2.5.03-3.78-.12-2.41-.68-4.79-1.74-6.95Z"/>
                <path class="cls-13" d="M195.47,125.1c15.2,4.04,25.57,3.52,33.26,3.47,13.69-.09,16.24-1.07,18.65-5.98,2.65-5.4,2.86-11.23,3.61-16.85-4.86,10.2-25.31,25.68-55.52,19.37Z"/>
              </g>
              <g>
                <path class="cls-10" d="M193.59,118.97c.02,1.65-.28,2.54-.55,3.33-.2.61-.38,1.15-.34,1.88.15.06.3.11.46.16-.08-.74.09-1.24.31-1.9.26-.78.59-1.75.57-3.48-.02-1.88.37-3.42,2.37-4.82l-.25-.36c-2.16,1.51-2.58,3.17-2.56,5.19Z"/>
                <path class="cls-10" d="M212.82,120.67c-9.44,0-18.87-2.07-26.06-6.22h0c-7-4.04-10.86-9.43-10.86-15.17s3.86-11.13,10.86-15.17c14.37-8.29,37.74-8.29,52.11,0,7,4.04,10.86,9.43,10.86,15.17s-3.86,11.13-10.86,15.17c-7.18,4.15-16.62,6.22-26.05,6.22ZM212.82,78.32c-9.36,0-18.71,2.06-25.83,6.17-6.86,3.96-10.64,9.21-10.64,14.79s3.78,10.83,10.64,14.79c14.24,8.22,37.42,8.22,51.67,0,6.86-3.96,10.64-9.21,10.64-14.79s-3.78-10.83-10.64-14.79c-7.12-4.11-16.48-6.17-25.83-6.17Z"/>
              </g>
            </g>
            <g>
              <path class="cls-9" d="M248.15,92.39v4.94c0,5.22-3.45,10.44-10.35,14.42-13.8,7.97-36.17,7.97-49.97,0-6.9-3.98-10.35-9.2-10.35-14.42v-4.94c0,5.22,3.45,10.44,10.35,14.43,13.8,7.96,36.17,7.96,49.97,0,6.9-3.98,10.35-9.2,10.35-14.43Z"/>
              <path class="cls-3" d="M223.62,116.75c1.85-.34,3.66-.77,5.4-1.3v-4.94c-1.75.52-3.56.95-5.4,1.29v4.94Z"/>
              <path class="cls-12" d="M246.59,98.39c-1.64,3.08-4.56,5.99-8.79,8.43-.33.19-.67.37-1,.55v4.94c.34-.18.68-.37,1-.56,4.23-2.44,7.15-5.34,8.79-8.43v-4.93Z"/>
              <path class="cls-12" d="M213.45,112.78c-9.25.1-18.56-1.89-25.62-5.96-6.9-3.98-10.35-9.21-10.35-14.43v4.94c0,5.22,3.45,10.44,10.35,14.42,7.06,4.08,16.37,6.07,25.62,5.97v-4.94Z"/>
              <path class="cls-19" d="M188.47,112.11c4.46,2.45,9.75,4.1,15.34,4.95v-4.94c-5.59-.85-10.88-2.5-15.34-4.95v4.94Z"/>
            </g>
            <g>
              <path class="cls-10" d="M248.84,90.56c0-5.32-3.52-10.65-10.55-14.71-14.07-8.12-36.88-8.12-50.95,0-7.04,4.06-10.55,9.39-10.55,14.71v1.92c0,5.32,3.52,10.65,10.55,14.71,14.07,8.12,36.88,8.12,50.95,0,7.03-4.06,10.55-9.38,10.55-14.71v-1.92Z"/>
              <path class="cls-13" d="M187.34,105.27c14.07,8.12,36.88,8.12,50.95,0,7.03-4.06,10.55-9.39,10.55-14.71s-3.52-10.65-10.55-14.71c-14.07-8.12-36.88-8.12-50.95,0-7.03,4.06-10.55,9.39-10.55,14.71s3.52,10.65,10.55,14.71Z"/>
            </g>
            <g>
              <path class="cls-10" d="M200.34,112.72c-2.94-.53-5.74-1.41-8.2-2.62-.27-.13-.51-.14-.69-.04-.14.08-.66.38-.8.47-.18.1-.29.32-.29.63v.04c0,.61.43,1.35.98,1.62,2.47,1.21,5.26,2.09,8.2,2.62.24.04.45,0,.63-.1.14-.08.67-.39.81-.47.27-.16.45-.45.45-.82v-.04c0-.61-.49-1.18-1.09-1.29Z"/>
              <path class="cls-13" d="M191.33,112.81c2.47,1.21,5.26,2.09,8.2,2.62.6.11,1.09-.31,1.09-.93v-.04c0-.61-.49-1.18-1.09-1.29-2.94-.53-5.74-1.41-8.2-2.62-.55-.27-.98-.02-.98.6v.04c0,.61.43,1.35.98,1.62Z"/>
            </g>
          </g>
          <g>
            <g>
              <path class="cls-8" d="M245.98,85.09h0c0,4.91-3.24,9.81-9.71,13.54-12.95,7.48-33.96,7.48-46.91,0-6.47-3.74-9.72-8.64-9.72-13.54s3.24-9.8,9.72-13.54c12.95-7.48,33.96-7.48,46.91,0,6.47,3.74,9.71,8.64,9.71,13.54Z"/>
              <path class="cls-13" d="M245.98,85.09h0c0,4.91-3.24,9.81-9.71,13.54-12.95,7.48-33.96,7.48-46.91,0-6.47-3.74-9.72-8.64-9.72-13.54s3.24-9.8,9.72-13.54c12.95-7.48,33.96-7.48,46.91,0,6.47,3.74,9.71,8.64,9.71,13.54Z"/>
            </g>
            <path class="cls-13" d="M247.16,87.09s.05-.07.07-.1c-.31.55-.63,1.09-.97,1.64.32-.5.61-1.02.9-1.54Z"/>
            <path class="cls-13" d="M252.34,67.57c0,7.02-1.84,13.62-5.06,19.34-.04.07-.1.17-.13.23-.74,1.12-3.68,4.69-11.89,7.53-9.84,3.39-22.12,1.9-22.12,1.9l-5.96-9.25-14.54-6.07c.38-.99.59-2.2.59-3.59,0-3.06-1.02-6.38-2.61-9.17,1.97-3.39,4.94-14.83,26.3-25.17,10.32-5,23.6-2.5,27.1,0h0c5.21,6.69,8.31,15.11,8.31,24.25Z"/>
            <path class="cls-9" d="M243.93,43.19s.06.09.09.13h0s-.07-.09-.1-.13Z"/>
            <path class="cls-9" d="M247.28,86.91c-.52.84-3.3,4.74-12.02,7.75-9.84,3.39-22.12,1.9-22.12,1.9l-5.96-9.25-14.54-6.07c.38-.99.59-2.2.59-3.59,0-3.06-1.01-6.37-2.61-9.16,1.97-3.39,4.93-14.83,26.29-25.17,10.34-5,23.62-2.51,27.11,0-7.23-9.29-18.51-15.27-31.19-15.27-21.37-.01-39.05,17.24-39.53,38.6-.18,8.09,2.07,15.64,6.07,21.98.18.28.28.61.28.94h0c0,4.9,3.24,9.8,9.72,13.54,12.95,7.48,33.96,7.48,46.91,0,6.47-3.74,9.71-8.64,9.71-13.54h0c0-.33.1-.66.27-.94.36-.56.7-1.14,1.03-1.72Z"/>
            <path class="cls-12" d="M212.83,29.04c10.52,0,20.36,4.2,27.59,11.65-2.56-.74-5.93-1.27-9.77-1.27s-9.06.52-14.17,2.99c-18.92,9.16-23.64,19.15-25.91,23.95-.31.66-.58,1.22-.81,1.62l-.29.5.29.5c1.58,2.75,2.48,5.91,2.48,8.67,0,1.24-.18,2.33-.53,3.24l-.35.91.9.37,14.26,5.95,5.79,8.99.25.39.47.06c.11.01,2.79.33,6.67.33,4.23,0,10.42-.4,15.89-2.28,4.42-1.53,7.38-3.28,9.32-4.79-.52,4.28-3.72,8.3-9.14,11.43-6.12,3.53-14.27,5.47-22.96,5.47s-16.84-1.94-22.95-5.47c-5.94-3.44-9.22-7.94-9.22-12.68,0-.52-.15-1.03-.43-1.48-4.04-6.4-6.08-13.81-5.91-21.42.47-20.75,17.75-37.63,38.51-37.63h.02M212.81,28.04c-21.36,0-39.03,17.25-39.51,38.6-.18,8.09,2.07,15.64,6.07,21.98.18.28.28.61.28.94,0,4.9,3.24,9.8,9.72,13.54,6.48,3.74,14.97,5.61,23.46,5.61s16.98-1.87,23.46-5.61c6.47-3.74,9.71-8.64,9.71-13.54h0c0-.33.1-.66.27-.94.36-.56.7-1.14,1.03-1.72-.52.84-3.3,4.74-12.03,7.75-5.24,1.81-11.17,2.23-15.57,2.23-3.87,0-6.55-.33-6.55-.33l-5.96-9.25-14.54-6.07c.38-.99.59-2.2.59-3.59,0-3.06-1.01-6.37-2.61-9.16,1.97-3.39,4.93-14.83,26.29-25.17,4.37-2.12,9.27-2.89,13.74-2.89,6.09,0,11.36,1.44,13.38,2.89-7.23-9.29-18.51-15.27-31.19-15.27h-.02Z"/>
            <g>
              <g>
                <path class="cls-13" d="M178.25,87.32l-2.01-4.12s3.15,3.11,4.48,4.13c1.33,1.03,2.87,2.81,3.91,4.53,1.05,1.72,2.18,3.67,2.18,3.67,0,0-5.38-4.16-8.55-8.2Z"/>
                <path class="cls-10" d="M173.15,78.73c.5,2.19.5,2.46,2.39,4.33,1.35,1.33,2.26,2.08,4.67,4.25,1.38,1.24,2.51,2.35,3.55,3.89.69,1.03,2.09,2.89,2.35,3.33,0,0-3.38-2.22-7.86-7.22l-.39-.81c-.49.32-.37,1.18,1.51,2.89,0,0,1.06,1.63,4.43,4.53,2.72,2.34,4.33,3.69,4.91,3.12.58-.57,0-1.71-2.44-5.2-2.44-3.49-3.33-5-3.33-5l-9.78-8.12Z"/>
              </g>
              <path class="cls-9" d="M171.14,63.02c-.97,3.96.08,13.1.96,14.88,0,0,1.99,3.24,8.11,8.55,1.45,1.26,2.63,2.35,3.71,3.94.95,1.4,1.97,2.96,2.88,4.11,1.44,1.82.96,2.13-.55,1.08-2.92-2.03-5.72-4.79-6.88-6.17l.42,1.97s5.14,6.37,10.62,9.09,4.94-.81,2.59-3.83c-1.44-1.85-4.17-5.21-6.09-7.56-1.39-1.7-2.97-3.24-4.71-4.57l-.38-.29c-3.78-2.9-6.22-7.22-6.77-11.96l-.6-5.26-3.32-3.97Z"/>
              <path class="cls-12" d="M244.8,89.6c-1.47,3.1-4.31,6.03-8.53,8.47-11.3,6.52-28.74,7.36-41.6,2.49-1.88-.71-3.66-1.53-5.31-2.49-2.5-1.45-4.52-3.07-6.06-4.79-1.73-1.49-3.18-2.97-3.93-3.87l.07.32c.08.33.16.69.23,1.03l.11.54c.02.08.04.17.05.25.32,1.78,1.07,3.54,2.25,5.22,1.62,2.31,4.05,4.47,7.29,6.34,12.95,7.48,33.96,7.48,46.91,0,6.47-3.74,9.71-8.64,9.71-13.54,0-.33.09-.66.28-.94.34-.54.66-1.08.97-1.63-.28.44-1,1.41-2.43,2.61Z"/>
              <path class="cls-3" d="M176.67,70.38c-2.49-1.35-4.73-3.42-5.44-5.36-.67-1.83.33-3.96,2.67-4.41,0,0-.38,2.12-.48,3.68,0,0,2.21,2.58,4.23,3.92-.46.56-.77,1.3-.99,2.16Z"/>
            </g>
            <path class="cls-10" d="M244.02,43.32c3.91,5.97-2.64,16.1-9.1,19.7,3.11,1.76,4.68,7.41,3.11,10.93l5.02,2.98,4.24,9.98h0c3.22-5.72,5.05-12.31,5.05-19.34,0-9.14-3.1-17.55-8.31-24.25Z"/>
            <g>
              <path class="cls-12" d="M187.23,84.88c-.71,0-1.46-.22-2.24-.67-3.42-1.98-6.21-7.85-6.21-13.1,0-3.06.93-5.35,2.54-6.28,1.12-.65,2.45-.57,3.85.24,3.42,1.98,6.21,7.85,6.21,13.1,0,3.06-.93,5.35-2.54,6.28-.5.29-1.04.43-1.61.43ZM182.93,64.75c-.51,0-.99.13-1.43.38-1.48.85-2.36,3.09-2.36,5.97,0,5.14,2.7,10.88,6.03,12.8,1.28.74,2.48.82,3.49.24,1.48-.85,2.36-3.09,2.36-5.97,0-5.14-2.7-10.88-6.03-12.8-.72-.41-1.41-.62-2.06-.62Z"/>
              <path class="cls-12" d="M233.67,33.99c-7.3-1.81-20.55-2.08-35.79,11.69l-5.87.37s-8.22,9.57-9.81,18.61c2.09-.61,6.07,1.73,8.2,8.43,2.13,6.7-.63,10.28-.63,10.28l15.95,6.36,5.9,9.68s13.2,2.17,23.8-1.89c5.47-2.1,8.64-4.49,10.43-6.31.08-.55.13-1.1.13-1.65h0s0-.07,0-.11c-1.97,1.83-5.5,4.54-10.76,6.52-8.69,3.27-22.78,1.94-22.78,1.94l-5.9-9.77-15.04-5.9s1.07-3.21.5-7.06-2.85-7.21-2.85-7.21c0,0,4.71-15.92,25.83-25.42,12.53-5.64,21.7-3.91,27.54-1.02-2.56-2.92-5.55-5.46-8.87-7.53Z"/>
              <path class="cls-16" d="M188.2,67.27c4.79-10.68,12.93-18.97,25.24-24.94,10.3-4.99,19.47-5.48,27.85-2.15-1.93-2-4.06-3.8-6.37-5.36-.03,0-10.77-2.84-21.93,2-11.17,4.85-14.76,9.89-14.76,9.89l-6.22.28s-7.63,9.99-8.9,17.03c.66-.02,1.97.5,1.97.5l.3-.66c.62.24,1.16.59,1.65,1.02l-.38.82s.83.67,1.55,1.56Z"/>
            </g>
            <g>
              <g>
                <path class="cls-18" d="M179.04,67.18c-1.23.47-2.15,1.75-2.48,3.73-.64,3.97,1.36,9.25,4.48,11.79,1.56,1.27,3.1,1.62,4.33,1.15.75-.28,1.06-.4,1.81-.69,1.23-.47,2.15-1.75,2.48-3.73.64-3.97-1.36-9.25-4.48-11.79-1.56-1.27-3.1-1.62-4.33-1.15-.75.28-1.06.4-1.81.69Z"/>
                <path class="cls-16" d="M179.04,67.18c-1.23.47-2.15,1.75-2.48,3.73-.64,3.97,1.36,9.25,4.48,11.79,1.56,1.27,3.1,1.62,4.33,1.15.75-.28,1.06-.4,1.81-.69,1.23-.47,2.15-1.75,2.48-3.73.64-3.97-1.36-9.25-4.48-11.79-1.56-1.27-3.1-1.62-4.33-1.15-.75.28-1.06.4-1.81.69Z"/>
                <path class="cls-18" d="M181.04,82.7c1.56,1.27,3.1,1.62,4.33,1.15s2.15-1.75,2.48-3.73c.64-3.97-1.36-9.25-4.48-11.79-1.56-1.27-3.1-1.62-4.33-1.15s-2.15,1.75-2.48,3.73c-.64,3.97,1.36,9.25,4.48,11.79Z"/>
                <path class="cls-18" d="M181.04,82.7c1.56,1.27,3.1,1.62,4.33,1.15s2.15-1.75,2.48-3.73c.64-3.97-1.36-9.25-4.48-11.79-1.56-1.27-3.1-1.62-4.33-1.15s-2.15,1.75-2.48,3.73c-.64,3.97,1.36,9.25,4.48,11.79Z"/>
              </g>
              <path class="cls-7" d="M183.37,68.33c-.43-.35-.86-.63-1.29-.85-.08-.04-.17-.08-.25-.12-.08-.04-.17-.07-.25-.1-.53-.21-1.05-.3-1.53-.28h-.01l.47,2.48.19,1c-.13.02-.25.05-.37.09-.73.28-1.28,1.04-1.47,2.22-.38,2.36.81,5.49,2.66,7.01.93.75,1.84.96,2.57.68.27-.1.51-.27.72-.5h0s.64.71.64.71l1.57,1.75c.25-.39.46-.86.62-1.39.03-.09.05-.18.07-.27.03-.09.05-.19.07-.28.03-.12.05-.25.07-.38.64-3.97-1.36-9.25-4.47-11.79ZM185.59,78.02l-1.1-1.25c-.22-.26-.29.14-.32.35-.12.69-.43,1.13-.86,1.29-.43.16-.96.04-1.5-.4-1.08-.88-1.78-2.71-1.56-4.09.12-.69.43-1.13.86-1.29.18-.04.36-.06.54-.06.31.04.63.19.97.46.19.16.5.29.3-.78-.19-1.04-.39-2.19-.39-2.19.17.1.34.23.51.36,2.2,1.79,3.61,5.51,3.18,8.32l-.63-.71Z"/>
              <path class="cls-7" d="M181.23,69.01c.14.11.27.14.38.1.11-.04.19-.15.22-.32.06-.35-.12-.8-.39-1.03-.14-.11-.27-.14-.38-.1-.11.04-.19.15-.22.32-.06.35.12.8.39,1.03Z"/>
              <path class="cls-7" d="M184.71,71.66c.14.11.27.14.38.1.11-.04.19-.15.22-.32.06-.35-.12-.8-.39-1.03-.14-.11-.27-.14-.38-.1-.11.04-.19.15-.22.32-.06.35.12.8.39,1.03Z"/>
              <path class="cls-7" d="M186.85,76.65c.14.11.27.14.38.1.11-.04.19-.15.22-.32.06-.35-.12-.8-.39-1.03-.14-.11-.27-.14-.38-.1-.11.04-.19.15-.22.32-.06.35.12.8.39,1.03Z"/>
              <path class="cls-7" d="M186.7,81.02c.14.11.27.14.38.1.11-.04.19-.15.22-.32.06-.35-.12-.8-.39-1.03-.14-.11-.27-.14-.38-.1-.11.04-.19.15-.22.32-.06.35.12.8.39,1.03Z"/>
            </g>
            <g>
              <g>
                <path class="cls-12" d="M192.04,88.56c-1.67-.16-4.01,3.47-1.49,6.2l1.49-6.2Z"/>
                <path class="cls-12" d="M190.71,95.19l-.31-.22c-2.04-1.46-5.52-6.19-5.09-7.81.11-.41.33-.69.65-.84.92-.42,2.66.28,6.2,2.01l.19.09-1.63,6.77ZM186.57,86.72c-.16,0-.29.02-.4.07-.11.05-.27.16-.36.5-.31,1.16,2.42,5.28,4.58,7.02l1.35-5.61c-2.24-1.09-4.18-1.98-5.17-1.98Z"/>
                <path class="cls-12" d="M187.29,87.78c-.02.23-.23.4-.46.38s-.4-.23-.38-.46.23-.4.46-.38c.23.02.4.23.38.46Z"/>
              </g>
              <g>
                <path class="cls-10" d="M199.7,92.66c-2.35-.8-4.59-1.73-6.68-2.83-.43-.23-.83-.25-1.12-.09-.23.13-1.09.6-1.32.72-.3.16-.49.51-.5,1.01v.06c-.03,1,.65,2.22,1.53,2.68,2.5,1.32,5.23,2.41,8.09,3.29v-4.85Z"/>
                <path class="cls-13" d="M199.7,93.81c-2.83-.88-5.52-1.96-8-3.26-.88-.46-1.6-.07-1.63.93v.06c-.03,1,.65,2.22,1.53,2.68,2.5,1.32,5.23,2.41,8.09,3.29v-3.7Z"/>
                <path class="cls-10" d="M190.74,91.84c0,.62.38,1.34.84,1.61s.84-.02.84-.64-.38-1.34-.84-1.61-.84.02-.84.64Z"/>
              </g>
              <g>
                <g>
                  <polygon class="cls-9" points="199.24 93.05 198.78 98.08 203.27 97.35 203.72 92.44 199.24 93.05"/>
                  <path class="cls-12" d="M198.57,98.31l.5-5.43,4.86-.66-.48,5.3-4.88.79ZM199.41,93.21l-.43,4.64,4.11-.67.41-4.53-4.09.56Z"/>
                </g>
                <polygon class="cls-12" points="203.93 92.22 200.76 91.26 199.06 92.88 203.93 92.22"/>
              </g>
              <polygon class="cls-18" points="198.63 97.64 197.07 97.13 197.22 96.3 198.71 96.78 198.63 97.64"/>
              <polygon class="cls-18" points="198.94 94.25 197.38 93.73 197.53 92.9 199.02 93.38 198.94 94.25"/>
              <g>
                <path class="cls-18" d="M194.1,89.97h0c-.3-.11-1.68-.77-2.07-.96-.08-.04-.17-.05-.25-.02-.14.04-.34.15-.45.41-.1.25-.09.44-.06.56.02.1.09.17.17.22.25.14.96.51,2.17.98,0,0,.01,0,.02,0,.01,0,.02,0,.03.01h0c.06.02.13.03.2.03.36,0,.64-.29.64-.64,0-.27-.17-.5-.41-.6Z"/>
                <path class="cls-7" d="M194.1,89.97h0c-.3-.11-1.68-.77-2.07-.96-.08-.04-.17-.05-.25-.02-.14.04-.34.15-.45.41-.1.25-.09.44-.06.56.02.1.09.17.17.22.25.14.96.51,2.17.98,0,0,.01,0,.02,0,.01,0,.02,0,.03.01h0c.06.02.13.03.2.03.36,0,.64-.29.64-.64,0-.27-.17-.5-.41-.6Z"/>
                <path class="cls-18" d="M193.63,91.16s.02,0,.03.01h0c.06.02.13.03.2.03.31,0,.57-.22.63-.51-.12.27-.43.31-.84.18-.41-.14-1.28-.56-1.77-.84-.49-.28-.47-.68-.26-.98-.11.06-.22.17-.29.34-.1.25-.09.44-.06.56.02.1.09.17.17.22.25.14.96.51,2.17.98,0,0,.01,0,.02,0Z"/>
              </g>
            </g>
          </g>
          <path class="cls-8" d="M191.74,66.22c-.06.12-.11.24-.16.35-.37.78-.67,1.43-.95,1.92,1.6,2.79,2.61,6.11,2.61,9.16,0,1.4-.21,2.6-.59,3.6l1.73.72.34.14c.67-1.17,1.02-2.78,1.02-4.68,0-4.06-1.66-8.49-4-11.21Z"/>
          <path class="cls-4" d="M252.34,67.57c0,2.83-.3,5.6-.86,8.26-.57,2.67-1.4,5.23-2.48,7.67,8.44-22.56-4.96-39.05-4.96-39.05-6.61-4.04-20.89-3.24-29.41.03.74-.39,1.5-.77,2.29-1.15,10.34-5,23.62-2.51,27.11,0,5.21,6.69,8.31,15.11,8.31,24.25Z"/>
          <path class="cls-5" d="M247.11,56.86c-.73-3.35-1.99-7.28-4.63-9.59-2.84-2.49-7.88-4.61-11.65-3.26-.55.2-1.1.49-1.43.97-.52.75-.4,1.77-.14,2.65.2.69.47,1.35.78,1.99.95,1.95,2.32,3.7,3.61,5.46,4.45,6.08,8.2,12.94,9.08,20.42.24,2.02.26,4.08.68,6.08.11.55.28,1.13.73,1.46,1.62,1.23,2.97-2.36,3.22-3.34,2.15-8.62,1.37-15.29-.23-22.85ZM243.01,85.05c-.07.03-.15.07-.22.11-.36.23-.62.64-.66,1.07-.01.11-.01.23.02.33.03.11.1.2.17.29.21.25.49.43.8.52.72.2,1.42-.53,1.47-1.2.08-.96-.81-1.45-1.59-1.12Z"/>
          <path class="cls-5" d="M204.59,55.3c-2.4-.93-6.2,3.23-7.53,5.93-.99,2-1.27,4.45-1.16,6.61.04.75.21,1.63.54,2.43.59,1.43,2.05,2.77,3.69,1.91.73-.38,1.23-1.08,1.67-1.77,1.5-2.35,7.4-13.31,2.79-15.1ZM209.14,51.52c-1.27-.45-2.68.47-2.81,1.67-.07.66.41,1.35.87,1.54.72.31,1.79.1,2.3-.46.79-.86.93-2.3-.36-2.75Z"/>
        </g>
      </g>
    </g>
  </g>
</svg>