<?xml version="1.0" encoding="UTF-8"?>
<svg xmlns="http://www.w3.org/2000/svg" viewBox="0 0 437.33 386.18">
  <defs>
    <style>
      .cls-1 {
        opacity: .6;
      }

      .cls-2, .cls-3, .cls-4 {
        fill: #fafafa;
      }

      .cls-3, .cls-5, .cls-6 {
        opacity: .3;
      }

      .cls-7 {
        fill: #263238;
      }

      .cls-8 {
        fill: #f0f0f0;
      }

      .cls-9 {
        fill: #37474f;
      }

      .cls-10, .cls-5, .cls-11 {
        fill: #ba68c8;
      }

      .cls-10, .cls-12, .cls-4 {
        opacity: .2;
      }

      .cls-13, .cls-6, .cls-14, .cls-15, .cls-16, .cls-17 {
        fill: #fff;
      }

      .cls-13, .cls-18 {
        opacity: .5;
      }

      .cls-19, .cls-15 {
        opacity: .4;
      }

      .cls-20 {
        fill: #e0e0e0;
      }

      .cls-21 {
        fill: #455a64;
      }

      .cls-22, .cls-14 {
        opacity: .8;
      }

      .cls-16 {
        opacity: .75;
      }

      .cls-23 {
        fill: #f5f5f5;
      }

      .cls-24 {
        opacity: .1;
      }

      .cls-17, .cls-25 {
        opacity: .7;
      }
    </style>
  </defs>
  <g id="Background">
    <path id="Background-2" data-name="Background" class="cls-7" d="M303.93,99.81c-11.15-27.08-29.31-51.33-52.93-69.09-22.4-16.85-54.27-21.69-82.41-17.48-28.03,4.19-62.79,20.95-80.58,43.74-16.85,21.59-26.61,40.41-44.68,61.19-16.16,18.58-27.71,32.42-37.76,55.72-2.75,6.36-4.43,13.1-5.15,19.96-1.73,16.45,2.07,33.63,10.1,48.16,11.37,20.6,31.67,39.97,52.88,49.8,48.22,22.34,92.69,28.09,159.34,2.85,33.93-12.85,65.1-36.44,80.35-69.68,18.44-40.2,17.1-85.69.85-125.17ZM28.06,84.97c2.38,3.04,6.29,5.09,10.05,4.35,3.48-.69,6.12-3.5,8.46-6.2,8.65-9.98,16.77-20.42,24.32-31.28,6.57-9.46,15.84-20.14,7.22-31.14-13.37-17.06-36.27.91-45.22,13.95-7.82,11.39-11.08,25.9-8.88,39.59.61,3.83,1.69,7.7,4.07,10.74Z"/>
  </g>
  <g id="Stars">
    <g id="Stars-2" data-name="Stars">
      <g>
        <g class="cls-22">
          <path class="cls-11" d="M400.19,199.5c-6.18,0-11.2-5.08-11.2-11.33s5.02-11.33,11.2-11.33,11.2,5.08,11.2,11.33-5.03,11.33-11.2,11.33ZM400.19,177.53c-5.8,0-10.52,4.77-10.52,10.64s4.72,10.65,10.52,10.65,10.52-4.78,10.52-10.65-4.72-10.64-10.52-10.64Z"/>
        </g>
        <path class="cls-11" d="M403.37,188.17c0,1.78-1.43,3.22-3.19,3.22s-3.19-1.44-3.19-3.22,1.43-3.22,3.19-3.22,3.19,1.44,3.19,3.22Z"/>
        <path class="cls-17" d="M403.37,188.17c0,1.78-1.43,3.22-3.19,3.22s-3.19-1.44-3.19-3.22,1.43-3.22,3.19-3.22,3.19,1.44,3.19,3.22Z"/>
      </g>
      <g>
        <g class="cls-22">
          <path class="cls-11" d="M315.98,19.35c-4.35,0-7.89-3.58-7.89-7.98s3.54-7.98,7.89-7.98,7.89,3.58,7.89,7.98-3.54,7.98-7.89,7.98ZM315.98,4.07c-3.98,0-7.21,3.27-7.21,7.3s3.24,7.3,7.21,7.3,7.21-3.27,7.21-7.3-3.24-7.3-7.21-7.3Z"/>
        </g>
        <path class="cls-11" d="M318.19,11.37c0,1.24-.99,2.24-2.22,2.24s-2.22-1-2.22-2.24.99-2.24,2.22-2.24,2.22,1,2.22,2.24Z"/>
        <path class="cls-17" d="M318.19,11.37c0,1.24-.99,2.24-2.22,2.24s-2.22-1-2.22-2.24.99-2.24,2.22-2.24,2.22,1,2.22,2.24Z"/>
      </g>
      <g>
        <g class="cls-22">
          <path class="cls-11" d="M32.96,333.44c-4.61,0-8.36-3.79-8.36-8.46s3.75-8.46,8.36-8.46,8.36,3.8,8.36,8.46-3.75,8.46-8.36,8.46ZM32.96,317.2c-4.24,0-7.69,3.49-7.69,7.77s3.45,7.77,7.69,7.77,7.69-3.49,7.69-7.77-3.45-7.77-7.69-7.77Z"/>
        </g>
        <path class="cls-11" d="M35.31,324.98c0,1.31-1.05,2.38-2.35,2.38s-2.35-1.07-2.35-2.38,1.05-2.38,2.35-2.38,2.35,1.07,2.35,2.38Z"/>
        <path class="cls-17" d="M35.31,324.98c0,1.31-1.05,2.38-2.35,2.38s-2.35-1.07-2.35-2.38,1.05-2.38,2.35-2.38,2.35,1.07,2.35,2.38Z"/>
      </g>
      <g>
        <g>
          <g>
            <path class="cls-11" d="M405.97,41.1c0,1.29-1.04,2.34-2.32,2.34s-2.32-1.05-2.32-2.34,1.04-2.34,2.32-2.34,2.32,1.05,2.32,2.34Z"/>
            <path class="cls-17" d="M405.97,41.1c0,1.29-1.04,2.34-2.32,2.34s-2.32-1.05-2.32-2.34,1.04-2.34,2.32-2.34,2.32,1.05,2.32,2.34Z"/>
          </g>
          <g>
            <path class="cls-11" d="M399.05,47.5c0,.77-.62,1.4-1.38,1.4s-1.38-.63-1.38-1.4.62-1.4,1.38-1.4,1.38.63,1.38,1.4Z"/>
            <path class="cls-17" d="M399.05,47.5c0,.77-.62,1.4-1.38,1.4s-1.38-.63-1.38-1.4.62-1.4,1.38-1.4,1.38.63,1.38,1.4Z"/>
          </g>
          <g>
            <path class="cls-11" d="M395.13,38.75c0,.62-.5,1.13-1.11,1.13s-1.11-.5-1.11-1.13.5-1.13,1.11-1.13,1.11.5,1.11,1.13Z"/>
            <path class="cls-14" d="M395.13,38.75c0,.62-.5,1.13-1.11,1.13s-1.11-.5-1.11-1.13.5-1.13,1.11-1.13,1.11.5,1.11,1.13Z"/>
          </g>
        </g>
        <g>
          <g>
            <path class="cls-11" d="M13.07,113.63c0,1.29-1.04,2.34-2.32,2.34s-2.32-1.05-2.32-2.34,1.04-2.34,2.32-2.34,2.32,1.05,2.32,2.34Z"/>
            <path class="cls-17" d="M13.07,113.63c0,1.29-1.04,2.34-2.32,2.34s-2.32-1.05-2.32-2.34,1.04-2.34,2.32-2.34,2.32,1.05,2.32,2.34Z"/>
          </g>
          <g>
            <path class="cls-11" d="M6.15,120.03c0,.77-.62,1.4-1.38,1.4s-1.38-.63-1.38-1.4.62-1.4,1.38-1.4,1.38.63,1.38,1.4Z"/>
            <path class="cls-17" d="M6.15,120.03c0,.77-.62,1.4-1.38,1.4s-1.38-.63-1.38-1.4.62-1.4,1.38-1.4,1.38.63,1.38,1.4Z"/>
          </g>
          <g>
            <path class="cls-11" d="M2.23,111.28c0,.62-.5,1.13-1.11,1.13s-1.11-.5-1.11-1.13.5-1.13,1.11-1.13,1.11.5,1.11,1.13Z"/>
            <path class="cls-14" d="M2.23,111.28c0,.62-.5,1.13-1.11,1.13s-1.11-.5-1.11-1.13.5-1.13,1.11-1.13,1.11.5,1.11,1.13Z"/>
          </g>
        </g>
        <g>
          <g>
            <path class="cls-11" d="M219.17,351.65c0,1.29-1.04,2.34-2.32,2.34s-2.32-1.05-2.32-2.34,1.04-2.34,2.32-2.34,2.32,1.05,2.32,2.34Z"/>
            <path class="cls-17" d="M219.17,351.65c0,1.29-1.04,2.34-2.32,2.34s-2.32-1.05-2.32-2.34,1.04-2.34,2.32-2.34,2.32,1.05,2.32,2.34Z"/>
          </g>
          <g>
            <path class="cls-11" d="M212.25,358.05c0,.77-.62,1.4-1.38,1.4s-1.38-.63-1.38-1.4.62-1.4,1.38-1.4,1.38.63,1.38,1.4Z"/>
            <path class="cls-17" d="M212.25,358.05c0,.77-.62,1.4-1.38,1.4s-1.38-.63-1.38-1.4.62-1.4,1.38-1.4,1.38.63,1.38,1.4Z"/>
          </g>
          <g>
            <path class="cls-11" d="M208.33,349.31c0,.62-.5,1.13-1.11,1.13s-1.11-.5-1.11-1.13.5-1.13,1.11-1.13,1.11.5,1.11,1.13Z"/>
            <path class="cls-14" d="M208.33,349.31c0,.62-.5,1.13-1.11,1.13s-1.11-.5-1.11-1.13.5-1.13,1.11-1.13,1.11.5,1.11,1.13Z"/>
          </g>
        </g>
        <g>
          <g>
            <path class="cls-11" d="M355.73,174.57c.05.94.83,1.66,1.76,1.61.92-.05,1.64-.84,1.59-1.78-.05-.94-.83-1.66-1.76-1.61-.93.05-1.64.84-1.59,1.78Z"/>
            <path class="cls-17" d="M355.73,174.57c.05.94.83,1.66,1.76,1.61.92-.05,1.64-.84,1.59-1.78-.05-.94-.83-1.66-1.76-1.61-.93.05-1.64.84-1.59,1.78Z"/>
          </g>
          <g>
            <path class="cls-11" d="M352.27,181.78c.36-.35.94-.33,1.28.04.34.37.33.95-.04,1.29-.36.35-.94.33-1.28-.04-.34-.37-.33-.95.04-1.29Z"/>
            <path class="cls-14" d="M352.27,181.78c.36-.35.94-.33,1.28.04.34.37.33.95-.04,1.29-.36.35-.94.33-1.28-.04-.34-.37-.33-.95.04-1.29Z"/>
          </g>
        </g>
        <g>
          <g>
            <path class="cls-11" d="M122.73.9c-.44.83-.13,1.85.69,2.3.82.44,1.83.13,2.27-.7.44-.83.13-1.85-.69-2.29-.82-.44-1.83-.13-2.27.7Z"/>
            <path class="cls-17" d="M122.73.9c-.44.83-.13,1.85.69,2.3.82.44,1.83.13,2.27-.7.44-.83.13-1.85-.69-2.29-.82-.44-1.83-.13-2.27.7Z"/>
          </g>
          <g>
            <path class="cls-11" d="M116.11,5.29c.49-.11.97.2,1.08.7.11.49-.2.98-.69,1.09-.49.11-.97-.2-1.08-.7-.11-.49.2-.98.69-1.09Z"/>
            <path class="cls-14" d="M116.11,5.29c.49-.11.97.2,1.08.7.11.49-.2.98-.69,1.09-.49.11-.97-.2-1.08-.7-.11-.49.2-.98.69-1.09Z"/>
          </g>
        </g>
        <g>
          <g>
            <path class="cls-11" d="M428.77,223.14c.93,0,1.67-.77,1.66-1.71,0-.94-.76-1.69-1.69-1.68-.93,0-1.67.77-1.66,1.71,0,.94.76,1.69,1.69,1.68Z"/>
            <path class="cls-17" d="M428.77,223.14c.93,0,1.67-.77,1.66-1.71,0-.94-.76-1.69-1.69-1.68-.93,0-1.67.77-1.66,1.71,0,.94.76,1.69,1.69,1.68Z"/>
          </g>
          <g>
            <path class="cls-11" d="M435.75,226.92c-.33-.38-.29-.96.09-1.29.38-.33.95-.29,1.28.09.33.38.29.96-.09,1.29-.38.33-.95.29-1.28-.09Z"/>
            <path class="cls-14" d="M435.75,226.92c-.33-.38-.29-.96.09-1.29.38-.33.95-.29,1.28.09.33.38.29.96-.09,1.29-.38.33-.95.29-1.28-.09Z"/>
          </g>
          <g>
            <path class="cls-11" d="M435.18,218.45c-.33-.38-.29-.96.09-1.29.38-.33.95-.29,1.28.09.33.38.29.96-.09,1.29-.38.33-.95.29-1.28-.09Z"/>
            <path class="cls-14" d="M435.18,218.45c-.33-.38-.29-.96.09-1.29.38-.33.95-.29,1.28.09.33.38.29.96-.09,1.29-.38.33-.95.29-1.28-.09Z"/>
          </g>
        </g>
      </g>
    </g>
  </g>
  <g id="Planets">
    <g id="Saturn">
      <g id="Planet">
        <path class="cls-11" d="M334.89,257.71c26.62-6.08,53.07,10.82,59.08,37.75,6.01,26.93-10.7,53.69-37.32,59.76-26.62,6.08-53.07-10.82-59.08-37.75-6.01-26.93,10.7-53.69,37.32-59.76Z"/>
        <path class="cls-16" d="M334.89,257.71c26.62-6.08,53.07,10.82,59.08,37.75,6.01,26.93-10.7,53.69-37.32,59.76-26.62,6.08-53.07-10.82-59.08-37.75-6.01-26.93,10.7-53.69,37.32-59.76Z"/>
        <g class="cls-12">
          <path class="cls-11" d="M305.2,313.53c4.05-.69,8.07-1.58,12.05-2.6,3.97-1.02,7.91-2.18,11.8-3.48,3.98-1.33,8.05-3.36,12.31-3.39,3.71-.02,7.25.53,10.97-.03,3.65-.55,7.18-1.74,10.5-3.36,6.93-3.38,12.67-8.64,17.78-14.36,2.18-2.44,4.25-4.98,6.29-7.54-.76-1.15-1.55-2.28-2.4-3.35-2.09,2.62-4.2,5.24-6.4,7.77-4.63,5.31-9.82,10.29-16.04,13.63-3.19,1.72-6.61,3-10.19,3.59-3.78.62-7.44-.15-11.21-.02-3.88.14-7.45,1.7-11.06,3-3.62,1.3-7.28,2.47-10.98,3.51-4.28,1.21-8.61,2.2-12.96,3.11-2.7.56-5.41,1.02-8.12,1.48-.3.05-.6.1-.9.15.11,1.04.24,2.08.41,3.12,2.75-.23,5.51-.77,8.16-1.22Z"/>
          <path class="cls-11" d="M310.58,301.31c6.26-1.19,12.28-3.4,17.94-6.35,5.4-2.82,10.7-7.24,17.22-6.3,4.6.67,10.5.19,14.62-2.14,5.65-3.2,11.09-7.42,15.15-12.54,1.15-1.45,2.5-2.84,3.72-4.3-1-.93-2.03-1.82-3.09-2.66-.29.36-.57.71-.85,1.04-1.02,1.17-2.07,2.31-3.11,3.46-2.27,2.49-4.3,5.13-7.08,7.08-2.94,2.06-6.13,3.99-9.53,5.17-1.92.67-7.6,2.16-8.94-.32-.35-.66.21-1.42.73-1.95,4.4-4.47,9.09-8.69,12.67-13.86.9-1.29,1.81-2.62,2.28-4.12.32-1.02.42-2.09.47-3.16.01-.28,0-.56-.03-.83-.86-.32-1.74-.62-2.62-.89-.02.1-.05.2-.07.31-.67,3.58-3.81,7.5-5.97,10.34-3.02,3.99-6.83,7.29-10.62,10.51-9.05,7.67-19.11,13.97-30.65,17.01-5.28,1.39-10.49,1.71-15.81,1.64-.19,1.21-.35,2.43-.46,3.66,4.66.5,9.5.06,14.04-.8Z"/>
          <path class="cls-11" d="M325.61,284.51c8.89-3.83,17.85-9.13,24.53-16.31,1.67-1.8,3.16-3.78,4.31-5.97.69-1.31,1.47-2.99,1.72-4.63-.76-.17-1.53-.31-2.3-.44-.04.12-.06.24-.11.36-.33.98-.73,1.93-1.2,2.84-1.02,1.98-2.33,3.78-3.8,5.44-3.08,3.47-6.81,6.24-10.66,8.77-8.46,5.56-17.73,9.75-27.56,12.14-3.58.87-7.25,1.52-10.93,1.92-.33.88-.64,1.77-.92,2.67,9.26-.88,18.34-3.09,26.92-6.79Z"/>
          <path class="cls-11" d="M306.81,279.85c3.07-.04,6.12-.44,9.1-1.18,5.7-1.41,11.05-3.86,16.16-6.75,5.08-2.87,10.45-5.9,14.78-9.87,1.67-1.53,3.15-3.29,4.26-5.27-1.44-.16-2.88-.26-4.34-.29-1.24,1.67-2.77,3.15-4.38,4.43-4.2,3.35-8.99,6.17-13.69,8.73-4.67,2.54-9.59,4.74-14.79,5.88-2.5.55-5.07.89-7.63.91-.8,1.08-1.56,2.18-2.27,3.31.93.07,1.87.11,2.81.1Z"/>
          <path class="cls-11" d="M391.34,317.49c-3.36,5.48-7.5,10.45-12.32,14.67-4.72,4.13-10.72,8.55-17.26,8.41-3.34-.07-6.05-2.27-9.39-2.35-3.61-.08-7.03,1.68-10.34,2.91-4.21,1.57-8.47,2.93-12.82,4.04-3.92,1-7.96,1.71-12.01,2.05,1.33.95,2.7,1.84,4.12,2.66,4.08-.37,8.12-1.12,12.08-2.19,3.93-1.06,7.79-2.36,11.6-3.77,1.75-.65,3.49-1.39,5.31-1.82,1.31-.31,7.18.22,6.42,2.23-.46,1.2-2.95,1.94-3.98,2.48-1.53.81-3.05,1.65-4.58,2.49-3.41,1.88-6.84,3.76-10.39,5.36-.6.27-1.22.52-1.83.77,1.81.37,3.65.65,5.51.81,2.83-1.29,5.58-2.75,8.31-4.24,4.39-2.39,9.06-4.6,13.67-6.68,4.64-2.08,9.45-3.8,13.64-6.71,5.86-4.08,11-9.37,15.16-15.19t0,0c1.48-4.14,2.45-8.5,2.8-12.98-1.09,2.42-2.31,4.77-3.7,7.03Z"/>
          <path class="cls-11" d="M331.28,313.42c-3.74,2.28-7.8,4.15-11.91,5.63-3.92,1.42-7.97,2.51-12.03,3.46-2.34.54-4.7,1-7.06,1.45-.25.05-.49.1-.74.14.38,1.02.78,2.03,1.22,3.01,2.25-.26,4.48-.62,6.71-1.03,4.49-.84,8.89-1.99,13.19-3.53,4.25-1.53,8.32-3.4,12.17-5.79,3.65-2.26,6.95-5.22,11.13-6.47.46-.14.22-1.03-.18-1.1-4.67-.83-8.68,1.9-12.5,4.23Z"/>
          <path class="cls-11" d="M348.91,329.12c7.32-3.64,14.43-7.86,21.28-12.33,6.65-4.34,12.69-9.27,17.64-15.56,2.01-2.55,3.82-5.27,5.58-8.01-.44-1.62-.95-3.19-1.54-4.73-1.93,2.95-3.89,5.88-6.01,8.69-4.59,6.09-9.91,11.11-16.19,15.39-6.27,4.28-12.9,8.16-19.6,11.71-6.78,3.59-13.85,6.7-21.31,8.54-3.91.96-7.88,1.65-11.9,1.84-4.16.2-8.24-.12-12.33-.64.71,1.08,1.45,2.13,2.23,3.14,6.26,1.47,12.98,1.07,19.23-.02,7.99-1.4,15.66-4.42,22.92-8.02Z"/>
          <path class="cls-11" d="M358.95,310.92c-3.94,2.43-8.05,4.92-12.35,6.65-.14.06-.13.43.04.38,4.44-1.35,8.72-2.7,12.85-4.88,3.94-2.08,7.73-4.53,11.21-7.34,6.72-5.44,12.61-11.93,17.31-19.23.6-.94,1.18-1.89,1.74-2.85-.49-.97-1.02-1.9-1.56-2.83-6.93,12.39-17.17,22.67-29.23,30.11Z"/>
          <path class="cls-11" d="M392.47,302.58c-2.55,3.71-5.43,7.18-8.31,10.62-3.21,3.83-6.67,7.21-10.78,10.04-1.95,1.35-3.97,2.6-6,3.82-1.21.73-2.47,1.35-3.67,2.1-1.08.67-2.37,1.11-3.36,1.89-.36.29-.04,1.29.45,1.24,1.22-.13,2.29-.69,3.46-1,1.18-.32,2.31-.68,3.46-1.14,2.58-1.04,5.04-2.21,7.41-3.67,4.56-2.82,8.42-6.57,11.89-10.64,2.83-3.32,5.67-6.71,8.17-10.31-.04-2.13-.24-4.29-.56-6.45-.67,1.2-1.38,2.37-2.16,3.51Z"/>
        </g>
        <path class="cls-5" d="M342.25,256.6c18.61-.47,42.23,28.31,37.01,56.88-5.55,30.38-41.41,44.06-61.23,34.33h-.02c10.92,7.5,24.75,10.58,38.64,7.41,26.62-6.08,43.33-32.84,37.32-59.76-5.45-24.44-27.75-40.62-51.72-38.86Z"/>
        <path class="cls-10" d="M356.65,355.22c26.62-6.08,43.33-32.84,37.32-59.76-3.91-17.52-16.48-30.8-32.11-36.26,1.94.71,26.47,9.6,27.91,45.1,1.5,36.95-33.1,50.91-40.8,52.05,2.55-.17,5.12-.54,7.69-1.13Z"/>
        <path class="cls-15" d="M333.77,276.8c-.94-4.21-5.08-6.86-9.24-5.91-4.16.95-6.78,5.14-5.84,9.35.94,4.21,5.08,6.86,9.24,5.91,4.16-.95,6.78-5.14,5.84-9.35ZM313.05,288.77c-7.16,1.63-11.65,8.83-10.04,16.07,1.62,7.24,8.73,11.79,15.89,10.15,7.16-1.63,11.65-8.83,10.04-16.07-1.62-7.24-8.73-11.79-15.89-10.15ZM338.07,288.46c-3.28.75-5.34,4.04-4.6,7.36.74,3.32,4,5.4,7.28,4.65,3.28-.75,5.34-4.04,4.6-7.36-.74-3.32-4-5.4-7.28-4.65Z"/>
      </g>
      <g id="Rings">
        <g class="cls-1">
          <path class="cls-11" d="M319.02,349.98c.6-.16,1.2-.34,1.81-.53,26.24-7.76,58.2-31.76,73.14-54.92.36-.53.69-1.07,1.03-1.61,14.8-24.18,4.77-37.85-22.4-30.5-.7.19-1.41.4-2.12.62,2.21,1.27,4.32,2.72,6.32,4.33,9.16.24,13.49,5.37,11.86,13.85-.67,3.51-2.34,7.58-5.12,12.13-11.85,19.36-39.06,39.79-60.81,45.66-5.1,1.37-9.43,1.81-12.95,1.45-8.5-.87-12.12-6.56-9.69-15.5-.57-1.43-1.07-2.9-1.51-4.42-.29-.98-.54-1.97-.76-2.97-.41.63-.82,1.26-1.2,1.89-14.82,24.18-4.79,37.84,22.39,30.5Z"/>
        </g>
        <g class="cls-25">
          <path class="cls-11" d="M315.27,363.83c6.93-1.87,14.2-4.7,21.55-8.27,21-10.17,42.61-26.4,58.32-43.8,5.51-6.08,10.29-12.3,14.06-18.47,18.29-29.9,5.9-46.79-27.7-37.72-4.89,1.32-9.98,3.13-15.15,5.33,1,.45,1.99.95,2.94,1.48,1.63-.56,3.25-1.05,4.86-1.48,28.39-7.67,38.86,6.61,23.41,31.87-.92,1.51-1.92,3.02-2.99,4.53-15.65,22.36-45.61,44.85-71.28,53.53-1.72.58-3.45,1.11-5.13,1.56-28.4,7.67-38.87-6.6-23.4-31.88.86-1.42,1.8-2.84,2.79-4.26-.23-1.09-.41-2.17-.54-3.27-3.58,4.35-6.76,8.75-9.43,13.11-18.31,29.92-5.92,46.81,27.69,37.73Z"/>
        </g>
        <path class="cls-11" d="M377.54,259.14c4.79-1.21,9.72-2.02,14.65-1.84,2.46.11,4.91.47,7.24,1.23,2.31.77,4.53,1.93,6.27,3.65,1.75,1.7,3.02,3.85,3.7,6.2.66,2.36.79,4.85.56,7.3-.45,4.92-2.25,9.64-4.44,14.05-4.54,8.81-10.78,16.67-17.57,23.86-6.82,7.2-14.3,13.74-22.21,19.69-7.92,5.94-16.27,11.3-25.05,15.82-8.77,4.51-18.01,8.25-27.66,10.14-4.82.88-9.78,1.29-14.6.45-2.4-.42-4.75-1.16-6.86-2.36-2.12-1.18-3.91-2.93-5.14-5.04-1.26-2.09-1.89-4.54-2.01-7.01-.13-2.47.19-4.96.76-7.38,1.2-4.84,3.39-9.38,5.92-13.67-2.61,4.24-4.9,8.74-6.21,13.6-.63,2.43-1.01,4.94-.93,7.48.07,2.53.67,5.08,1.94,7.3,1.25,2.22,3.12,4.08,5.32,5.34,2.19,1.29,4.61,2.08,7.08,2.54,4.95.92,10.01.55,14.91-.28,4.91-.87,9.71-2.28,14.37-4.02,4.67-1.73,9.21-3.78,13.64-6.05,8.87-4.52,17.3-9.88,25.28-15.83,7.94-6.02,15.45-12.63,22.29-19.91,3.42-3.63,6.68-7.44,9.66-11.46,2.99-4.01,5.72-8.25,7.94-12.76,2.18-4.52,3.96-9.34,4.37-14.42.2-2.53.05-5.11-.67-7.57-.74-2.44-2.11-4.71-3.96-6.44-1.85-1.76-4.17-2.9-6.55-3.64-2.39-.73-4.89-1.04-7.37-1.1-4.98-.08-9.89.84-14.66,2.14Z"/>
        <path class="cls-11" d="M381.67,263.57c3.39.17,6.87.98,9.57,3.09l.99.8.83.96.42.48c.12.17.22.36.33.54l.65,1.09c.67,1.55,1.15,3.2,1.21,4.91.21,3.4-.59,6.8-1.78,9.99-1.16,3.22-2.89,6.2-4.67,9.11-3.72,5.75-8.16,11.01-12.97,15.87-4.8,4.88-10,9.35-15.45,13.47-5.44,4.13-11.16,7.9-17.12,11.21-5.98,3.28-12.19,6.15-18.69,8.18-3.25,1-6.57,1.77-9.93,2.15-3.36.38-6.8.38-10.07-.49-.8-.27-1.64-.42-2.39-.82l-1.15-.53c-.37-.21-.71-.46-1.06-.68-.75-.41-1.3-1.06-1.94-1.62-.3-.3-.52-.67-.79-1-.26-.34-.53-.67-.69-1.06-1.66-3-1.85-6.65-1.21-10.02-.72,3.35-.63,7.03,1,10.14.16.41.43.75.69,1.11.26.34.48.73.79,1.04.64.59,1.2,1.27,1.96,1.72.36.24.71.51,1.08.73l1.17.57c.76.43,1.62.61,2.43.91,3.34.95,6.85.98,10.26.65,3.42-.34,6.8-1.07,10.09-2.04,6.6-1.94,12.86-4.86,18.9-8.12,6.02-3.31,11.79-7.07,17.29-11.21,5.47-4.17,10.68-8.7,15.49-13.63,4.81-4.92,9.31-10.22,12.97-16.1,1.77-2.97,3.48-6.01,4.62-9.31,1.16-3.26,1.95-6.75,1.67-10.25-.1-1.75-.63-3.46-1.37-5.04l-.69-1.11c-.12-.18-.22-.38-.35-.55l-.44-.48-.88-.96-1.03-.79c-2.81-2.08-6.32-2.8-9.71-2.89Z"/>
        <g>
          <g class="cls-24">
            <path class="cls-11" d="M313.67,378.5c12.72-3.38,26.5-9.52,40.06-17.49,14.65-8.6,29.02-19.3,41.5-30.89,11.55-10.73,21.46-22.23,28.43-33.52,3.28-5.33,5.86-10.5,7.65-15.35,6.57-17.76,1.9-28.26-3.19-33.95-8.56-9.58-24.56-11.87-45.05-6.44-8.78,2.33-18.08,5.98-27.45,10.63.75.13,1.51.3,2.25.47,8.74-4.23,17.37-7.56,25.56-9.74,19.95-5.3,35.45-3.15,43.67,6.03,4.81,5.4,9.23,15.41,2.9,32.51-1.77,4.77-4.29,9.84-7.53,15.09-6.44,10.41-15.39,21.01-25.85,31.01-13.68,13.13-29.92,25.22-46.37,34.55-12.54,7.11-25.2,12.61-36.93,15.73-19.97,5.31-35.47,3.16-43.67-6.03-4.83-5.39-9.23-15.41-2.91-32.48,1.77-4.78,4.3-9.87,7.55-15.11,4.47-7.26,10.17-14.6,16.75-21.78.06-.76.13-1.53.22-2.29-7.17,7.65-13.35,15.53-18.15,23.32-3.3,5.33-5.87,10.49-7.68,15.37-6.56,17.74-1.89,28.24,3.18,33.92,8.56,9.6,24.57,11.89,45.05,6.44Z"/>
          </g>
          <g class="cls-12">
            <path class="cls-11" d="M315.16,371.7c10.2-2.71,21.13-7.35,32.04-13.33,16.9-9.28,33.69-21.8,47.48-35.37,8.88-8.75,16.52-17.94,22.11-26.99,2.98-4.85,5.32-9.53,6.95-13.92,5.7-15.42,1.8-24.35-2.47-29.15-7.36-8.24-21.45-10.11-39.67-5.26-7.17,1.9-14.69,4.76-22.31,8.36.63.15,1.27.34,1.89.55,7.09-3.27,14.07-5.87,20.75-7.64,17.73-4.71,31.36-2.98,38.37,4.88,4.03,4.51,7.69,13,2.22,27.8-1.59,4.3-3.9,8.91-6.83,13.68-5.17,8.38-12.13,16.88-20.21,25.04-14.56,14.72-32.81,28.31-51.03,38-10.1,5.37-20.17,9.55-29.62,12.06-17.73,4.71-31.36,2.98-38.36-4.88-4.05-4.51-7.69-12.99-2.23-27.77,1.6-4.33,3.9-8.93,6.85-13.7,3.64-5.91,8.16-11.88,13.34-17.75,0-.66,0-1.34.04-2-5.66,6.29-10.58,12.7-14.49,19.05-3,4.84-5.34,9.54-6.97,13.94-5.7,15.4-1.8,24.34,2.48,29.12,7.35,8.24,21.43,10.1,39.66,5.27Z"/>
          </g>
          <g class="cls-19">
            <path class="cls-11" d="M315.86,366.75c8.39-2.22,17.32-5.84,26.28-10.48,18.62-9.61,37.43-23.62,52.03-38.76,7.04-7.29,13.13-14.84,17.73-22.3,2.78-4.51,4.94-8.84,6.45-12.9,5.03-13.6,1.74-21.31-1.89-25.4-6.39-7.16-19.03-8.68-35.57-4.29-5.95,1.58-12.17,3.85-18.47,6.69.57.19,1.14.4,1.69.64,5.83-2.57,11.58-4.63,17.1-6.1,16.07-4.27,28.26-2.87,34.33,3.92,3.4,3.82,6.45,11.09,1.64,24.1-1.47,3.98-3.6,8.24-6.33,12.68-4.27,6.91-9.8,13.91-16.22,20.69-15.14,16.05-35.15,30.95-54.8,40.81-8.3,4.17-16.52,7.42-24.3,9.49-16.07,4.25-28.26,2.86-34.33-3.93-3.4-3.82-6.45-11.09-1.65-24.07,1.48-3.99,3.61-8.27,6.35-12.69,3.01-4.89,6.67-9.82,10.81-14.69-.05-.6-.08-1.21-.09-1.81-4.54,5.23-8.53,10.56-11.78,15.82-2.79,4.51-4.96,8.85-6.47,12.92-5.03,13.59-1.75,21.29,1.89,25.37,6.39,7.16,19.03,8.69,35.58,4.3Z"/>
          </g>
          <g class="cls-18">
            <path class="cls-11" d="M315.22,364.3c7.19-1.91,14.78-4.85,22.45-8.59,20.57-10.03,41.72-25.77,57.29-42.68,5.82-6.31,10.88-12.77,14.82-19.16,2.72-4.41,4.8-8.59,6.24-12.48,3.35-9.06,3.21-16.54-.54-21.69-5.37-7.36-17.43-9.01-33.97-4.62-5.1,1.36-10.4,3.22-15.79,5.54.51.24,1.03.47,1.54.71,4.97-2.07,9.85-3.78,14.57-5.03,16-4.24,27.59-2.78,32.63,4.15,5.05,6.93,3,18.56-5.75,32.75-3.64,5.9-8.23,11.88-13.51,17.72-15.96,17.68-38.18,34.23-59.61,44.38-7.07,3.36-14.05,6.01-20.69,7.77-16.01,4.25-27.6,2.77-32.64-4.16-3.48-4.8-3.58-11.84-.4-20.43,1.41-3.82,3.47-7.94,6.17-12.32,2.58-4.18,5.62-8.39,9.05-12.56-.07-.57-.14-1.14-.21-1.72-3.77,4.51-7.12,9.08-9.9,13.6-2.73,4.42-4.83,8.62-6.28,12.52-3.34,9.03-3.19,16.5.55,21.65,5.38,7.37,17.44,9.02,33.96,4.63Z"/>
          </g>
        </g>
      </g>
    </g>
    <g id="Mercury">
      <g id="Rings-2" data-name="Rings">
        <g class="cls-18">
          <path class="cls-20" d="M380.24,139.14c-4.85,0-9.66-1.17-14.09-3.49-7.33-3.84-12.73-10.35-15.19-18.32-5.05-16.35,3.99-33.8,20.15-38.91,7.78-2.46,16.05-1.73,23.28,2.06,7.33,3.84,12.73,10.35,15.19,18.32,5.05,16.35-3.99,33.8-20.15,38.91-3.02.96-6.12,1.43-9.2,1.43ZM371.21,78.76l.11.34c-15.79,4.99-24.61,22.05-19.68,38.02,2.41,7.79,7.68,14.14,14.84,17.89,7.06,3.7,15.14,4.41,22.73,2.01,15.79-4.99,24.61-22.05,19.68-38.02-2.41-7.79-7.68-14.14-14.84-17.89-7.07-3.7-15.14-4.41-22.73-2.01l-.11-.34Z"/>
        </g>
        <g class="cls-19">
          <path class="cls-20" d="M380.23,141.39c-5.2,0-10.36-1.26-15.11-3.74-7.87-4.12-13.65-11.09-16.29-19.64-5.42-17.53,4.28-36.25,21.61-41.73h0c8.34-2.64,17.21-1.85,24.97,2.21,7.86,4.12,13.65,11.09,16.29,19.64,5.42,17.53-4.27,36.25-21.61,41.73-3.24,1.02-6.56,1.53-9.86,1.53ZM370.66,76.96c-16.96,5.36-26.44,23.68-21.14,40.83,2.58,8.37,8.25,15.19,15.94,19.22,7.59,3.97,16.26,4.74,24.42,2.16,16.96-5.36,26.44-23.68,21.14-40.84-2.58-8.36-8.25-15.19-15.94-19.22-7.59-3.98-16.26-4.74-24.42-2.16h0Z"/>
        </g>
        <g class="cls-12">
          <path class="cls-20" d="M380.23,144.17c-5.63,0-11.22-1.36-16.37-4.06-8.52-4.46-14.79-12.02-17.65-21.28-5.87-18.99,4.63-39.27,23.41-45.21l.11.34-.11-.34c9.03-2.86,18.64-2.01,27.05,2.4,8.52,4.46,14.79,12.02,17.65,21.28,5.87,18.99-4.63,39.27-23.41,45.21-3.51,1.11-7.11,1.66-10.69,1.66ZM380.31,72.68c-3.51,0-7.03.54-10.47,1.63h0c-18.4,5.82-28.69,25.7-22.94,44.31,2.8,9.08,8.95,16.48,17.3,20.86,8.24,4.31,17.65,5.15,26.5,2.35,18.4-5.82,28.69-25.7,22.94-44.31-2.8-9.08-8.95-16.48-17.3-20.86-5.04-2.64-10.51-3.97-16.03-3.97Z"/>
        </g>
        <g class="cls-24">
          <path class="cls-20" d="M380.23,147.62c-6.17,0-12.3-1.49-17.93-4.44-9.34-4.89-16.21-13.17-19.34-23.32-6.43-20.81,5.07-43.03,25.65-49.54,9.9-3.13,20.43-2.2,29.64,2.62,9.34,4.89,16.21,13.17,19.34,23.32,6.43,20.81-5.08,43.03-25.65,49.54-3.85,1.22-7.79,1.82-11.71,1.82ZM368.71,70.67l.11.34c-20.2,6.39-31.49,28.21-25.18,48.64,3.08,9.96,9.82,18.1,18.99,22.89,9.04,4.73,19.37,5.65,29.09,2.58,20.2-6.39,31.49-28.21,25.18-48.64-3.08-9.96-9.82-18.09-18.99-22.89-9.04-4.74-19.37-5.65-29.09-2.58l-.11-.34Z"/>
        </g>
      </g>
      <g id="Planet-2" data-name="Planet">
        <path class="cls-20" d="M371.86,80.84c14.86-4.7,30.68,3.68,35.32,18.71,4.65,15.03-3.64,31.03-18.5,35.73-14.86,4.7-30.68-3.68-35.32-18.71-4.65-15.03,3.64-31.03,18.5-35.73Z"/>
        <path class="cls-24" d="M396.43,109.01c-2.58-.89-5.76-.26-7.45,1.91-.76.98-1.22,2.24-2.23,2.96-1.54,1.1-3.71.51-5.29-.53s-2.92-2.48-4.67-3.18c-1.56-.62-3.37-.57-4.9.14-.53.25-1.04.58-1.38,1.07-.87,1.24-.34,2.95.21,4.36.77,1.97,1.54,3.94,2.31,5.91.61,1.57,1.19,3.46.23,4.83-.54.77-1.45,1.18-2.12,1.83-1.56,1.52-1.54,4.2-.41,6.08.14.23.29.46.46.67,5.47,1.89,11.56,2.11,17.5.23,6.87-2.17,12.33-6.77,15.77-12.56-.01-.07-.02-.15-.03-.23-.41-2.73-.95-5.49-2.18-7.95-1.23-2.47-3.23-4.65-5.82-5.54Z"/>
        <path class="cls-24" d="M401.46,102.52c.26-1.2.06-2.46-.23-3.65-.85-3.57-2.84-7.24-6.28-8.41-1.44-.49-3.09-.53-4.25-1.52-1.14-.97-1.47-2.61-1.47-4.12,0-1.25.19-2.5.13-3.73-5.47-1.89-11.57-2.11-17.52-.23-6.33,2-11.46,6.06-14.92,11.21,1.07.91,2.38,1.53,3.77,1.69,2.77.33,5.76-.86,8.27.37,3.77,1.85,3.77,7.75,7.26,10.09,2.43,1.63,5.68.96,8.46.06,2.78-.9,5.79-1.97,8.54-.96,2.03.75,3.96,2.62,6.02,1.94,1.16-.38,1.95-1.53,2.2-2.73Z"/>
        <path class="cls-24" d="M361.44,109.57c-.79-2.46.07-5.27-.85-7.69-.99-2.6-3.63-3.93-6.37-4.74-2.45,5.96-2.92,12.79-.87,19.43,1.24,4.02,3.29,7.56,5.9,10.5,1.47-.03,2.92-.27,4.32-.78,2.54-.93,5-3.03,5.07-5.76.05-2.25-1.5-4.18-3.1-5.74-1.6-1.56-3.4-3.09-4.09-5.23Z"/>
        <path class="cls-24" d="M375.99,79.87c10.56-1.13,25.31,14.13,23.64,30.62-1.77,17.54-21.54,26.99-33.26,22.38h0c6.55,3.76,14.56,4.86,22.31,2.41,14.86-4.7,23.14-20.7,18.5-35.73-4.22-13.64-17.63-21.81-31.19-19.68Z"/>
        <path class="cls-24" d="M388.68,135.29c14.86-4.7,23.14-20.7,18.5-35.73-3.02-9.78-10.78-16.75-19.92-19.12,1.14.31,15.49,4.23,17.93,24.35,2.54,20.95-16.5,30.5-20.83,31.51,1.44-.22,2.89-.55,4.32-1Z"/>
        <path class="cls-15" d="M372.09,91.75c-.73-2.35-3.2-3.66-5.53-2.93-2.32.74-3.62,3.24-2.89,5.59.73,2.35,3.2,3.66,5.53,2.93,2.32-.74,3.62-3.24,2.89-5.59ZM360.86,99.53c-4,1.26-6.22,5.57-4.97,9.61,1.25,4.04,5.5,6.3,9.5,5.03,4-1.26,6.22-5.57,4.97-9.61-1.25-4.04-5.5-6.3-9.5-5.03ZM375.07,98.18c-1.83.58-2.85,2.55-2.28,4.4s2.52,2.88,4.35,2.3c1.83-.58,2.85-2.55,2.28-4.4s-2.52-2.88-4.35-2.3Z"/>
        <g class="cls-12">
          <path d="M389.12,92.22c-2.02.64-6.47.46-7.64-1.25-.41-.6-.59-1.63.89-3.08,1.71-1.68,6.18-1.05,7.93.64.92.89.97,1.95.12,2.92-.25.28-.57.46-.88.61h0c-.12.06-.27.11-.42.16ZM383.92,87.82c-.42.13-.78.33-1.05.59-.9.88-1.17,1.6-.8,2.15.98,1.44,5.51,1.61,7.17.84.24-.11.49-.24.65-.43.59-.67.56-1.29-.08-1.91-1.23-1.19-4.08-1.8-5.89-1.23Z"/>
        </g>
        <g class="cls-12">
          <path d="M386.96,131.69c-1.11.35-2.14.46-3.09.32-1.33-.19-2.46-.87-3.11-1.87-.87-1.33-.76-2.77.28-3.87h0c.65-.68,1.61-1.17,2.65-1.34,1.36-.22,3.67.69,4.95,1.95.78.77,1.14,1.6,1.03,2.41-.12.95-.93,1.74-2.27,2.24-.15.06-.3.11-.45.16ZM383.18,125.79c-.64.2-1.21.54-1.62.98h0c-.48.5-1.13,1.55-.2,2.97.53.82,1.51,1.4,2.62,1.56.96.14,2.03-.01,3.19-.44.63-.23,1.69-.75,1.81-1.66.09-.73-.4-1.38-.82-1.8-1.23-1.21-3.31-1.92-4.34-1.75-.21.03-.42.09-.63.15Z"/>
        </g>
        <g>
          <path class="cls-20" d="M392.06,106.79s-.03.02-.05.03c-1.66.95-1.02,2.88-1.26,4.45-.06.41-.1.84.04,1.22.27.74,1.16,1.1,1.93.96.77-.13,1.42-.65,1.95-1.23.77-.83,1.38-1.88,1.43-3.01.1-2.51-2.02-3.54-4.03-2.42ZM389.12,101.89c-.67-2.95-4.53-6.41-7.72-6.06-3.36.37-6.11,5.61-5.17,8.69.48,1.56,1.95,2.66,3.52,3.06,1.57.4,3.22.2,4.81-.12,1.66-.33,3.46-.94,4.28-2.44.51-.94.53-2.09.29-3.14ZM361.78,109.41c-.85.03-1.69.69-1.5,1.68.18.93,1.3,1.55,2.15,1.16.78-.35,1.11-1.46.65-2.19-.3-.47-.8-.67-1.3-.65ZM370.39,124.4c-.27-.05-.55-.02-.81.06-.87.28-1.77,1.41-.68,2.16.33.23.77.22,1.16.14.91-.19,1.86-1.4.82-2.16-.14-.1-.31-.17-.48-.2Z"/>
          <path class="cls-12" d="M392.06,106.79s-.03.02-.05.03c-1.66.95-1.02,2.88-1.26,4.45-.06.41-.1.84.04,1.22.27.74,1.16,1.1,1.93.96.77-.13,1.42-.65,1.95-1.23.77-.83,1.38-1.88,1.43-3.01.1-2.51-2.02-3.54-4.03-2.42ZM389.12,101.89c-.67-2.95-4.53-6.41-7.72-6.06-3.36.37-6.11,5.61-5.17,8.69.48,1.56,1.95,2.66,3.52,3.06,1.57.4,3.22.2,4.81-.12,1.66-.33,3.46-.94,4.28-2.44.51-.94.53-2.09.29-3.14ZM361.78,109.41c-.85.03-1.69.69-1.5,1.68.18.93,1.3,1.55,2.15,1.16.78-.35,1.11-1.46.65-2.19-.3-.47-.8-.67-1.3-.65ZM370.39,124.4c-.27-.05-.55-.02-.81.06-.87.28-1.77,1.41-.68,2.16.33.23.77.22,1.16.14.91-.19,1.86-1.4.82-2.16-.14-.1-.31-.17-.48-.2Z"/>
        </g>
      </g>
    </g>
  </g>
  <g id="Character">
    <g id="Astronaut">
      <g id="Bottom">
        <g>
          <path class="cls-8" d="M228.89,234.07c-7.34-16.75-17.1-32.75-17.1-32.75l-93.35,16.48c-.32,13.27,1.85,24.8,11.02,37.02,2.6,3.46,5.67,7.08,8.81,10.56-1.32,3.26-2.89,8.75-2.48,15.81.68,11.73,5.32,16.22,5.32,16.22,0,0,1.34-.1,5.55-.23-.79,1.31-1.54,2.68-2.19,4.11-4.26,9.44-9.5,21.88-9.5,21.88,0,0,2.18,9.22,9.71,14.33s14,3.49,14,3.49c0,0,25.7-24.77,33.1-31.59,4.96-4.57,10.93-11.33,12.02-13.89,13.02-1.55,22.75-8.35,26.6-13.77,6.87-9.67,6.68-28.91-1.53-47.66Z"/>
          <path class="cls-20" d="M142.87,328.03l-2.88-.97c1.9-5.79,9.34-24.89,16.45-35.2,6.36-9.22,7.17-10.4-5.78-24.92-13.56-15.19-22.38-31.64-22.47-41.9l3.04-.03c.09,9.56,8.6,25.21,21.69,39.88,13.08,14.65,13.7,17.61,6.02,28.74-6.83,9.91-14.27,28.96-16.06,34.41Z"/>
          <path class="cls-20" d="M203.82,295.5c5.75-14.28,1.58-27.28-2.71-36.25-4.29-8.97-10.65-17.54-10.65-17.54,0,0,13.69-7.69,17-18.22,1.21,10.05-8.56,20.24-8.56,20.24,0,0,19.8,31.81,4.91,51.78Z"/>
        </g>
        <g>
          <path class="cls-21" d="M152.35,288.39c-1.65,2.07-3.73,5.04-5.66,8.75-.25.01-.48.04-.71.06h-.11c-3.76.32-6.65.72-7.93,1.56-2.62,1.7-6.19,12.19-7.94,19.23-1.76,7.06-9.87,9.21-15.26,7.28-5.38-1.92-12.09-15.59-8.66-25.48,3.44-9.89,8.12-11.5,8.41-17.71.28-6.21.78-10.35,4.12-13.83,7.36-2.96,8.14-.35,15.08-2.9,1.04-.38,2.17-.86,3.33-1.4l11.48,13.02c.75,4.69,2.24,8.62,3.84,11.41Z"/>
          <path class="cls-9" d="M138.28,265.38l17.21,19.5s-4.75,4.43-8.82,12.3l-2.19.07s1.47-9.07,6.15-12.44l-12.35-19.43Z"/>
        </g>
        <path class="cls-21" d="M171.24,328.93l-2.18,2.09c-13.18-.54-26.93-15.33-28.39-21.12l1.18-2.71c-2.98-1.51-7.45,12.25-11.99,19.36-4.01,6.28-6.2,4.67-10.3,11.53-.58,4.82,1.49,8.43,4.97,13.55,3.48,5.12.72,9.26,3.88,19.25,3.16,9.99,16.67,16.78,22.11,15.03,5.44-1.75,10.62-8.44,7.81-15.12s-6.23-17.22-5.16-20.18c1.07-2.96,8.34-9.15,15.37-15.95,4.85-4.69,2.69-5.72,2.69-5.72Z"/>
      </g>
      <g id="Top">
        <g>
          <path class="cls-20" d="M181.98,126.95c15.03-3.78,23.63,6.14,35.5,6.38,12.97.27,18.04-4.19,22.96-14.33,8.83-5.1,19.49.48,21.37,5.6-1.58,23.99-14.25,34.81-29.02,40.55-13.97,5.43-31.62,3.6-41.53.21-13.83-15.12-11.96-31.88-9.28-38.41Z"/>
          <g>
            <path class="cls-21" d="M238.37,106.05c.79.89,1.33,1.98,2.09,2.89.59.7,1.31,1.29,2.11,1.72.52.28,1.08.5,1.54.87,1.12.91.58,1.81,0,2.85-1.03,1.85-2.15,3.63-3.26,5.43.34,1.78,3.62,4.21,6.16,5.24,5.17,2.1,12.06,2.5,14.17.06,1.06-4.06,1.68-9.23,2.02-13.41.14-1.68.18-3.39-.23-5.02-.33-1.31-.95-2.52-1.64-3.68-2.42-4.03-5.94-7.51-10.3-9.16s-9.6-1.25-13.28,1.64c-.84.66-1.67,1.47-2.73,1.53-1.29.07-2.48-.74-3.84-.67-1.45.08-2.88.63-3.96,1.62-.32.29-.61.63-.78,1.03-.61,1.51.79,2.14,1.95,2.67,1.68.75,3.49,1.12,5.25,1.68,1.75.55,3.5,1.34,4.73,2.72Z"/>
            <path class="cls-11" d="M240.45,119c-1.44,2.78-6.02,9.43-11.69,11.77-.94,6.34,11.53,21.02,25.51,19.49,3.69-5.13,8.3-15.09,7.55-25.65-7.19,3.72-19.4.26-21.37-5.6Z"/>
            <g>
              <path class="cls-20" d="M280.33,176.29c1.05,2.25-3.9,4.62-4.96,2.37L205.96,30.12c-.95-2.02,4.01-4.39,4.95-2.37l69.41,148.55Z"/>
              <g>
                <path class="cls-11" d="M255.96,25.21c-15.37,11.13-29.59-8.5-45.44,5.24l14.45,30.52c8.34-12.34,27.05-3.6,37.87-17.62,8.07-10.46,6.08-19.97,11.55-24.98.63-.58.2-1.65-.65-1.66-7.1-.06-11.69,4.08-17.79,8.5Z"/>
                <path class="cls-13" d="M232.76,31.59l3.32,3.68,4.88-.68c.95-.13,1.65.9,1.17,1.75l-2.43,4.33,2.15,4.48c.42.88-.34,1.86-1.28,1.67l-4.83-1-3.55,3.45c-.69.68-1.85.25-1.96-.72l-.55-4.95-4.34-2.35c-.85-.46-.81-1.71.07-2.11l4.49-2.06.87-4.91c.17-.96,1.35-1.31,2-.59Z"/>
              </g>
            </g>
            <path class="cls-21" d="M252.44,89.09c-.59-.19-1.14-.43-1.63-.86-.88-.79-1.65-1.7-2.54-2.48-.94-.82-1.93-1.62-3.09-2.05-.89-.32-1.84-.41-2.78-.46-2.77-.15-5.62.04-7.68,2.15-.65.67-1.24,1.39-1.77,2.15-.48.69-.89,1.42-1.28,2.16-.38.72-.73,1.33-.88,2.15-.03.18-.06.38.02.55.07.15.21.25.36.34.98.56,2.24.43,3.24-.08,1.63-.83,2.55-2.61,4.33-3.21.78-.26,1.63-.29,2.43-.09.6.15,1.63.63,1.83,1.33-1.2.35-2.44.46-3.62.94-1,.41-2.15,1.05-2.75,1.99-.66,1.02-1.02,2.23-1.31,3.41-.29,1.18-.49,2.46-.08,3.64.15.44.39.86.76,1.14s.87.4,1.3.24c-.07.84.61,1.61,1.4,1.87.8.25,1.67.09,2.45-.2.65-.23,1.27-.54,1.84-.93-.26.5-.3,1.1-.1,1.63.43,1.15,1.86,1.47,2.93,1.67,1.29.23,2.6.32,3.9.27-.12,3,1.9,5.77,4.48,7.26,2.57,1.49,5.61,1.92,8.57,2.1.75-5.38.96-10.97-.72-16.12-.34-1.03-.79-1.97-1.33-2.9-.39-.67-1-1.15-1.37-1.83-.19-.36-.32-.75-.56-1.07-.59-.8-1.71-1.06-2.31-1.86-.27-.36-.41-.8-.66-1.17-.51-.76-1.42-1.12-2.3-1.36-.38-.1-.74-.2-1.1-.31Z"/>
            <path class="cls-9" d="M234.73,85.39c-1.54,1.71-2.73,3.76-3.59,5.88-.11.4-.28.96-.06,1.13.62.49,1.61.56,2.43.32,1.84-.49,2.75-2.31,4.39-3.26.87-.51,1.92-.7,2.91-.57,1.05.18,2.14.54,2.6,1.67.07.21-.06.45-.27.5-2.11.55-4.21.77-5.74,2.31-1.26,1.52-1.75,3.81-1.91,5.75-.05,1.01.46,2.8,1.66,2.48.23-.09.5.03.58.26.11,2.71,3.56,1.62,5.04.56.35-.26.83.18.61.55-1.2,3.06,4.48,2.95,6.35,3.02.2,0,.37.17.36.37-.1,6.49,7.2,9.1,12.69,9.35-5.78.12-13.36-2.5-13.4-9.38,0,0,.37.37.37.37-2.59.09-8.69-.02-7.12-4.12,0,0,.61.55.61.55-1.06.68-2.2,1.23-3.49,1.33-1.38.14-3.01-.88-2.9-2.47,0,0,.62.47.62.47-1.01.38-1.98-.29-2.38-1.02-.8-1.43-.55-3.09-.19-4.56.39-1.46.79-2.95,1.87-4.11,1.61-1.65,4.11-1.99,6.13-2.47,0,0-.27.5-.27.5-.79-1.39-3.1-1.48-4.4-.74-1.58.88-2.67,2.75-4.59,3.17-.95.23-2.04.18-2.87-.54-.57-.83.29-2.05.65-2.81.95-1.6,1.93-3.22,3.31-4.49h0Z"/>
            <path class="cls-9" d="M250.27,89.77c-1.25-.26-2.56-.19-3.83-.13-.66.03-1.31.12-1.96.22-.36.05-.72.11-1.07.19-.27.06-.56.09-.8.24-.25.16-.12.45.09.62-.03-.01.01.02.04.04,0,0,.01.01.02.02.02.01,0,0,.02.02.05.03.1.05.16.06,0,0,.02,0,.02,0,.01,0,.02.01.03.01-.01,0-.01,0-.02-.01.14.03.28.02.42,0,.3-.04.61-.11.91-.16.9-.15,1.8-.29,2.69-.43,1.1-.18,2.23-.24,3.31-.52.07-.02.02-.16-.03-.17Z"/>
            <path class="cls-9" d="M252.52,95.83c-.51-.39-1.12-.52-1.72-.68-.7-.19-1.43-.37-2.15-.45-1.42-.16-2.85.03-4.23.39-1.37.37-2.7.94-3.87,1.76-1.52,1.06-2.17,2.59-3,4.19-.07.14.16.48.29.32,1.04-1.28,1.95-2.66,3.34-3.58,1.19-.78,2.51-1.38,3.88-1.74,1.26-.33,2.57-.43,3.87-.45.63-.01,1.24-.01,1.86.08.57.08,1.15.37,1.73.32.06,0,.03-.13,0-.16Z"/>
            <path class="cls-9" d="M251.58,99.74c-.31-.24-.79-.33-1.17-.4-.36-.06-.73-.04-1.09-.03-.8.03-1.58.19-2.35.42-1.29.4-2.44,1.06-3.23,2.19-.05.07-.1.16-.07.25,0,.02.02.04.04.05.03,0,.05,0,.07-.02.36-.21.73-.42,1.09-.62.31-.18.62-.3.94-.45.64-.3,1.3-.55,1.98-.72.66-.16,1.35-.26,2.03-.29.37-.02.73-.03,1.1-.08.23-.03.47.03.66-.12.05-.04.02-.14-.02-.17Z"/>
          </g>
        </g>
        <g>
          <path class="cls-21" d="M118.56,213.98c-1.33,3.45.68,8.26,7.96,11.66,7.28,3.4,18.87,6.08,38.56,3.26,16.89-2.43,31.31-8.42,39.58-15.89,4.45-4.02,9.34-11.01,6.07-14.61l-92.17,15.58Z"/>
          <path class="cls-8" d="M210.73,198.39c-2.11,7.27-14.14,19.96-43.26,24.86-28.59,4.81-50.74-3.32-50.52-12.98.13-14.78-8.62-25.07-11.59-41.22-3.32-18.07,2.73-28.17,2.73-28.17,28.01-17.37,72.08-12.18,81.16-13.39,10.99,7.21,17.07,16.17,16.59,40.78-.22,11.24,6.76,14.75,4.9,30.11Z"/>
        </g>
        <g>
          <g>
            <g>
              <path class="cls-11" d="M202.22,172.36c-.1-1.41-.59-2.34-1.31-2.8l.02-.02-5.25-3.36s-.02.02-.02.02c-.9-.58-2.17-.44-3.6.57-9.14,6.44-20.35,10.59-34.32,13.59-3.07.66-5.36,3.68-5.09,6.84l1.33,15.42c.15,1.75,1.06,3.21,2.36,4.05,0,0,0,0,0,0l5.3,3.39c1.04.65,2.32.92,3.67.65,13.78-2.8,25.98-7.91,33.9-13.15,2.63-1.74,4.37-6,4.14-9.17l-1.15-16.04Z"/>
              <path class="cls-12" d="M152.66,187.21l1.33,15.42c.15,1.75,1.06,3.21,2.36,4.05,0,0,0,0,0,0l5.3,3.39c.14.09.3.15.45.23l-1.14-21.72-7.48-5.01c-.62,1.09-.94,2.34-.83,3.63Z"/>
              <path class="cls-11" d="M197.3,170.13c-9.14,6.44-20.35,10.59-34.32,13.59-3.07.66-5.36,3.68-5.09,6.84l1.33,15.42c.27,3.17,3.02,5.36,6.1,4.74,13.78-2.8,25.98-7.91,33.9-13.15,2.63-1.74,4.37-6,4.15-9.17l-1.15-16.04c-.23-3.17-2.34-4.05-4.92-2.23Z"/>
              <path class="cls-6" d="M197.3,170.13c-9.14,6.44-20.35,10.59-34.32,13.59-3.07.66-5.36,3.68-5.09,6.84l1.33,15.42c.27,3.17,3.02,5.36,6.1,4.74,13.78-2.8,25.98-7.91,33.9-13.15,2.63-1.74,4.37-6,4.15-9.17l-1.15-16.04c-.23-3.17-2.34-4.05-4.92-2.23Z"/>
            </g>
            <g>
              <path class="cls-11" d="M166.01,207.17c-.03-.48-.05-.97-.1-1.45-.04-.4-.1-.8-.13-1.2-.14-1.84-.29-3.67-.47-5.5-.17-1.79-.35-3.57-.55-5.35-.11-.99-.23-1.97-.36-2.95-.13-1.02-.22-2.14-.58-3.09-.18-.47-1.19-.54-1.24.06-.13,1.79.27,3.7.46,5.48.19,1.73.38,3.47.55,5.2.16,1.69.31,3.38.45,5.07.07.85.13,1.69.19,2.54.04.6-.09,1.61.41,2.03.32.27.76.32,1.11.06.22-.16.28-.32.27-.6,0-.03,0-.07,0-.1,0-.06,0-.12-.01-.18ZM170.98,205.77c-.03-.48-.05-.97-.1-1.45-.04-.4-.1-.8-.13-1.2-.14-1.84-.29-3.67-.47-5.5-.17-1.79-.35-3.57-.55-5.35-.11-.99-.23-1.97-.36-2.95-.13-1.02-.22-2.14-.58-3.1-.18-.47-1.19-.54-1.24.06-.13,1.79.27,3.7.46,5.48.19,1.73.38,3.47.55,5.2.16,1.69.31,3.38.45,5.07.07.85.13,1.69.19,2.54.04.6-.09,1.61.41,2.03.32.27.76.32,1.11.06.22-.16.28-.32.27-.6,0-.03,0-.07,0-.1,0-.06,0-.12-.01-.18ZM176.19,204.42c0-.06,0-.12-.01-.18-.03-.48-.05-.97-.1-1.45-.04-.4-.1-.8-.13-1.2-.14-1.84-.29-3.67-.47-5.5-.17-1.79-.35-3.57-.55-5.35-.11-.98-.23-1.97-.36-2.95-.13-1.02-.21-2.14-.58-3.09-.18-.47-1.19-.54-1.24.06-.13,1.79.27,3.7.46,5.48.19,1.73.38,3.47.55,5.2.16,1.69.31,3.38.45,5.07.07.85.13,1.69.19,2.54.04.6-.09,1.61.41,2.03.32.27.76.32,1.11.06.22-.16.28-.32.27-.6,0-.03,0-.07,0-.1Z"/>
              <g class="cls-12">
                <path d="M175.21,203.56c-.03-.48-.05-.97-.1-1.45-.04-.4-.1-.8-.13-1.2-.14-1.84-.29-3.67-.47-5.5-.17-1.79-.35-3.57-.55-5.35-.11-.99-.23-1.97-.36-2.95-.12-.9-.21-1.88-.48-2.76-.2.05-.35.18-.37.4-.13,1.79.27,3.7.46,5.48.19,1.73.38,3.47.55,5.2.16,1.69.31,3.38.45,5.07.07.85.13,1.69.19,2.54.03.44-.03,1.08.13,1.57.15-.02.29-.06.42-.16.22-.16.28-.32.27-.6,0-.03,0-.07,0-.1,0-.06,0-.12-.01-.18Z"/>
                <path d="M165.04,206.49c-.03-.48-.05-.97-.1-1.45-.04-.4-.1-.8-.13-1.2-.14-1.84-.29-3.67-.47-5.5-.17-1.79-.35-3.57-.55-5.35-.11-.99-.23-1.97-.36-2.95-.12-.9-.21-1.88-.48-2.76-.2.05-.35.18-.37.4-.13,1.79.27,3.7.46,5.48.19,1.73.38,3.47.55,5.2.16,1.69.31,3.38.45,5.07.07.85.13,1.69.19,2.54.03.44-.03,1.08.13,1.57.15-.02.29-.06.42-.16.22-.16.28-.32.27-.6,0-.03,0-.07,0-.1,0-.06,0-.12-.01-.18Z"/>
                <path d="M170.01,205.09c-.03-.48-.05-.97-.1-1.45-.04-.4-.1-.8-.13-1.2-.14-1.84-.29-3.67-.47-5.5-.17-1.79-.35-3.57-.55-5.35-.11-.99-.23-1.97-.36-2.95-.12-.9-.21-1.88-.48-2.76-.2.05-.35.18-.37.4-.13,1.79.27,3.7.46,5.48.19,1.73.38,3.47.55,5.2.16,1.69.31,3.38.45,5.07.07.85.13,1.69.19,2.54.03.44-.03,1.08.13,1.57.15-.02.29-.06.42-.16.22-.16.28-.32.27-.6,0-.03,0-.07,0-.1,0-.06,0-.12-.01-.18Z"/>
              </g>
            </g>
            <g>
              <path class="cls-7" d="M186.69,181.98c.56.29.93.95.98,1.92.1,1.94-1.12,4.36-2.73,5.42-.8.53-1.55.61-2.11.33-.34-.18-1.63-.84-1.97-1.02-.56-.29-.93-.95-.98-1.92-.1-1.94,1.12-4.36,2.73-5.42.8-.53,1.55-.61,2.11-.33.34.17,1.63.84,1.97,1.02Z"/>
              <path class="cls-21" d="M184.95,189.32c-.8.53-1.55.61-2.11.33s-.93-.95-.98-1.92c-.1-1.94,1.12-4.36,2.73-5.42.8-.53,1.55-.61,2.11-.33s.93.95.98,1.92c.1,1.94-1.12,4.36-2.73,5.42Z"/>
            </g>
            <g>
              <path class="cls-20" d="M198.66,176.72c.56.29.93.95.98,1.92.1,1.94-1.12,4.36-2.73,5.42-.8.53-1.55.61-2.11.33-.34-.17-1.63-.84-1.97-1.01-.56-.29-.93-.95-.98-1.92-.1-1.94,1.12-4.36,2.73-5.42.8-.53,1.55-.61,2.11-.33.34.17,1.63.84,1.97,1.02Z"/>
              <path class="cls-23" d="M196.92,184.06c-.8.53-1.55.61-2.11.33s-.93-.95-.98-1.92c-.1-1.94,1.12-4.36,2.73-5.42.8-.53,1.55-.61,2.11-.33s.93.95.98,1.92c.1,1.94-1.12,4.36-2.73,5.42Z"/>
            </g>
            <g>
              <path class="cls-7" d="M187.33,194.13c.56.29.93.95.98,1.92.1,1.94-1.12,4.36-2.73,5.42-.8.53-1.55.61-2.11.33-.34-.17-1.63-.84-1.97-1.02-.56-.29-.93-.95-.98-1.92-.1-1.94,1.12-4.36,2.73-5.42.8-.53,1.55-.61,2.11-.33.34.17,1.63.84,1.97,1.02Z"/>
              <path class="cls-21" d="M185.59,201.47c-.8.53-1.55.61-2.11.33s-.93-.95-.98-1.92c-.1-1.94,1.12-4.36,2.73-5.42.8-.53,1.55-.61,2.11-.33s.93.95.98,1.92c.1,1.94-1.12,4.36-2.73,5.42Z"/>
            </g>
            <g>
              <path class="cls-7" d="M199.3,188.88c.56.29.93.95.98,1.92.1,1.94-1.12,4.36-2.73,5.42-.8.53-1.55.61-2.11.33-.34-.17-1.63-.84-1.97-1.02-.56-.29-.93-.95-.98-1.92-.1-1.94,1.12-4.36,2.73-5.42.8-.53,1.55-.61,2.11-.33.34.17,1.63.84,1.97,1.02Z"/>
              <path class="cls-21" d="M197.56,196.22c-.8.53-1.55.61-2.11.33-.56-.29-.93-.95-.98-1.92-.1-1.94,1.12-4.36,2.73-5.42.8-.53,1.55-.61,2.11-.33.56.29.93.95.98,1.92.1,1.94-1.12,4.36-2.73,5.42Z"/>
            </g>
          </g>
          <path class="cls-21" d="M153.16,192.99c-7.38,3.79-31.2,8.1-40.39-1.61-1.76,2.68-.81,6.14,1.98,9.01s9.19,5.85,18.31,5.47c15.18-.64,22.58-4.22,22.58-4.22,0,0,2.47-1.46,1.61-5.51-.86-4.06-4.09-3.12-4.09-3.12Z"/>
        </g>
        <g>
          <path class="cls-20" d="M117.23,184.06c-4.67,1.92-12.47,5.74-17.6,12.77-5.91,8.11-7.59,18.62-3.67,26.04-8.07,9.39-17.13,9.2-22.37,8.5-10.02-15.93-10.66-36.24-4.84-51.12,5.82-14.88,14.99-29.3,39.34-39.36,12.29-.38,20.37,30.81,9.15,43.17Z"/>
          <g>
            <path class="cls-21" d="M70.66,223.23c-.11.2-.22.4-.32.61-.09.18-.17.36-.17.56,0,.25.15.48.29.69,1.15,1.67,2.5,3.2,3.65,4.87,1.15,1.68,2.1,3.56,2.3,5.59.27,2.76,0,5.47.51,8.25.54,2.96,1.41,5.84,2.29,8.7.73,2.37,1.7,4.15,3.48,5.85,1.69,1.61,3.83,2.66,5.97,3.5,1.17.46,2.46.54,3.71.59,1.08.05,2.68.44,3.71.07.25-.09.5-.24.65-.46.25-.37.15-.86,0-1.27-.41-1.04-1.18-1.9-2.1-2.55-1.73-1.21-4.02-1.59-5.32-3.39-.52-.71-.8-1.67-1-2.52-.05-.19.07-.46.27-.42.48.45.84,1.03,1.32,1.46.54.48,1.38.79,2.03,1.08,1.38.59,2.85.99,4.36,1.18,3.01.38,6.15-.05,8.93-1.34.75-.35,1.49-.76,2.03-1.37.69-.78,1.1-2.23.37-3.09-.34-.4-.87-.62-1.39-.75.51-.34.77-.98.71-1.57-.06-.59-.4-1.13-.85-1.52-.45-.38-.99-.58-1.57-.71.18-.62.02-1.29-.33-1.82-.36-.53-.9-.91-1.48-1.18-.49-.22-1.02-.38-1.43-.71-.79-.65-.97-1.91-1.07-2.87-.12-1.19,0-2.39-.02-3.59-.04-3.49-1.46-6.8-3.49-9.52-1.79-2.41-5.19-7.17-6.98-9.58-.67-.9-1.99-1.08-3.02-1.13-3.12-.15-6.4.89-9.2,2.21-2.96,1.4-5.26,3.3-6.84,6.15Z"/>
            <path class="cls-9" d="M102.1,246.06c-.51-.03-1.01-.11-1.52-.17-.51-.05-1.03-.12-1.53-.24-.65-.15-1.3-.33-1.87-.69-.06-.04-.12-.08-.14-.14-.06-.12.03-.27.1-.39.16-.24.98-1.63.62-1.81-.51.62-1.02,1.24-1.54,1.86-.22.26-.41.53-.68.74-.3.24-.57.49-.87.73-.06.05-.13.09-.19.14,0-.37-.08-.74-.22-1.12-.37-.99-1-1.87-1.81-2.57-.77-.67-1.6-.98-2.5-1.34.13-.4.52-.89.67-1.19.26-.5.52-1,.74-1.51.44-1.04.75-2.1.77-3.22.03-2.16-1.18-3.63-2.86-4.84-.21-.15-.3.07-.23.25.59,1.4,1.51,2.76,1.48,4.33-.03,1.55-.72,3.04-1.45,4.4-.26.5-.83,1.21-.89,1.78-.07.7.46.93,1.02,1.12,1.3.44,2.37,1.14,3.07,2.33.3.52.93,1.62.27,2.11-.52.39-1.55.3-2.18.35-1.46.12-3.02.22-4.44-.16-1.52-.41-2.55-1.42-3.55-2.54-.51-.57-1.02-1.14-1.54-1.69-.53-.57-1.03-1.27-1.68-1.71-.07-.05-.07.08-.06.11.38,1.27,1.41,2.59,2.21,3.64.74.98,1.57,1.92,2.64,2.56,1.9,1.13,4.2,1.25,6.39,1.14.26-.01.54-.03.82-.04-.61.34-1.23.66-1.79,1.08-.07.05-.02.21.06.2,1.28-.11,2.54-.73,3.67-1.46,2.92,1.69,6.66,2.61,10,1.65.11-.03.05-.27-.05-.27-1.81.02-3.63-.03-5.39-.45-1.32-.32-2.57-.85-3.74-1.5.16-.12.33-.23.48-.35.68-.52,1.31-1.12,1.91-1.74.07.05.15.09.23.13.11.06.23.11.34.17.23.11.46.2.7.29.5.19,1.01.33,1.53.44.54.1,1.08.17,1.63.17.49,0,.95-.12,1.43-.25.15-.04.04-.33-.09-.34Z"/>
          </g>
          <path class="cls-11" d="M95.06,206.84c-.55,2.95-1.65,11.41.9,16.03-10.4-4.71-20.83,2.25-22.37,8.5-4.65-4.85-7.82-12.85-8.83-25.31,11.09-7.15,23.94-5.29,30.29.78Z"/>
        </g>
        <g id="Helmet">
          <g>
            <g>
              <path class="cls-21" d="M192.78,121.2c-14.33-23.56-72.1-17.55-80.08,9.04-.55,1.82-.79,3.73-.75,5.63.03,1.68.2,3.44.46,5.02.32,2,.91,3.96,1.85,5.75,13.04,24.97,72.62,19.22,80.77-7.8.58-1.94.8-3.97.74-6-.04-1.33-.16-2.77-.36-4.16-.38-2.64-1.24-5.2-2.62-7.47Z"/>
              <g>
                <path class="cls-9" d="M134.66,154.82c.19,1.81-.04,2.83-.25,3.73-.16.69-.3,1.31-.18,2.11.17.05.34.09.51.13-.16-.8-.03-1.38.14-2.13.2-.89.46-1.99.26-3.89-.22-2.07.05-3.81,2.08-5.56l-.31-.37c-2.19,1.89-2.48,3.76-2.25,5.98Z"/>
                <path class="cls-9" d="M155.76,154.67c-10.27.99-20.76-.3-29.01-4.11h0c-8.04-3.71-12.8-9.24-13.4-15.56-.6-6.32,3.04-12.66,10.24-17.85,14.78-10.64,40.22-13.1,56.72-5.48,8.04,3.71,12.8,9.24,13.4,15.56.6,6.32-3.04,12.66-10.24,17.85-7.39,5.32-17.44,8.6-27.71,9.59ZM151.36,108.04c-10.18.98-20.15,4.23-27.48,9.51-7.05,5.08-10.62,11.26-10.04,17.4.58,6.14,5.24,11.53,13.11,15.16,16.36,7.56,41.59,5.12,56.24-5.43,7.05-5.08,10.62-11.26,10.04-17.4s-5.24-11.52-13.12-15.16c-8.18-3.78-18.58-5.06-28.76-4.07Z"/>
              </g>
            </g>
            <g>
              <path class="cls-8" d="M191.29,119.82l.51,5.44c.54,5.75-2.67,11.86-9.77,16.97-14.19,10.23-38.54,12.58-54.39,5.26-7.93-3.66-12.22-9.04-12.77-14.79l-.51-5.44c.54,5.75,4.84,11.14,12.77,14.8,15.85,7.32,40.2,4.97,54.39-5.26,7.1-5.11,10.31-11.22,9.77-16.97Z"/>
              <path class="cls-2" d="M167.12,149.23c1.97-.57,3.9-1.24,5.75-1.99l-.51-5.44c-1.85.76-3.77,1.42-5.75,1.99l.51,5.44Z"/>
              <path class="cls-20" d="M190.21,126.59c-1.46,3.57-4.34,7.08-8.69,10.21-.34.24-.69.48-1.04.71l.51,5.44c.35-.23.7-.48,1.04-.72,4.35-3.13,7.23-6.64,8.69-10.21l-.51-5.43Z"/>
              <path class="cls-20" d="M155.63,145.93c-10.06,1.08-20.4-.13-28.51-3.87-7.93-3.66-12.22-9.05-12.77-14.8l.51,5.44c.54,5.75,4.84,11.13,12.77,14.79,8.11,3.75,18.45,4.96,28.51,3.88l-.51-5.44Z"/>
              <path class="cls-23" d="M128.37,147.81c5.11,2.23,11.04,3.49,17.21,3.83l-.51-5.44c-6.17-.34-12.1-1.6-17.21-3.83l.51,5.44Z"/>
            </g>
            <g>
              <path class="cls-9" d="M191.85,117.73c-.55-5.86-4.94-11.35-13.02-15.09-16.16-7.46-40.99-5.07-55.46,5.36-7.24,5.21-10.51,11.44-9.96,17.31.03.35.17,1.76.2,2.11.55,5.86,4.94,11.35,13.02,15.09,16.16,7.46,40.99,5.07,55.46-5.36,7.24-5.21,10.51-11.44,9.96-17.31-.03-.35-.17-1.76-.2-2.11Z"/>
              <path class="cls-21" d="M126.43,140.4c16.16,7.46,40.99,5.07,55.46-5.36,7.24-5.21,10.51-11.44,9.96-17.31-.55-5.86-4.94-11.35-13.02-15.09-16.16-7.46-40.99-5.07-55.46,5.36-7.24,5.21-10.51,11.44-9.96,17.31.55,5.86,4.94,11.35,13.02,15.09Z"/>
            </g>
            <g>
              <path class="cls-9" d="M141.35,147.24c-3.26-.28-6.39-.95-9.2-2.02-.31-.12-.57-.1-.75.03-.14.1-.68.49-.82.6-.19.13-.28.38-.25.73v.04c.07.67.62,1.44,1.24,1.68,2.81,1.08,5.95,1.75,9.2,2.03.26.02.49-.04.68-.17.15-.1.69-.5.83-.6.28-.2.44-.55.41-.95v-.04c-.07-.67-.66-1.25-1.33-1.31Z"/>
              <path class="cls-21" d="M131.56,148.29c2.81,1.08,5.95,1.75,9.2,2.03.67.06,1.16-.46,1.09-1.14v-.04c-.07-.67-.66-1.25-1.33-1.31-3.26-.28-6.39-.95-9.2-2.02-.63-.24-1.07.09-1.01.76v.04c.07.67.62,1.44,1.24,1.68Z"/>
            </g>
          </g>
          <g>
            <g>
              <path class="cls-7" d="M188.17,112.02s0,0,0,0c.51,5.4-2.51,11.13-9.16,15.93-13.32,9.6-36.19,11.81-51.06,4.93-7.44-3.44-11.48-8.5-11.99-13.89s2.5-11.13,9.17-15.93c13.32-9.6,36.19-11.81,51.06-4.93,7.44,3.44,11.47,8.49,11.98,13.89Z"/>
              <path class="cls-21" d="M188.17,112.02s0,0,0,0c.51,5.4-2.51,11.13-9.16,15.93-13.32,9.6-36.19,11.81-51.06,4.93-7.44-3.44-11.48-8.5-11.99-13.89s2.5-11.13,9.17-15.93c13.32-9.6,36.19-11.81,51.06-4.93,7.44,3.44,11.47,8.49,11.98,13.89Z"/>
            </g>
            <ellipse class="cls-21" cx="150.52" cy="96.18" rx="42.94" ry="43.43"/>
            <path class="cls-8" d="M189.77,113.87c-.47.98-3.09,5.57-12.28,9.8-.37.17-.74.33-1.12.49-5.58,2.33-13.11,3.49-20.51,3.26-10.37-.32-19.99-5.59-26.16-14.04h0c.31-1.13.42-2.48.27-4.02-.32-3.36-1.77-6.91-3.8-9.82,1.79-3.94,3.83-16.85,26-30.48,10.74-6.6,25.45-5.25,29.51-2.85-9.24-9.9-22.93-15.35-37.45-13.31-22.37,3.14-38.72,23.58-37.12,46.36.63,8.96,3.87,17.07,8.89,23.64.22.29.36.64.4,1.01h0c.51,5.4,4.55,10.45,11.99,13.89,14.88,6.87,37.74,4.66,51.06-4.93,6.66-4.8,9.67-10.54,9.16-15.94h0c-.04-.37.04-.74.2-1.07.33-.66.64-1.33.94-2Z"/>
            <path class="cls-20" d="M187.35,117.11c-1.28,3.57-4.07,7.09-8.4,10.22-11.63,8.37-30.52,11.12-45.03,7.12-2.12-.58-4.14-1.3-6.04-2.18-2.87-1.33-5.24-2.9-7.09-4.64-2.04-1.45-4.02-4.02-4.93-4.93,0,0,.59,2.17.7,2.54l.18.58c.03.09.06.18.08.27.53,1.93,1.54,3.78,3,5.52,2,2.37,4.87,4.49,8.59,6.21,14.88,6.87,37.74,4.66,51.06-4.93,6.66-4.8,9.67-10.54,9.16-15.94-.03-.37.03-.74.2-1.06.31-.63.61-1.26.89-1.9-.26.51-.94,1.66-2.37,3.13Z"/>
            <path class="cls-9" d="M181.69,66.22c4.87,6.16-1.2,18.01-7.85,22.65,3.56,1.61,5.87,7.67,4.52,11.71,7.03,2.2,12.79,8.03,11.42,13.3h0c2.91-6.63,4.22-14.09,3.49-21.83-.95-10.06-5.2-19-11.57-25.82Z"/>
            <g>
              <path class="cls-20" d="M124.19,117.96c-.77.07-1.62-.09-2.5-.5-3.93-1.82-7.57-8-8.12-13.78-.32-3.37.45-5.99,2.11-7.18,1.15-.83,2.61-.88,4.21-.14,3.93,1.82,7.57,8,8.12,13.78.32,3.37-.45,5.99-2.11,7.18-.51.37-1.09.58-1.71.64ZM117.42,96.25c-.55.05-1.06.24-1.52.57-1.52,1.1-2.25,3.65-1.95,6.82.53,5.66,4.07,11.69,7.89,13.45,1.46.68,2.79.64,3.82-.1,1.52-1.1,2.25-3.65,1.95-6.82-.53-5.66-4.07-11.69-7.89-13.45-.82-.38-1.6-.53-2.3-.47Z"/>
              <path class="cls-20" d="M169.45,57.04c-8.13-1.22-22.58-.13-37.74,16.64l-6.35,1.02s-7.95,11.4-8.74,21.52c2.22-.89,6.78,1.27,9.8,8.42,3.02,7.15.39,11.39.39,11.39l2.79,3.21c5.96,6.86,14.35,11.11,23.36,11.7,6.74.44,13.66-.21,18.79-1.72,2.12-.62,4.23-1.41,6.22-2.42,5.74-2.89,8.94-5.85,10.7-8.05.03-.61.03-1.22-.03-1.83h0s0-.08,0-.12c-1.95,2.22-5.51,5.57-11.03,8.31-1.78.88-3.79,1.59-5.89,2.16-4.73,1.29-10.95,1.89-17.15,1.6-9.92-.47-19.13-5.38-25.23-13.3l-.76-.98s.83-3.65-.19-7.83c-1.02-4.18-3.85-7.64-3.85-7.64,0,0,3.48-18.02,25.47-30.71,13.05-7.53,23.21-6.59,29.87-4.02-3.09-2.95-6.61-5.43-10.43-7.35Z"/>
              <path class="cls-12" d="M123.42,98.46c4.11-12.27,12.1-22.25,24.88-30.12,10.69-6.58,20.63-8.08,30.09-5.3-2.3-2-4.81-3.76-7.49-5.24-.04,0-12.02-1.99-23.66,4.51-11.66,6.51-15.04,12.44-15.04,12.44l-6.74.97s-7.26,11.81-7.92,19.69c.72-.09,2.19.35,2.19.35l.26-.76c.69.2,1.33.52,1.91.95l-.33.95s.97.65,1.85,1.55Z"/>
            </g>
            <g>
              <g>
                <path class="cls-11" d="M112.11,98.55c-1.46.65-2.5,2.29-2.76,4.74-.52,4.91,2.25,11.26,6.19,14.17,1.97,1.46,3.86,1.78,5.33,1.13.89-.4,2.51-1.12,3.4-1.51,1.46-.65,2.5-2.29,2.76-4.74.52-4.91-2.25-11.26-6.19-14.17-1.97-1.46-3.86-1.78-5.33-1.13-.89.4-2.51,1.12-3.4,1.51Z"/>
                <path class="cls-12" d="M112.11,98.55c-1.46.65-2.5,2.29-2.76,4.74-.52,4.91,2.25,11.26,6.19,14.17,1.97,1.46,3.86,1.78,5.33,1.13.89-.4,2.51-1.12,3.4-1.51,1.46-.65,2.5-2.29,2.76-4.74.52-4.91-2.25-11.26-6.19-14.17-1.97-1.46-3.86-1.78-5.33-1.13-.89.4-2.51,1.12-3.4,1.51Z"/>
                <path class="cls-11" d="M115.53,117.46c1.97,1.46,3.86,1.78,5.33,1.13,1.46-.65,2.5-2.29,2.76-4.74.52-4.91-2.25-11.26-6.19-14.17-1.97-1.46-3.86-1.78-5.33-1.13-1.46.65-2.5,2.29-2.76,4.74-.52,4.91,2.25,11.26,6.19,14.17Z"/>
                <path class="cls-11" d="M115.53,117.46c1.97,1.46,3.86,1.78,5.33,1.13,1.46-.65,2.5-2.29,2.76-4.74.52-4.91-2.25-11.26-6.19-14.17-1.97-1.46-3.86-1.78-5.33-1.13-1.46.65-2.5,2.29-2.76,4.74-.52,4.91,2.25,11.26,6.19,14.17Z"/>
              </g>
              <g>
                <path class="cls-20" d="M120.72,111.89c.25-3.04-1.57-6.91-4.05-8.64-1.24-.87-2.42-1.04-3.31-.6-.27.13-2.1,1-2.37,1.13-.9.43-1.51,1.45-1.64,2.97-.25,3.04,1.57,6.91,4.05,8.64,1.24.87,2.42,1.04,3.31.61.27-.13,2.11-1,2.38-1.14.89-.43,1.5-1.45,1.63-2.97Z"/>
                <path class="cls-2" d="M114.29,104.39c2.48,1.73,4.29,5.6,4.05,8.64-.25,3.04-2.45,4.1-4.93,2.36-2.48-1.73-4.29-5.6-4.05-8.64.25-3.04,2.45-4.1,4.93-2.36Z"/>
                <path class="cls-7" d="M114,105.72c1.92,1.35,3.33,4.35,3.14,6.71-.19,2.36-1.9,3.18-3.83,1.83-1.92-1.35-3.33-4.35-3.14-6.71.19-2.36,1.9-3.18,3.83-1.83Z"/>
                <g>
                  <path class="cls-21" d="M115.83,108.06l-2.34,2.01-2.22-4.74c.69-.33,1.6-.2,2.56.47.77.54,1.46,1.34,1.99,2.26Z"/>
                  <path class="cls-9" d="M116.97,112.51c-.1,1.18-.57,1.97-1.27,2.3l-2.22-4.74,2.34-2.01c.8,1.38,1.26,3.03,1.15,4.45Z"/>
                  <path class="cls-21" d="M115.71,114.81c-.69.33-1.6.2-2.56-.47-.77-.54-1.46-1.34-1.99-2.27l2.34-2.01,2.22,4.74Z"/>
                  <path class="cls-9" d="M113.49,110.07l-2.34,2.01c-.8-1.38-1.26-3.03-1.15-4.44.1-1.18.57-1.97,1.27-2.3l2.22,4.74Z"/>
                </g>
              </g>
            </g>
          </g>
          <path class="cls-7" d="M127.16,96.94c-.05.14-.1.28-.14.4-.32.9-.58,1.65-.84,2.21,2.03,2.9,3.48,6.45,3.8,9.81.15,1.54.04,2.89-.27,4.02l1,1.3.95,1.14c.6-1.35,1.37-3.23.97-7.4s-2.54-9.25-5.47-11.49Z"/>
          <path class="cls-3" d="M193.26,92.05c.29,3.12.26,6.19-.08,9.18-.34,2.99-.98,5.91-1.9,8.7,6.85-25.72-9.46-42.48-9.46-42.48-7.62-3.76-23.08-1.37-32.01,3.12.77-.5,1.56-1.01,2.38-1.51,10.73-6.6,25.45-5.25,29.51-2.85,6.37,6.82,10.62,15.76,11.57,25.83Z"/>
          <path class="cls-4" d="M187.34,81.32c-1.35-4.27-3.55-7.88-7.53-10.02-3.57-1.92-7.79-2.55-11.78-2.02-1.16.16-2.37.43-3.24,1.22-1.28,1.17-1.46,3.23-.88,4.87.59,1.65,1.8,2.98,3.01,4.23,4.91,5.09,10.44,9.89,13.28,16.39,1.31,3,1.99,6.23,2.97,9.36.53,1.67,1.95,3.31,3.88,2.5,2.18-.91,2.29-3.72,2.48-5.73.24-2.46.34-4.93.24-7.4-.18-4.56-1.08-9.07-2.45-13.41ZM187.57,111.58c-.03-.61-.3-1.2-.79-1.53-.43-.29-.98-.35-1.49-.26-1.55.26-2.63,1.56-2.5,3.17.03.36.21.73.46.99.61.64,1.6.89,2.44.6.93-.32,1.68-1.5,1.85-2.44.03-.17.04-.35.03-.53Z"/>
          <path class="cls-4" d="M144.41,83.3c-3.32-.95-7.84,5.15-9.27,8.95-1.06,2.82-1.13,6.17-.7,9.06.15,1.01.49,2.17,1.02,3.2.96,1.85,3.09,3.47,5.16,2.1.92-.61,1.5-1.61,2-2.6,1.71-3.36,8.16-18.89,1.8-20.71ZM141.46,109.78c-1.76-.44-3.52.98-3.53,2.62,0,.89.72,1.76,1.35,1.97.99.32,2.39-.1,3.01-.92.95-1.26.94-3.22-.83-3.66Z"/>
        </g>
      </g>
    </g>
  </g>
</svg>